<?xml version="1.0" encoding="utf-8" standalone="no"?>
<!DOCTYPE svg PUBLIC "-//W3C//DTD SVG 1.1//EN"
  "http://www.w3.org/Graphics/SVG/1.1/DTD/svg11.dtd">
<svg xmlns:xlink="http://www.w3.org/1999/xlink" width="324pt" height="216pt" viewBox="0 0 324 216" xmlns="http://www.w3.org/2000/svg" version="1.1">
 <metadata>
  <rdf:RDF xmlns:dc="http://purl.org/dc/elements/1.1/" xmlns:cc="http://creativecommons.org/ns#" xmlns:rdf="http://www.w3.org/1999/02/22-rdf-syntax-ns#">
   <cc:Work>
    <dc:type rdf:resource="http://purl.org/dc/dcmitype/StillImage"/>
    <dc:date>2026-01-19T14:29:16.925394</dc:date>
    <dc:format>image/svg+xml</dc:format>
    <dc:creator>
     <cc:Agent>
      <dc:title>Matplotlib v3.10.8, https://matplotlib.org/</dc:title>
     </cc:Agent>
    </dc:creator>
   </cc:Work>
  </rdf:RDF>
 </metadata>
 <defs>
  <style type="text/css">*{stroke-linejoin: round; stroke-linecap: butt}</style>
 </defs>
 <g id="figure_1">
  <g id="patch_1">
   <path d="M 0 216 
L 324 216 
L 324 0 
L 0 0 
z
" style="fill: #ffffff"/>
  </g>
  <g id="axes_1">
   <g id="patch_2">
    <path d="M 40.5 192.24 
L 291.6 192.24 
L 291.6 25.92 
L 40.5 25.92 
z
" style="fill: #ffffff"/>
   </g>
   <g id="FillBetweenPolyCollection_1">
    <defs>
     <path id="m775ce43de1" d="M 51.913636 -23.760344 
L 51.913636 -23.76 
L 53.059257 -23.76 
L 54.204877 -23.76 
L 55.350497 -23.76 
L 56.496118 -23.76 
L 57.641738 -23.76 
L 58.787358 -23.76 
L 59.932979 -23.76 
L 61.078599 -23.76 
L 62.224219 -23.76 
L 63.36984 -23.76 
L 64.51546 -23.76 
L 65.66108 -23.76 
L 66.806701 -23.76 
L 67.952321 -23.76 
L 69.097942 -23.76 
L 70.243562 -23.76 
L 71.389182 -23.76 
L 72.534803 -23.76 
L 73.680423 -23.76 
L 74.826043 -23.76 
L 75.971664 -23.76 
L 77.117284 -23.76 
L 78.262904 -23.76 
L 79.408525 -23.76 
L 80.554145 -23.76 
L 81.699765 -23.76 
L 82.845386 -23.76 
L 83.991006 -23.76 
L 85.136626 -23.76 
L 86.282247 -23.76 
L 87.427867 -23.76 
L 88.573487 -23.76 
L 89.719108 -23.76 
L 90.864728 -23.76 
L 92.010348 -23.76 
L 93.155969 -23.76 
L 94.301589 -23.76 
L 95.447209 -23.76 
L 96.59283 -23.76 
L 97.73845 -23.76 
L 98.88407 -23.76 
L 100.029691 -23.76 
L 101.175311 -23.76 
L 102.320931 -23.76 
L 103.466552 -23.76 
L 104.612172 -23.76 
L 105.757792 -23.76 
L 106.903413 -23.76 
L 108.049033 -23.76 
L 109.194654 -23.76 
L 110.340274 -23.76 
L 111.485894 -23.76 
L 112.631515 -23.76 
L 113.777135 -23.76 
L 114.922755 -23.76 
L 116.068376 -23.76 
L 117.213996 -23.76 
L 118.359616 -23.76 
L 119.505237 -23.76 
L 120.650857 -23.76 
L 121.796477 -23.76 
L 122.942098 -23.76 
L 124.087718 -23.76 
L 125.233338 -23.76 
L 126.378959 -23.76 
L 127.524579 -23.76 
L 128.670199 -23.76 
L 129.81582 -23.76 
L 130.96144 -23.76 
L 132.10706 -23.76 
L 133.252681 -23.76 
L 134.398301 -23.76 
L 135.543921 -23.76 
L 136.689542 -23.76 
L 137.835162 -23.76 
L 138.980782 -23.76 
L 140.126403 -23.76 
L 141.272023 -23.76 
L 142.417643 -23.76 
L 143.563264 -23.76 
L 144.708884 -23.76 
L 145.854504 -23.76 
L 147.000125 -23.76 
L 148.145745 -23.76 
L 149.291366 -23.76 
L 150.436986 -23.76 
L 151.582606 -23.76 
L 152.728227 -23.76 
L 153.873847 -23.76 
L 155.019467 -23.76 
L 156.165088 -23.76 
L 157.310708 -23.76 
L 158.456328 -23.76 
L 159.601949 -23.76 
L 160.747569 -23.76 
L 161.893189 -23.76 
L 163.03881 -23.76 
L 164.18443 -23.76 
L 165.33005 -23.76 
L 166.475671 -23.76 
L 167.621291 -23.76 
L 168.766911 -23.76 
L 169.912532 -23.76 
L 171.058152 -23.76 
L 172.203772 -23.76 
L 173.349393 -23.76 
L 174.495013 -23.76 
L 175.640633 -23.76 
L 176.786254 -23.76 
L 177.931874 -23.76 
L 179.077494 -23.76 
L 180.223115 -23.76 
L 181.368735 -23.76 
L 182.514355 -23.76 
L 183.659976 -23.76 
L 184.805596 -23.76 
L 185.951216 -23.76 
L 187.096837 -23.76 
L 188.242457 -23.76 
L 189.388078 -23.76 
L 190.533698 -23.76 
L 191.679318 -23.76 
L 192.824939 -23.76 
L 193.970559 -23.76 
L 195.116179 -23.76 
L 196.2618 -23.76 
L 197.40742 -23.76 
L 198.55304 -23.76 
L 199.698661 -23.76 
L 200.844281 -23.76 
L 201.989901 -23.76 
L 203.135522 -23.76 
L 204.281142 -23.76 
L 205.426762 -23.76 
L 206.572383 -23.76 
L 207.718003 -23.76 
L 208.863623 -23.76 
L 210.009244 -23.76 
L 211.154864 -23.76 
L 212.300484 -23.76 
L 213.446105 -23.76 
L 214.591725 -23.76 
L 215.737345 -23.76 
L 216.882966 -23.76 
L 218.028586 -23.76 
L 219.174206 -23.76 
L 220.319827 -23.76 
L 221.465447 -23.76 
L 222.611067 -23.76 
L 223.756688 -23.76 
L 224.902308 -23.76 
L 226.047928 -23.76 
L 227.193549 -23.76 
L 228.339169 -23.76 
L 229.48479 -23.76 
L 230.63041 -23.76 
L 231.77603 -23.76 
L 232.921651 -23.76 
L 234.067271 -23.76 
L 235.212891 -23.76 
L 236.358512 -23.76 
L 237.504132 -23.76 
L 238.649752 -23.76 
L 239.795373 -23.76 
L 240.940993 -23.76 
L 242.086613 -23.76 
L 243.232234 -23.76 
L 244.377854 -23.76 
L 245.523474 -23.76 
L 246.669095 -23.76 
L 247.814715 -23.76 
L 248.960335 -23.76 
L 250.105956 -23.76 
L 251.251576 -23.76 
L 252.397196 -23.76 
L 253.542817 -23.76 
L 254.688437 -23.76 
L 255.834057 -23.76 
L 256.979678 -23.76 
L 258.125298 -23.76 
L 259.270918 -23.76 
L 260.416539 -23.76 
L 261.562159 -23.76 
L 262.707779 -23.76 
L 263.8534 -23.76 
L 264.99902 -23.76 
L 266.14464 -23.76 
L 267.290261 -23.76 
L 268.435881 -23.76 
L 269.581502 -23.76 
L 270.727122 -23.76 
L 271.872742 -23.76 
L 273.018363 -23.76 
L 274.163983 -23.76 
L 275.309603 -23.76 
L 276.455224 -23.76 
L 277.600844 -23.76 
L 278.746464 -23.76 
L 279.892085 -23.76 
L 279.892085 -23.782436 
L 279.892085 -23.782436 
L 278.746464 -23.950148 
L 277.600844 -24.67323 
L 276.455224 -26.26472 
L 275.309603 -27.755187 
L 274.163983 -27.661312 
L 273.018363 -26.461938 
L 271.872742 -25.536366 
L 270.727122 -25.093395 
L 269.581502 -24.801222 
L 268.435881 -24.546381 
L 267.290261 -24.332261 
L 266.14464 -24.161155 
L 264.99902 -24.061081 
L 263.8534 -24.047594 
L 262.707779 -24.071292 
L 261.562159 -24.078365 
L 260.416539 -24.069224 
L 259.270918 -24.05759 
L 258.125298 -24.032046 
L 256.979678 -23.997937 
L 255.834057 -23.982941 
L 254.688437 -23.998279 
L 253.542817 -24.037475 
L 252.397196 -24.082637 
L 251.251576 -24.112835 
L 250.105956 -24.113112 
L 248.960335 -24.079328 
L 247.814715 -24.039397 
L 246.669095 -24.027231 
L 245.523474 -24.023299 
L 244.377854 -23.988485 
L 243.232234 -23.939411 
L 242.086613 -23.914043 
L 240.940993 -23.908975 
L 239.795373 -23.905208 
L 238.649752 -23.914559 
L 237.504132 -23.962725 
L 236.358512 -24.042113 
L 235.212891 -24.095345 
L 234.067271 -24.082652 
L 232.921651 -24.052261 
L 231.77603 -24.066275 
L 230.63041 -24.125693 
L 229.48479 -24.217011 
L 228.339169 -24.308426 
L 227.193549 -24.317896 
L 226.047928 -24.220608 
L 224.902308 -24.099412 
L 223.756688 -24.031612 
L 222.611067 -24.019499 
L 221.465447 -24.028866 
L 220.319827 -24.02589 
L 219.174206 -24.004831 
L 218.028586 -23.991121 
L 216.882966 -23.991634 
L 215.737345 -23.990772 
L 214.591725 -23.984576 
L 213.446105 -23.983207 
L 212.300484 -23.99053 
L 211.154864 -24.003712 
L 210.009244 -24.011028 
L 208.863623 -23.994392 
L 207.718003 -23.976985 
L 206.572383 -23.990154 
L 205.426762 -24.0087 
L 204.281142 -24.007377 
L 203.135522 -24.002739 
L 201.989901 -24.014282 
L 200.844281 -24.048187 
L 199.698661 -24.106533 
L 198.55304 -24.18655 
L 197.40742 -24.266495 
L 196.2618 -24.323455 
L 195.116179 -24.359009 
L 193.970559 -24.367681 
L 192.824939 -24.341673 
L 191.679318 -24.29019 
L 190.533698 -24.217766 
L 189.388078 -24.146948 
L 188.242457 -24.114074 
L 187.096837 -24.122585 
L 185.951216 -24.13947 
L 184.805596 -24.143507 
L 183.659976 -24.166967 
L 182.514355 -24.243627 
L 181.368735 -24.357095 
L 180.223115 -24.474177 
L 179.077494 -24.578303 
L 177.931874 -24.656939 
L 176.786254 -24.69269 
L 175.640633 -24.675047 
L 174.495013 -24.612874 
L 173.349393 -24.51893 
L 172.203772 -24.410575 
L 171.058152 -24.343752 
L 169.912532 -24.35706 
L 168.766911 -24.430153 
L 167.621291 -24.52342 
L 166.475671 -24.590763 
L 165.33005 -24.59834 
L 164.18443 -24.560734 
L 163.03881 -24.51198 
L 161.893189 -24.481679 
L 160.747569 -24.49403 
L 159.601949 -24.540374 
L 158.456328 -24.59874 
L 157.310708 -24.682577 
L 156.165088 -24.811302 
L 155.019467 -24.926766 
L 153.873847 -24.969913 
L 152.728227 -25.002279 
L 151.582606 -25.087701 
L 150.436986 -25.1776 
L 149.291366 -25.213212 
L 148.145745 -25.234129 
L 147.000125 -25.344421 
L 145.854504 -25.572973 
L 144.708884 -25.801164 
L 143.563264 -26.000052 
L 142.417643 -26.422629 
L 141.272023 -27.249688 
L 140.126403 -28.10905 
L 138.980782 -28.389093 
L 137.835162 -28.131143 
L 136.689542 -27.935026 
L 135.543921 -28.102858 
L 134.398301 -28.536537 
L 133.252681 -29.143169 
L 132.10706 -29.889479 
L 130.96144 -30.7407 
L 129.81582 -31.825981 
L 128.670199 -33.356224 
L 127.524579 -35.354004 
L 126.378959 -37.752212 
L 125.233338 -40.562796 
L 124.087718 -43.695215 
L 122.942098 -47.029053 
L 121.796477 -50.842914 
L 120.650857 -55.636519 
L 119.505237 -61.615815 
L 118.359616 -68.76651 
L 117.213996 -77.11205 
L 116.068376 -86.538425 
L 114.922755 -96.517661 
L 113.777135 -106.622026 
L 112.631515 -116.972086 
L 111.485894 -127.620658 
L 110.340274 -138.589703 
L 109.194654 -149.714107 
L 108.049033 -159.868792 
L 106.903413 -168.097049 
L 105.757792 -174.683449 
L 104.612172 -179.686038 
L 103.466552 -182.16 
L 102.320931 -181.416141 
L 101.175311 -177.895172 
L 100.029691 -172.756351 
L 98.88407 -166.653822 
L 97.73845 -159.175588 
L 96.59283 -149.744049 
L 95.447209 -138.576046 
L 94.301589 -126.925231 
L 93.155969 -116.453028 
L 92.010348 -107.745047 
L 90.864728 -100.322639 
L 89.719108 -93.8102 
L 88.573487 -87.85592 
L 87.427867 -81.974971 
L 86.282247 -76.008995 
L 85.136626 -70.23707 
L 83.991006 -65.245019 
L 82.845386 -61.497825 
L 81.699765 -58.675978 
L 80.554145 -55.905387 
L 79.408525 -52.706356 
L 78.262904 -49.408511 
L 77.117284 -46.599168 
L 75.971664 -44.371256 
L 74.826043 -42.372517 
L 73.680423 -40.254615 
L 72.534803 -37.897728 
L 71.389182 -35.492383 
L 70.243562 -33.387306 
L 69.097942 -31.664906 
L 67.952321 -30.111522 
L 66.806701 -28.681361 
L 65.66108 -27.490637 
L 64.51546 -26.559322 
L 63.36984 -25.862288 
L 62.224219 -25.324333 
L 61.078599 -24.853842 
L 59.932979 -24.449495 
L 58.787358 -24.151655 
L 57.641738 -23.968161 
L 56.496118 -23.865592 
L 55.350497 -23.805977 
L 54.204877 -23.774442 
L 53.059257 -23.762886 
L 51.913636 -23.760344 
z
" style="stroke: #d62728"/>
    </defs>
    <g clip-path="url(#p58ab626e44)">
     <use xlink:href="#m775ce43de1" x="0" y="216" style="fill: #d62728; fill-opacity: 0.25; stroke: #d62728"/>
    </g>
   </g>
   <g id="FillBetweenPolyCollection_2">
    <defs>
     <path id="m26992ad710" d="M 58.895709 -23.76003 
L 58.895709 -23.76 
L 60.004767 -23.76 
L 61.113825 -23.76 
L 62.222884 -23.76 
L 63.331942 -23.76 
L 64.441 -23.76 
L 65.550058 -23.76 
L 66.659116 -23.76 
L 67.768175 -23.76 
L 68.877233 -23.76 
L 69.986291 -23.76 
L 71.095349 -23.76 
L 72.204407 -23.76 
L 73.313466 -23.76 
L 74.422524 -23.76 
L 75.531582 -23.76 
L 76.64064 -23.76 
L 77.749698 -23.76 
L 78.858757 -23.76 
L 79.967815 -23.76 
L 81.076873 -23.76 
L 82.185931 -23.76 
L 83.29499 -23.76 
L 84.404048 -23.76 
L 85.513106 -23.76 
L 86.622164 -23.76 
L 87.731222 -23.76 
L 88.840281 -23.76 
L 89.949339 -23.76 
L 91.058397 -23.76 
L 92.167455 -23.76 
L 93.276513 -23.76 
L 94.385572 -23.76 
L 95.49463 -23.76 
L 96.603688 -23.76 
L 97.712746 -23.76 
L 98.821804 -23.76 
L 99.930863 -23.76 
L 101.039921 -23.76 
L 102.148979 -23.76 
L 103.258037 -23.76 
L 104.367095 -23.76 
L 105.476154 -23.76 
L 106.585212 -23.76 
L 107.69427 -23.76 
L 108.803328 -23.76 
L 109.912386 -23.76 
L 111.021445 -23.76 
L 112.130503 -23.76 
L 113.239561 -23.76 
L 114.348619 -23.76 
L 115.457677 -23.76 
L 116.566736 -23.76 
L 117.675794 -23.76 
L 118.784852 -23.76 
L 119.89391 -23.76 
L 121.002969 -23.76 
L 122.112027 -23.76 
L 123.221085 -23.76 
L 124.330143 -23.76 
L 125.439201 -23.76 
L 126.54826 -23.76 
L 127.657318 -23.76 
L 128.766376 -23.76 
L 129.875434 -23.76 
L 130.984492 -23.76 
L 132.093551 -23.76 
L 133.202609 -23.76 
L 134.311667 -23.76 
L 135.420725 -23.76 
L 136.529783 -23.76 
L 137.638842 -23.76 
L 138.7479 -23.76 
L 139.856958 -23.76 
L 140.966016 -23.76 
L 142.075074 -23.76 
L 143.184133 -23.76 
L 144.293191 -23.76 
L 145.402249 -23.76 
L 146.511307 -23.76 
L 147.620365 -23.76 
L 148.729424 -23.76 
L 149.838482 -23.76 
L 150.94754 -23.76 
L 152.056598 -23.76 
L 153.165656 -23.76 
L 154.274715 -23.76 
L 155.383773 -23.76 
L 156.492831 -23.76 
L 157.601889 -23.76 
L 158.710948 -23.76 
L 159.820006 -23.76 
L 160.929064 -23.76 
L 162.038122 -23.76 
L 163.14718 -23.76 
L 164.256239 -23.76 
L 165.365297 -23.76 
L 166.474355 -23.76 
L 167.583413 -23.76 
L 168.692471 -23.76 
L 169.80153 -23.76 
L 170.910588 -23.76 
L 172.019646 -23.76 
L 173.128704 -23.76 
L 174.237762 -23.76 
L 175.346821 -23.76 
L 176.455879 -23.76 
L 177.564937 -23.76 
L 178.673995 -23.76 
L 179.783053 -23.76 
L 180.892112 -23.76 
L 182.00117 -23.76 
L 183.110228 -23.76 
L 184.219286 -23.76 
L 185.328344 -23.76 
L 186.437403 -23.76 
L 187.546461 -23.76 
L 188.655519 -23.76 
L 189.764577 -23.76 
L 190.873635 -23.76 
L 191.982694 -23.76 
L 193.091752 -23.76 
L 194.20081 -23.76 
L 195.309868 -23.76 
L 196.418927 -23.76 
L 197.527985 -23.76 
L 198.637043 -23.76 
L 199.746101 -23.76 
L 200.855159 -23.76 
L 201.964218 -23.76 
L 203.073276 -23.76 
L 204.182334 -23.76 
L 205.291392 -23.76 
L 206.40045 -23.76 
L 207.509509 -23.76 
L 208.618567 -23.76 
L 209.727625 -23.76 
L 210.836683 -23.76 
L 211.945741 -23.76 
L 213.0548 -23.76 
L 214.163858 -23.76 
L 215.272916 -23.76 
L 216.381974 -23.76 
L 217.491032 -23.76 
L 218.600091 -23.76 
L 219.709149 -23.76 
L 220.818207 -23.76 
L 221.927265 -23.76 
L 223.036323 -23.76 
L 224.145382 -23.76 
L 225.25444 -23.76 
L 226.363498 -23.76 
L 227.472556 -23.76 
L 228.581614 -23.76 
L 229.690673 -23.76 
L 230.799731 -23.76 
L 231.908789 -23.76 
L 233.017847 -23.76 
L 234.126906 -23.76 
L 235.235964 -23.76 
L 236.345022 -23.76 
L 237.45408 -23.76 
L 238.563138 -23.76 
L 239.672197 -23.76 
L 240.781255 -23.76 
L 241.890313 -23.76 
L 242.999371 -23.76 
L 244.108429 -23.76 
L 245.217488 -23.76 
L 246.326546 -23.76 
L 247.435604 -23.76 
L 248.544662 -23.76 
L 249.65372 -23.76 
L 250.762779 -23.76 
L 251.871837 -23.76 
L 252.980895 -23.76 
L 254.089953 -23.76 
L 255.199011 -23.76 
L 256.30807 -23.76 
L 257.417128 -23.76 
L 258.526186 -23.76 
L 259.635244 -23.76 
L 260.744302 -23.76 
L 261.853361 -23.76 
L 262.962419 -23.76 
L 264.071477 -23.76 
L 265.180535 -23.76 
L 266.289593 -23.76 
L 267.398652 -23.76 
L 268.50771 -23.76 
L 269.616768 -23.76 
L 270.725826 -23.76 
L 271.834885 -23.76 
L 272.943943 -23.76 
L 274.053001 -23.76 
L 275.162059 -23.76 
L 276.271117 -23.76 
L 277.380176 -23.76 
L 278.489234 -23.76 
L 279.598292 -23.76 
L 279.598292 -23.764521 
L 279.598292 -23.764521 
L 278.489234 -23.79674 
L 277.380176 -23.922236 
L 276.271117 -24.161429 
L 275.162059 -24.374018 
L 274.053001 -24.516287 
L 272.943943 -24.781151 
L 271.834885 -25.179856 
L 270.725826 -25.465108 
L 269.616768 -25.462617 
L 268.50771 -25.231484 
L 267.398652 -24.942351 
L 266.289593 -24.705032 
L 265.180535 -24.547287 
L 264.071477 -24.458506 
L 262.962419 -24.409538 
L 261.853361 -24.356801 
L 260.744302 -24.286176 
L 259.635244 -24.222505 
L 258.526186 -24.174638 
L 257.417128 -24.133149 
L 256.30807 -24.111234 
L 255.199011 -24.136829 
L 254.089953 -24.21509 
L 252.980895 -24.324749 
L 251.871837 -24.422209 
L 250.762779 -24.459205 
L 249.65372 -24.425819 
L 248.544662 -24.348919 
L 247.435604 -24.251598 
L 246.326546 -24.149385 
L 245.217488 -24.071998 
L 244.108429 -24.032155 
L 242.999371 -24.010642 
L 241.890313 -23.993363 
L 240.781255 -23.982175 
L 239.672197 -23.983406 
L 238.563138 -23.997342 
L 237.45408 -24.016142 
L 236.345022 -24.026546 
L 235.235964 -24.029781 
L 234.126906 -24.051904 
L 233.017847 -24.105309 
L 231.908789 -24.162618 
L 230.799731 -24.193338 
L 229.690673 -24.200172 
L 228.581614 -24.206786 
L 227.472556 -24.229378 
L 226.363498 -24.267346 
L 225.25444 -24.313901 
L 224.145382 -24.358626 
L 223.036323 -24.375793 
L 221.927265 -24.345118 
L 220.818207 -24.286803 
L 219.709149 -24.239313 
L 218.600091 -24.217514 
L 217.491032 -24.210509 
L 216.381974 -24.200401 
L 215.272916 -24.173324 
L 214.163858 -24.135363 
L 213.0548 -24.111 
L 211.945741 -24.095533 
L 210.836683 -24.077625 
L 209.727625 -24.071637 
L 208.618567 -24.09242 
L 207.509509 -24.135156 
L 206.40045 -24.172617 
L 205.291392 -24.182312 
L 204.182334 -24.171027 
L 203.073276 -24.159384 
L 201.964218 -24.163113 
L 200.855159 -24.190182 
L 199.746101 -24.210355 
L 198.637043 -24.185199 
L 197.527985 -24.139237 
L 196.418927 -24.125166 
L 195.309868 -24.15456 
L 194.20081 -24.198787 
L 193.091752 -24.228193 
L 191.982694 -24.235848 
L 190.873635 -24.241525 
L 189.764577 -24.254925 
L 188.655519 -24.280444 
L 187.546461 -24.332155 
L 186.437403 -24.403074 
L 185.328344 -24.47321 
L 184.219286 -24.535193 
L 183.110228 -24.579335 
L 182.00117 -24.600256 
L 180.892112 -24.632117 
L 179.783053 -24.706305 
L 178.673995 -24.810329 
L 177.564937 -24.907344 
L 176.455879 -24.976643 
L 175.346821 -25.047099 
L 174.237762 -25.146133 
L 173.128704 -25.258174 
L 172.019646 -25.363439 
L 170.910588 -25.464006 
L 169.80153 -25.559902 
L 168.692471 -25.639761 
L 167.583413 -25.746405 
L 166.474355 -25.933169 
L 165.365297 -26.142986 
L 164.256239 -26.275685 
L 163.14718 -26.330078 
L 162.038122 -26.391744 
L 160.929064 -26.537322 
L 159.820006 -26.725517 
L 158.710948 -26.86188 
L 157.601889 -26.970315 
L 156.492831 -27.155043 
L 155.383773 -27.490372 
L 154.274715 -27.951987 
L 153.165656 -28.433876 
L 152.056598 -28.919066 
L 150.94754 -29.495699 
L 149.838482 -30.118394 
L 148.729424 -30.657231 
L 147.620365 -31.137855 
L 146.511307 -31.648753 
L 145.402249 -32.296399 
L 144.293191 -33.275786 
L 143.184133 -34.607728 
L 142.075074 -36.041657 
L 140.966016 -37.404955 
L 139.856958 -38.829848 
L 138.7479 -40.593408 
L 137.638842 -42.788242 
L 136.529783 -45.323433 
L 135.420725 -48.254585 
L 134.311667 -51.562051 
L 133.202609 -54.963896 
L 132.093551 -58.498843 
L 130.984492 -62.556765 
L 129.875434 -67.275806 
L 128.766376 -72.501208 
L 127.657318 -77.910995 
L 126.54826 -83.280064 
L 125.439201 -89.032667 
L 124.330143 -95.663224 
L 123.221085 -103.175389 
L 122.112027 -111.369388 
L 121.002969 -119.962431 
L 119.89391 -128.618203 
L 118.784852 -136.951655 
L 117.675794 -144.610513 
L 116.566736 -151.32284 
L 115.457677 -157.336536 
L 114.348619 -163.159621 
L 113.239561 -168.374999 
L 112.130503 -171.95836 
L 111.021445 -173.549391 
L 109.912386 -173.284612 
L 108.803328 -171.21079 
L 107.69427 -167.336892 
L 106.585212 -161.741608 
L 105.476154 -154.77035 
L 104.367095 -146.793712 
L 103.258037 -137.609126 
L 102.148979 -127.260941 
L 101.039921 -116.7384 
L 99.930863 -107.12163 
L 98.821804 -98.450282 
L 97.712746 -89.950041 
L 96.603688 -81.28406 
L 95.49463 -72.988015 
L 94.385572 -65.682171 
L 93.276513 -59.215039 
L 92.167455 -53.183046 
L 91.058397 -47.771644 
L 89.949339 -43.28398 
L 88.840281 -39.647738 
L 87.731222 -36.728442 
L 86.622164 -34.445989 
L 85.513106 -32.646241 
L 84.404048 -31.218071 
L 83.29499 -30.111451 
L 82.185931 -29.164246 
L 81.076873 -28.246818 
L 79.967815 -27.40509 
L 78.858757 -26.697084 
L 77.749698 -26.138897 
L 76.64064 -25.699245 
L 75.531582 -25.310962 
L 74.422524 -24.951896 
L 73.313466 -24.632412 
L 72.204407 -24.361344 
L 71.095349 -24.15494 
L 69.986291 -24.021329 
L 68.877233 -23.940083 
L 67.768175 -23.874999 
L 66.659116 -23.819126 
L 65.550058 -23.784765 
L 64.441 -23.770546 
L 63.331942 -23.76583 
L 62.222884 -23.763169 
L 61.113825 -23.761165 
L 60.004767 -23.76025 
L 58.895709 -23.76003 
z
" style="stroke: #2ca02c"/>
    </defs>
    <g clip-path="url(#p58ab626e44)">
     <use xlink:href="#m26992ad710" x="0" y="216" style="fill: #2ca02c; fill-opacity: 0.25; stroke: #2ca02c"/>
    </g>
   </g>
   <g id="FillBetweenPolyCollection_3">
    <defs>
     <path id="m1f89445915" d="M 67.580137 -23.760089 
L 67.580137 -23.76 
L 68.64851 -23.76 
L 69.716883 -23.76 
L 70.785256 -23.76 
L 71.853629 -23.76 
L 72.922002 -23.76 
L 73.990375 -23.76 
L 75.058748 -23.76 
L 76.127121 -23.76 
L 77.195494 -23.76 
L 78.263867 -23.76 
L 79.33224 -23.76 
L 80.400613 -23.76 
L 81.468986 -23.76 
L 82.537359 -23.76 
L 83.605732 -23.76 
L 84.674105 -23.76 
L 85.742478 -23.76 
L 86.810851 -23.76 
L 87.879224 -23.76 
L 88.947597 -23.76 
L 90.01597 -23.76 
L 91.084343 -23.76 
L 92.152716 -23.76 
L 93.221089 -23.76 
L 94.289462 -23.76 
L 95.357835 -23.76 
L 96.426208 -23.76 
L 97.494581 -23.76 
L 98.562954 -23.76 
L 99.631327 -23.76 
L 100.6997 -23.76 
L 101.768073 -23.76 
L 102.836446 -23.76 
L 103.904819 -23.76 
L 104.973192 -23.76 
L 106.041565 -23.76 
L 107.109938 -23.76 
L 108.178311 -23.76 
L 109.246684 -23.76 
L 110.315057 -23.76 
L 111.38343 -23.76 
L 112.451803 -23.76 
L 113.520176 -23.76 
L 114.588549 -23.76 
L 115.656922 -23.76 
L 116.725295 -23.76 
L 117.793668 -23.76 
L 118.862041 -23.76 
L 119.930414 -23.76 
L 120.998787 -23.76 
L 122.06716 -23.76 
L 123.135533 -23.76 
L 124.203906 -23.76 
L 125.272279 -23.76 
L 126.340652 -23.76 
L 127.409025 -23.76 
L 128.477398 -23.76 
L 129.545771 -23.76 
L 130.614144 -23.76 
L 131.682517 -23.76 
L 132.75089 -23.76 
L 133.819263 -23.76 
L 134.887636 -23.76 
L 135.956009 -23.76 
L 137.024382 -23.76 
L 138.092755 -23.76 
L 139.161128 -23.76 
L 140.229501 -23.76 
L 141.297874 -23.76 
L 142.366247 -23.76 
L 143.43462 -23.76 
L 144.502993 -23.76 
L 145.571366 -23.76 
L 146.639739 -23.76 
L 147.708112 -23.76 
L 148.776485 -23.76 
L 149.844858 -23.76 
L 150.913231 -23.76 
L 151.981604 -23.76 
L 153.049977 -23.76 
L 154.11835 -23.76 
L 155.186723 -23.76 
L 156.255096 -23.76 
L 157.323469 -23.76 
L 158.391842 -23.76 
L 159.460215 -23.76 
L 160.528588 -23.76 
L 161.596961 -23.76 
L 162.665334 -23.76 
L 163.733707 -23.76 
L 164.80208 -23.76 
L 165.870453 -23.76 
L 166.938826 -23.76 
L 168.007199 -23.76 
L 169.075572 -23.76 
L 170.143945 -23.76 
L 171.212318 -23.76 
L 172.280691 -23.76 
L 173.349064 -23.76 
L 174.417437 -23.76 
L 175.48581 -23.76 
L 176.554183 -23.76 
L 177.622556 -23.76 
L 178.690929 -23.76 
L 179.759302 -23.76 
L 180.827675 -23.76 
L 181.896048 -23.76 
L 182.964421 -23.76 
L 184.032794 -23.76 
L 185.101167 -23.76 
L 186.16954 -23.76 
L 187.237913 -23.76 
L 188.306286 -23.76 
L 189.374659 -23.76 
L 190.443032 -23.76 
L 191.511405 -23.76 
L 192.579778 -23.76 
L 193.648151 -23.76 
L 194.716524 -23.76 
L 195.784897 -23.76 
L 196.85327 -23.76 
L 197.921643 -23.76 
L 198.990016 -23.76 
L 200.058389 -23.76 
L 201.126762 -23.76 
L 202.195135 -23.76 
L 203.263508 -23.76 
L 204.331881 -23.76 
L 205.400254 -23.76 
L 206.468627 -23.76 
L 207.537 -23.76 
L 208.605373 -23.76 
L 209.673746 -23.76 
L 210.742119 -23.76 
L 211.810492 -23.76 
L 212.878865 -23.76 
L 213.947238 -23.76 
L 215.015611 -23.76 
L 216.083984 -23.76 
L 217.152357 -23.76 
L 218.22073 -23.76 
L 219.289103 -23.76 
L 220.357476 -23.76 
L 221.425849 -23.76 
L 222.494222 -23.76 
L 223.562595 -23.76 
L 224.630968 -23.76 
L 225.699341 -23.76 
L 226.767714 -23.76 
L 227.836087 -23.76 
L 228.90446 -23.76 
L 229.972833 -23.76 
L 231.041206 -23.76 
L 232.109579 -23.76 
L 233.177952 -23.76 
L 234.246325 -23.76 
L 235.314698 -23.76 
L 236.383071 -23.76 
L 237.451444 -23.76 
L 238.519817 -23.76 
L 239.58819 -23.76 
L 240.656563 -23.76 
L 241.724936 -23.76 
L 242.793309 -23.76 
L 243.861682 -23.76 
L 244.930055 -23.76 
L 245.998428 -23.76 
L 247.066801 -23.76 
L 248.135174 -23.76 
L 249.203547 -23.76 
L 250.27192 -23.76 
L 251.340293 -23.76 
L 252.408666 -23.76 
L 253.477039 -23.76 
L 254.545412 -23.76 
L 255.613785 -23.76 
L 256.682158 -23.76 
L 257.750531 -23.76 
L 258.818904 -23.76 
L 259.887277 -23.76 
L 260.95565 -23.76 
L 262.024023 -23.76 
L 263.092396 -23.76 
L 264.160769 -23.76 
L 265.229142 -23.76 
L 266.297515 -23.76 
L 267.365888 -23.76 
L 268.434261 -23.76 
L 269.502634 -23.76 
L 270.571007 -23.76 
L 271.63938 -23.76 
L 272.707753 -23.76 
L 273.776126 -23.76 
L 274.844499 -23.76 
L 275.912872 -23.76 
L 276.981245 -23.76 
L 278.049618 -23.76 
L 279.117991 -23.76 
L 280.186364 -23.76 
L 280.186364 -23.766381 
L 280.186364 -23.766381 
L 279.117991 -23.802644 
L 278.049618 -23.952293 
L 276.981245 -24.364798 
L 275.912872 -25.147192 
L 274.844499 -26.192637 
L 273.776126 -27.142136 
L 272.707753 -27.573435 
L 271.63938 -27.334971 
L 270.571007 -26.67569 
L 269.502634 -25.967475 
L 268.434261 -25.40561 
L 267.365888 -25.009378 
L 266.297515 -24.750694 
L 265.229142 -24.605466 
L 264.160769 -24.54116 
L 263.092396 -24.510149 
L 262.024023 -24.474557 
L 260.95565 -24.431852 
L 259.887277 -24.401152 
L 258.818904 -24.39187 
L 257.750531 -24.396644 
L 256.682158 -24.403246 
L 255.613785 -24.406834 
L 254.545412 -24.415065 
L 253.477039 -24.431207 
L 252.408666 -24.441939 
L 251.340293 -24.441972 
L 250.27192 -24.451469 
L 249.203547 -24.487577 
L 248.135174 -24.543869 
L 247.066801 -24.608091 
L 245.998428 -24.661132 
L 244.930055 -24.670561 
L 243.861682 -24.627395 
L 242.793309 -24.563474 
L 241.724936 -24.509508 
L 240.656563 -24.466645 
L 239.58819 -24.430855 
L 238.519817 -24.41015 
L 237.451444 -24.403034 
L 236.383071 -24.389905 
L 235.314698 -24.35884 
L 234.246325 -24.322645 
L 233.177952 -24.300502 
L 232.109579 -24.299491 
L 231.041206 -24.322154 
L 229.972833 -24.374792 
L 228.90446 -24.463866 
L 227.836087 -24.581354 
L 226.767714 -24.692855 
L 225.699341 -24.771038 
L 224.630968 -24.835585 
L 223.562595 -24.911165 
L 222.494222 -24.972035 
L 221.425849 -24.972406 
L 220.357476 -24.900455 
L 219.289103 -24.791781 
L 218.22073 -24.709064 
L 217.152357 -24.696709 
L 216.083984 -24.747033 
L 215.015611 -24.814997 
L 213.947238 -24.858332 
L 212.878865 -24.860701 
L 211.810492 -24.837869 
L 210.742119 -24.820762 
L 209.673746 -24.806969 
L 208.605373 -24.763052 
L 207.537 -24.689741 
L 206.468627 -24.631021 
L 205.400254 -24.615254 
L 204.331881 -24.630398 
L 203.263508 -24.657591 
L 202.195135 -24.699006 
L 201.126762 -24.761131 
L 200.058389 -24.827636 
L 198.990016 -24.876691 
L 197.921643 -24.915428 
L 196.85327 -24.97003 
L 195.784897 -25.046733 
L 194.716524 -25.128561 
L 193.648151 -25.209731 
L 192.579778 -25.304189 
L 191.511405 -25.413976 
L 190.443032 -25.508535 
L 189.374659 -25.563279 
L 188.306286 -25.615734 
L 187.237913 -25.742265 
L 186.16954 -25.976114 
L 185.101167 -26.279979 
L 184.032794 -26.584346 
L 182.964421 -26.820765 
L 181.896048 -26.939297 
L 180.827675 -26.945979 
L 179.759302 -26.927551 
L 178.690929 -26.987098 
L 177.622556 -27.158975 
L 176.554183 -27.40738 
L 175.48581 -27.666605 
L 174.417437 -27.889985 
L 173.349064 -28.102348 
L 172.280691 -28.388696 
L 171.212318 -28.788582 
L 170.143945 -29.221893 
L 169.075572 -29.594906 
L 168.007199 -29.93558 
L 166.938826 -30.329746 
L 165.870453 -30.795455 
L 164.80208 -31.308621 
L 163.733707 -31.870638 
L 162.665334 -32.506378 
L 161.596961 -33.246805 
L 160.528588 -34.068021 
L 159.460215 -34.876979 
L 158.391842 -35.663343 
L 157.323469 -36.547987 
L 156.255096 -37.622416 
L 155.186723 -38.856137 
L 154.11835 -40.141685 
L 153.049977 -41.423022 
L 151.981604 -42.846057 
L 150.913231 -44.666364 
L 149.844858 -46.97204 
L 148.776485 -49.606218 
L 147.708112 -52.292151 
L 146.639739 -54.864812 
L 145.571366 -57.494883 
L 144.502993 -60.511084 
L 143.43462 -64.00619 
L 142.366247 -67.926966 
L 141.297874 -72.389764 
L 140.229501 -77.592584 
L 139.161128 -83.615904 
L 138.092755 -90.392113 
L 137.024382 -97.680945 
L 135.956009 -105.156084 
L 134.887636 -112.666942 
L 133.819263 -120.405739 
L 132.75089 -128.784231 
L 131.682517 -138.000928 
L 130.614144 -147.599919 
L 129.545771 -156.60553 
L 128.477398 -164.206657 
L 127.409025 -170.131445 
L 126.340652 -174.272678 
L 125.272279 -176.360619 
L 124.203906 -176.24328 
L 123.135533 -173.986355 
L 122.06716 -169.453771 
L 120.998787 -162.488509 
L 119.930414 -153.835705 
L 118.862041 -144.89197 
L 117.793668 -136.319215 
L 116.725295 -127.950402 
L 115.656922 -119.734328 
L 114.588549 -111.700359 
L 113.520176 -103.463832 
L 112.451803 -94.6272 
L 111.38343 -85.486768 
L 110.315057 -76.834163 
L 109.246684 -69.181042 
L 108.178311 -62.61972 
L 107.109938 -57.147659 
L 106.041565 -52.629095 
L 104.973192 -48.79046 
L 103.904819 -45.43416 
L 102.836446 -42.340312 
L 101.768073 -39.292227 
L 100.6997 -36.362218 
L 99.631327 -33.835729 
L 98.562954 -31.898117 
L 97.494581 -30.512193 
L 96.426208 -29.563205 
L 95.357835 -28.969701 
L 94.289462 -28.566486 
L 93.221089 -28.123574 
L 92.152716 -27.593535 
L 91.084343 -27.124374 
L 90.01597 -26.822552 
L 88.947597 -26.655358 
L 87.879224 -26.525259 
L 86.810851 -26.330325 
L 85.742478 -26.006816 
L 84.674105 -25.58461 
L 83.605732 -25.168526 
L 82.537359 -24.848233 
L 81.468986 -24.645812 
L 80.400613 -24.527589 
L 79.33224 -24.452768 
L 78.263867 -24.400445 
L 77.195494 -24.339238 
L 76.127121 -24.226961 
L 75.058748 -24.071067 
L 73.990375 -23.930089 
L 72.922002 -23.840788 
L 71.853629 -23.794654 
L 70.785256 -23.77262 
L 69.716883 -23.763493 
L 68.64851 -23.760678 
L 67.580137 -23.760089 
z
" style="stroke: #ff7f0e"/>
    </defs>
    <g clip-path="url(#p58ab626e44)">
     <use xlink:href="#m1f89445915" x="0" y="216" style="fill: #ff7f0e; fill-opacity: 0.25; stroke: #ff7f0e"/>
    </g>
   </g>
   <g id="FillBetweenPolyCollection_4">
    <defs>
     <path id="ma5cdd291d4" d="M 90.376301 -23.760049 
L 90.376301 -23.76 
L 91.325876 -23.76 
L 92.275452 -23.76 
L 93.225028 -23.76 
L 94.174603 -23.76 
L 95.124179 -23.76 
L 96.073755 -23.76 
L 97.02333 -23.76 
L 97.972906 -23.76 
L 98.922482 -23.76 
L 99.872058 -23.76 
L 100.821633 -23.76 
L 101.771209 -23.76 
L 102.720785 -23.76 
L 103.67036 -23.76 
L 104.619936 -23.76 
L 105.569512 -23.76 
L 106.519087 -23.76 
L 107.468663 -23.76 
L 108.418239 -23.76 
L 109.367814 -23.76 
L 110.31739 -23.76 
L 111.266966 -23.76 
L 112.216542 -23.76 
L 113.166117 -23.76 
L 114.115693 -23.76 
L 115.065269 -23.76 
L 116.014844 -23.76 
L 116.96442 -23.76 
L 117.913996 -23.76 
L 118.863571 -23.76 
L 119.813147 -23.76 
L 120.762723 -23.76 
L 121.712298 -23.76 
L 122.661874 -23.76 
L 123.61145 -23.76 
L 124.561026 -23.76 
L 125.510601 -23.76 
L 126.460177 -23.76 
L 127.409753 -23.76 
L 128.359328 -23.76 
L 129.308904 -23.76 
L 130.25848 -23.76 
L 131.208055 -23.76 
L 132.157631 -23.76 
L 133.107207 -23.76 
L 134.056782 -23.76 
L 135.006358 -23.76 
L 135.955934 -23.76 
L 136.905509 -23.76 
L 137.855085 -23.76 
L 138.804661 -23.76 
L 139.754237 -23.76 
L 140.703812 -23.76 
L 141.653388 -23.76 
L 142.602964 -23.76 
L 143.552539 -23.76 
L 144.502115 -23.76 
L 145.451691 -23.76 
L 146.401266 -23.76 
L 147.350842 -23.76 
L 148.300418 -23.76 
L 149.249993 -23.76 
L 150.199569 -23.76 
L 151.149145 -23.76 
L 152.098721 -23.76 
L 153.048296 -23.76 
L 153.997872 -23.76 
L 154.947448 -23.76 
L 155.897023 -23.76 
L 156.846599 -23.76 
L 157.796175 -23.76 
L 158.74575 -23.76 
L 159.695326 -23.76 
L 160.644902 -23.76 
L 161.594477 -23.76 
L 162.544053 -23.76 
L 163.493629 -23.76 
L 164.443204 -23.76 
L 165.39278 -23.76 
L 166.342356 -23.76 
L 167.291932 -23.76 
L 168.241507 -23.76 
L 169.191083 -23.76 
L 170.140659 -23.76 
L 171.090234 -23.76 
L 172.03981 -23.76 
L 172.989386 -23.76 
L 173.938961 -23.76 
L 174.888537 -23.76 
L 175.838113 -23.76 
L 176.787688 -23.76 
L 177.737264 -23.76 
L 178.68684 -23.76 
L 179.636416 -23.76 
L 180.585991 -23.76 
L 181.535567 -23.76 
L 182.485143 -23.76 
L 183.434718 -23.76 
L 184.384294 -23.76 
L 185.33387 -23.76 
L 186.283445 -23.76 
L 187.233021 -23.76 
L 188.182597 -23.76 
L 189.132172 -23.76 
L 190.081748 -23.76 
L 191.031324 -23.76 
L 191.9809 -23.76 
L 192.930475 -23.76 
L 193.880051 -23.76 
L 194.829627 -23.76 
L 195.779202 -23.76 
L 196.728778 -23.76 
L 197.678354 -23.76 
L 198.627929 -23.76 
L 199.577505 -23.76 
L 200.527081 -23.76 
L 201.476656 -23.76 
L 202.426232 -23.76 
L 203.375808 -23.76 
L 204.325383 -23.76 
L 205.274959 -23.76 
L 206.224535 -23.76 
L 207.174111 -23.76 
L 208.123686 -23.76 
L 209.073262 -23.76 
L 210.022838 -23.76 
L 210.972413 -23.76 
L 211.921989 -23.76 
L 212.871565 -23.76 
L 213.82114 -23.76 
L 214.770716 -23.76 
L 215.720292 -23.76 
L 216.669867 -23.76 
L 217.619443 -23.76 
L 218.569019 -23.76 
L 219.518595 -23.76 
L 220.46817 -23.76 
L 221.417746 -23.76 
L 222.367322 -23.76 
L 223.316897 -23.76 
L 224.266473 -23.76 
L 225.216049 -23.76 
L 226.165624 -23.76 
L 227.1152 -23.76 
L 228.064776 -23.76 
L 229.014351 -23.76 
L 229.963927 -23.76 
L 230.913503 -23.76 
L 231.863078 -23.76 
L 232.812654 -23.76 
L 233.76223 -23.76 
L 234.711806 -23.76 
L 235.661381 -23.76 
L 236.610957 -23.76 
L 237.560533 -23.76 
L 238.510108 -23.76 
L 239.459684 -23.76 
L 240.40926 -23.76 
L 241.358835 -23.76 
L 242.308411 -23.76 
L 243.257987 -23.76 
L 244.207562 -23.76 
L 245.157138 -23.76 
L 246.106714 -23.76 
L 247.05629 -23.76 
L 248.005865 -23.76 
L 248.955441 -23.76 
L 249.905017 -23.76 
L 250.854592 -23.76 
L 251.804168 -23.76 
L 252.753744 -23.76 
L 253.703319 -23.76 
L 254.652895 -23.76 
L 255.602471 -23.76 
L 256.552046 -23.76 
L 257.501622 -23.76 
L 258.451198 -23.76 
L 259.400774 -23.76 
L 260.350349 -23.76 
L 261.299925 -23.76 
L 262.249501 -23.76 
L 263.199076 -23.76 
L 264.148652 -23.76 
L 265.098228 -23.76 
L 266.047803 -23.76 
L 266.997379 -23.76 
L 267.946955 -23.76 
L 268.89653 -23.76 
L 269.846106 -23.76 
L 270.795682 -23.76 
L 271.745257 -23.76 
L 272.694833 -23.76 
L 273.644409 -23.76 
L 274.593985 -23.76 
L 275.54356 -23.76 
L 276.493136 -23.76 
L 277.442712 -23.76 
L 278.392287 -23.76 
L 279.341863 -23.76 
L 279.341863 -23.777036 
L 279.341863 -23.777036 
L 278.392287 -23.888491 
L 277.442712 -24.348173 
L 276.493136 -25.414428 
L 275.54356 -26.693281 
L 274.593985 -27.224133 
L 273.644409 -26.809081 
L 272.694833 -26.130648 
L 271.745257 -25.611176 
L 270.795682 -25.26682 
L 269.846106 -25.126974 
L 268.89653 -25.149612 
L 267.946955 -25.182925 
L 266.997379 -25.18561 
L 266.047803 -25.113641 
L 265.098228 -24.901961 
L 264.148652 -24.66046 
L 263.199076 -24.510563 
L 262.249501 -24.430976 
L 261.299925 -24.378799 
L 260.350349 -24.34025 
L 259.400774 -24.308035 
L 258.451198 -24.300715 
L 257.501622 -24.319726 
L 256.552046 -24.309431 
L 255.602471 -24.238116 
L 254.652895 -24.146809 
L 253.703319 -24.082658 
L 252.753744 -24.055502 
L 251.804168 -24.054899 
L 250.854592 -24.06704 
L 249.905017 -24.079288 
L 248.955441 -24.079928 
L 248.005865 -24.068866 
L 247.05629 -24.060432 
L 246.106714 -24.065883 
L 245.157138 -24.092888 
L 244.207562 -24.14102 
L 243.257987 -24.189798 
L 242.308411 -24.222496 
L 241.358835 -24.241903 
L 240.40926 -24.256266 
L 239.459684 -24.27437 
L 238.510108 -24.302238 
L 237.560533 -24.336514 
L 236.610957 -24.365417 
L 235.661381 -24.378486 
L 234.711806 -24.3729 
L 233.76223 -24.343412 
L 232.812654 -24.290769 
L 231.863078 -24.23174 
L 230.913503 -24.182765 
L 229.963927 -24.147828 
L 229.014351 -24.119698 
L 228.064776 -24.091347 
L 227.1152 -24.068809 
L 226.165624 -24.065067 
L 225.216049 -24.085994 
L 224.266473 -24.124038 
L 223.316897 -24.152043 
L 222.367322 -24.142746 
L 221.417746 -24.103082 
L 220.46817 -24.061008 
L 219.518595 -24.035716 
L 218.569019 -24.034025 
L 217.619443 -24.05222 
L 216.669867 -24.077213 
L 215.720292 -24.096237 
L 214.770716 -24.106064 
L 213.82114 -24.10817 
L 212.871565 -24.10677 
L 211.921989 -24.110074 
L 210.972413 -24.124296 
L 210.022838 -24.148184 
L 209.073262 -24.175212 
L 208.123686 -24.203335 
L 207.174111 -24.234624 
L 206.224535 -24.271729 
L 205.274959 -24.323135 
L 204.325383 -24.396173 
L 203.375808 -24.477169 
L 202.426232 -24.544104 
L 201.476656 -24.603691 
L 200.527081 -24.687332 
L 199.577505 -24.825814 
L 198.627929 -25.020595 
L 197.678354 -25.216927 
L 196.728778 -25.371342 
L 195.779202 -25.528886 
L 194.829627 -25.755151 
L 193.880051 -26.049262 
L 192.930475 -26.381567 
L 191.9809 -26.759915 
L 191.031324 -27.196987 
L 190.081748 -27.666589 
L 189.132172 -28.158362 
L 188.182597 -28.725927 
L 187.233021 -29.439088 
L 186.283445 -30.30992 
L 185.33387 -31.303239 
L 184.384294 -32.390331 
L 183.434718 -33.532854 
L 182.485143 -34.719543 
L 181.535567 -36.029348 
L 180.585991 -37.541861 
L 179.636416 -39.287438 
L 178.68684 -41.323938 
L 177.737264 -43.642761 
L 176.787688 -46.07397 
L 175.838113 -48.491371 
L 174.888537 -50.979527 
L 173.938961 -53.759659 
L 172.989386 -56.939073 
L 172.03981 -60.324194 
L 171.090234 -63.676357 
L 170.140659 -67.07599 
L 169.191083 -70.762108 
L 168.241507 -74.692733 
L 167.291932 -78.601925 
L 166.342356 -82.43906 
L 165.39278 -86.469527 
L 164.443204 -90.862926 
L 163.493629 -95.452801 
L 162.544053 -100.000783 
L 161.594477 -104.389593 
L 160.644902 -108.706072 
L 159.695326 -113.163356 
L 158.74575 -117.756236 
L 157.796175 -122.121812 
L 156.846599 -125.93156 
L 155.897023 -129.337921 
L 154.947448 -132.687217 
L 153.997872 -135.951298 
L 153.048296 -138.910442 
L 152.098721 -141.52375 
L 151.149145 -143.764537 
L 150.199569 -145.296139 
L 149.249993 -145.662532 
L 148.300418 -145.05344 
L 147.350842 -144.094374 
L 146.401266 -143.040332 
L 145.451691 -141.904567 
L 144.502115 -140.550848 
L 143.552539 -138.707101 
L 142.602964 -136.453407 
L 141.653388 -133.880719 
L 140.703812 -130.681301 
L 139.754237 -126.681275 
L 138.804661 -121.751445 
L 137.855085 -115.776433 
L 136.905509 -109.376465 
L 135.955934 -103.456249 
L 135.006358 -98.09637 
L 134.056782 -92.747839 
L 133.107207 -87.176434 
L 132.157631 -81.548828 
L 131.208055 -75.983966 
L 130.25848 -70.627278 
L 129.308904 -65.626837 
L 128.359328 -60.869378 
L 127.409753 -56.310398 
L 126.460177 -52.228464 
L 125.510601 -48.688456 
L 124.561026 -45.454604 
L 123.61145 -42.477175 
L 122.661874 -39.749378 
L 121.712298 -37.155062 
L 120.762723 -34.765453 
L 119.813147 -32.751956 
L 118.863571 -31.099889 
L 117.913996 -29.669271 
L 116.96442 -28.419666 
L 116.014844 -27.432023 
L 115.065269 -26.688261 
L 114.115693 -26.06611 
L 113.166117 -25.525909 
L 112.216542 -25.106643 
L 111.266966 -24.835378 
L 110.31739 -24.674712 
L 109.367814 -24.543433 
L 108.418239 -24.395859 
L 107.468663 -24.240993 
L 106.519087 -24.098263 
L 105.569512 -23.979886 
L 104.619936 -23.892644 
L 103.67036 -23.837738 
L 102.720785 -23.81143 
L 101.771209 -23.80179 
L 100.821633 -23.79439 
L 99.872058 -23.784381 
L 98.922482 -23.775197 
L 97.972906 -23.769684 
L 97.02333 -23.768131 
L 96.073755 -23.76892 
L 95.124179 -23.769261 
L 94.174603 -23.767438 
L 93.225028 -23.764185 
L 92.275452 -23.761538 
L 91.325876 -23.760352 
L 90.376301 -23.760049 
z
" style="stroke: #1f77b4"/>
    </defs>
    <g clip-path="url(#p58ab626e44)">
     <use xlink:href="#ma5cdd291d4" x="0" y="216" style="fill: #1f77b4; fill-opacity: 0.25; stroke: #1f77b4"/>
    </g>
   </g>
   <g id="matplotlib.axis_1">
    <g id="xtick_1">
     <g id="line2d_1">
      <defs>
       <path id="mc9ce0e37b3" d="M 0 0 
L 0 3.5 
" style="stroke: #000000; stroke-width: 0.8"/>
      </defs>
      <g>
       <use xlink:href="#mc9ce0e37b3" x="46.968178" y="192.24" style="stroke: #000000; stroke-width: 0.8"/>
      </g>
     </g>
     <g id="text_1">
      <text style="font-size: 10px; font-family: 'DejaVu Sans', 'Bitstream Vera Sans', 'Computer Modern Sans Serif', 'Lucida Grande', 'Verdana', 'Geneva', 'Lucid', 'Arial', 'Helvetica', 'Avant Garde', sans-serif; text-anchor: middle" x="46.968178" y="206.838437" transform="rotate(-0 46.968178 206.838437)">0.0</text>
     </g>
    </g>
    <g id="xtick_2">
     <g id="line2d_2">
      <g>
       <use xlink:href="#mc9ce0e37b3" x="92.656055" y="192.24" style="stroke: #000000; stroke-width: 0.8"/>
      </g>
     </g>
     <g id="text_2">
      <text style="font-size: 10px; font-family: 'DejaVu Sans', 'Bitstream Vera Sans', 'Computer Modern Sans Serif', 'Lucida Grande', 'Verdana', 'Geneva', 'Lucid', 'Arial', 'Helvetica', 'Avant Garde', sans-serif; text-anchor: middle" x="92.656055" y="206.838437" transform="rotate(-0 92.656055 206.838437)">0.2</text>
     </g>
    </g>
    <g id="xtick_3">
     <g id="line2d_3">
      <g>
       <use xlink:href="#mc9ce0e37b3" x="138.343933" y="192.24" style="stroke: #000000; stroke-width: 0.8"/>
      </g>
     </g>
     <g id="text_3">
      <text style="font-size: 10px; font-family: 'DejaVu Sans', 'Bitstream Vera Sans', 'Computer Modern Sans Serif', 'Lucida Grande', 'Verdana', 'Geneva', 'Lucid', 'Arial', 'Helvetica', 'Avant Garde', sans-serif; text-anchor: middle" x="138.343933" y="206.838437" transform="rotate(-0 138.343933 206.838437)">0.4</text>
     </g>
    </g>
    <g id="xtick_4">
     <g id="line2d_4">
      <g>
       <use xlink:href="#mc9ce0e37b3" x="184.03181" y="192.24" style="stroke: #000000; stroke-width: 0.8"/>
      </g>
     </g>
     <g id="text_4">
      <text style="font-size: 10px; font-family: 'DejaVu Sans', 'Bitstream Vera Sans', 'Computer Modern Sans Serif', 'Lucida Grande', 'Verdana', 'Geneva', 'Lucid', 'Arial', 'Helvetica', 'Avant Garde', sans-serif; text-anchor: middle" x="184.03181" y="206.838437" transform="rotate(-0 184.03181 206.838437)">0.6</text>
     </g>
    </g>
    <g id="xtick_5">
     <g id="line2d_5">
      <g>
       <use xlink:href="#mc9ce0e37b3" x="229.719688" y="192.24" style="stroke: #000000; stroke-width: 0.8"/>
      </g>
     </g>
     <g id="text_5">
      <text style="font-size: 10px; font-family: 'DejaVu Sans', 'Bitstream Vera Sans', 'Computer Modern Sans Serif', 'Lucida Grande', 'Verdana', 'Geneva', 'Lucid', 'Arial', 'Helvetica', 'Avant Garde', sans-serif; text-anchor: middle" x="229.719688" y="206.838437" transform="rotate(-0 229.719688 206.838437)">0.8</text>
     </g>
    </g>
    <g id="xtick_6">
     <g id="line2d_6">
      <g>
       <use xlink:href="#mc9ce0e37b3" x="275.407565" y="192.24" style="stroke: #000000; stroke-width: 0.8"/>
      </g>
     </g>
     <g id="text_6">
      <text style="font-size: 10px; font-family: 'DejaVu Sans', 'Bitstream Vera Sans', 'Computer Modern Sans Serif', 'Lucida Grande', 'Verdana', 'Geneva', 'Lucid', 'Arial', 'Helvetica', 'Avant Garde', sans-serif; text-anchor: middle" x="275.407565" y="206.838437" transform="rotate(-0 275.407565 206.838437)">1.0</text>
     </g>
    </g>
    <g id="text_7">
     <text style="font-size: 10px; font-family: 'DejaVu Sans', 'Bitstream Vera Sans', 'Computer Modern Sans Serif', 'Lucida Grande', 'Verdana', 'Geneva', 'Lucid', 'Arial', 'Helvetica', 'Avant Garde', sans-serif; text-anchor: middle" x="166.05" y="220.516562" transform="rotate(-0 166.05 220.516562)">TM-score</text>
    </g>
   </g>
   <g id="matplotlib.axis_2">
    <g id="ytick_1">
     <g id="line2d_7">
      <defs>
       <path id="m4f144813bd" d="M 0 0 
L -3.5 0 
" style="stroke: #000000; stroke-width: 0.8"/>
      </defs>
      <g>
       <use xlink:href="#m4f144813bd" x="40.5" y="192.24" style="stroke: #000000; stroke-width: 0.8"/>
      </g>
     </g>
     <g id="text_8">
      <text style="font-size: 10px; font-family: 'DejaVu Sans', 'Bitstream Vera Sans', 'Computer Modern Sans Serif', 'Lucida Grande', 'Verdana', 'Geneva', 'Lucid', 'Arial', 'Helvetica', 'Avant Garde', sans-serif; text-anchor: end" x="33.5" y="196.039219" transform="rotate(-0 33.5 196.039219)">0.0</text>
     </g>
    </g>
    <g id="ytick_2">
     <g id="line2d_8">
      <g>
       <use xlink:href="#m4f144813bd" x="40.5" y="154.083156" style="stroke: #000000; stroke-width: 0.8"/>
      </g>
     </g>
     <g id="text_9">
      <text style="font-size: 10px; font-family: 'DejaVu Sans', 'Bitstream Vera Sans', 'Computer Modern Sans Serif', 'Lucida Grande', 'Verdana', 'Geneva', 'Lucid', 'Arial', 'Helvetica', 'Avant Garde', sans-serif; text-anchor: end" x="33.5" y="157.882374" transform="rotate(-0 33.5 157.882374)">0.5</text>
     </g>
    </g>
    <g id="ytick_3">
     <g id="line2d_9">
      <g>
       <use xlink:href="#m4f144813bd" x="40.5" y="115.926311" style="stroke: #000000; stroke-width: 0.8"/>
      </g>
     </g>
     <g id="text_10">
      <text style="font-size: 10px; font-family: 'DejaVu Sans', 'Bitstream Vera Sans', 'Computer Modern Sans Serif', 'Lucida Grande', 'Verdana', 'Geneva', 'Lucid', 'Arial', 'Helvetica', 'Avant Garde', sans-serif; text-anchor: end" x="33.5" y="119.72553" transform="rotate(-0 33.5 119.72553)">1.0</text>
     </g>
    </g>
    <g id="ytick_4">
     <g id="line2d_10">
      <g>
       <use xlink:href="#m4f144813bd" x="40.5" y="77.769467" style="stroke: #000000; stroke-width: 0.8"/>
      </g>
     </g>
     <g id="text_11">
      <text style="font-size: 10px; font-family: 'DejaVu Sans', 'Bitstream Vera Sans', 'Computer Modern Sans Serif', 'Lucida Grande', 'Verdana', 'Geneva', 'Lucid', 'Arial', 'Helvetica', 'Avant Garde', sans-serif; text-anchor: end" x="33.5" y="81.568686" transform="rotate(-0 33.5 81.568686)">1.5</text>
     </g>
    </g>
    <g id="ytick_5">
     <g id="line2d_11">
      <g>
       <use xlink:href="#m4f144813bd" x="40.5" y="39.612623" style="stroke: #000000; stroke-width: 0.8"/>
      </g>
     </g>
     <g id="text_12">
      <text style="font-size: 10px; font-family: 'DejaVu Sans', 'Bitstream Vera Sans', 'Computer Modern Sans Serif', 'Lucida Grande', 'Verdana', 'Geneva', 'Lucid', 'Arial', 'Helvetica', 'Avant Garde', sans-serif; text-anchor: end" x="33.5" y="43.411842" transform="rotate(-0 33.5 43.411842)">2.0</text>
     </g>
    </g>
    <g id="text_13">
     <text style="font-size: 10px; font-family: 'DejaVu Sans', 'Bitstream Vera Sans', 'Computer Modern Sans Serif', 'Lucida Grande', 'Verdana', 'Geneva', 'Lucid', 'Arial', 'Helvetica', 'Avant Garde', sans-serif; text-anchor: middle" x="11.517187" y="109.08" transform="rotate(-90 11.517187 109.08)">Density</text>
    </g>
   </g>
   <g id="patch_3">
    <path d="M 40.5 192.24 
L 40.5 25.92 
" style="fill: none; stroke: #000000; stroke-width: 0.8; stroke-linejoin: miter; stroke-linecap: square"/>
   </g>
   <g id="patch_4">
    <path d="M 291.6 192.24 
L 291.6 25.92 
" style="fill: none; stroke: #000000; stroke-width: 0.8; stroke-linejoin: miter; stroke-linecap: square"/>
   </g>
   <g id="patch_5">
    <path d="M 40.5 192.24 
L 291.6 192.24 
" style="fill: none; stroke: #000000; stroke-width: 0.8; stroke-linejoin: miter; stroke-linecap: square"/>
   </g>
   <g id="patch_6">
    <path d="M 40.5 25.92 
L 291.6 25.92 
" style="fill: none; stroke: #000000; stroke-width: 0.8; stroke-linejoin: miter; stroke-linecap: square"/>
   </g>
   <g id="legend_1">
    <g id="patch_7">
     <path d="M 171.779688 107.58875 
L 284.6 107.58875 
Q 286.6 107.58875 286.6 105.58875 
L 286.6 32.92 
Q 286.6 30.92 284.6 30.92 
L 171.779688 30.92 
Q 169.779688 30.92 169.779688 32.92 
L 169.779688 105.58875 
Q 169.779688 107.58875 171.779688 107.58875 
z
" style="fill: #ffffff; opacity: 0.8; stroke: #cccccc; stroke-linejoin: miter"/>
    </g>
    <g id="text_14">
     <text style="font-size: 10px; font-family: 'DejaVu Sans', 'Bitstream Vera Sans', 'Computer Modern Sans Serif', 'Lucida Grande', 'Verdana', 'Geneva', 'Lucid', 'Arial', 'Helvetica', 'Avant Garde', sans-serif; text-anchor: start" x="209.436719" y="42.518437" transform="rotate(-0 209.436719 42.518437)">Method</text>
    </g>
    <g id="patch_8">
     <path d="M 173.779688 57.196562 
L 193.779688 57.196562 
L 193.779688 50.196562 
L 173.779688 50.196562 
z
" style="fill: #1f77b4; fill-opacity: 0.25; stroke: #1f77b4; stroke-linejoin: miter"/>
    </g>
    <g id="text_15">
     <text style="font-size: 10px; font-family: 'DejaVu Sans', 'Bitstream Vera Sans', 'Computer Modern Sans Serif', 'Lucida Grande', 'Verdana', 'Geneva', 'Lucid', 'Arial', 'Helvetica', 'Avant Garde', sans-serif; text-anchor: start" x="201.779688" y="57.196562" transform="rotate(-0 201.779688 57.196562)">tmvec1</text>
    </g>
    <g id="patch_9">
     <path d="M 173.779688 71.874687 
L 193.779688 71.874687 
L 193.779688 64.874687 
L 173.779688 64.874687 
z
" style="fill: #ff7f0e; fill-opacity: 0.25; stroke: #ff7f0e; stroke-linejoin: miter"/>
    </g>
    <g id="text_16">
     <text style="font-size: 10px; font-family: 'DejaVu Sans', 'Bitstream Vera Sans', 'Computer Modern Sans Serif', 'Lucida Grande', 'Verdana', 'Geneva', 'Lucid', 'Arial', 'Helvetica', 'Avant Garde', sans-serif; text-anchor: start" x="201.779688" y="71.874687" transform="rotate(-0 201.779688 71.874687)">tmvec2</text>
    </g>
    <g id="patch_10">
     <path d="M 173.779688 86.552812 
L 193.779688 86.552812 
L 193.779688 79.552812 
L 173.779688 79.552812 
z
" style="fill: #2ca02c; fill-opacity: 0.25; stroke: #2ca02c; stroke-linejoin: miter"/>
    </g>
    <g id="text_17">
     <text style="font-size: 10px; font-family: 'DejaVu Sans', 'Bitstream Vera Sans', 'Computer Modern Sans Serif', 'Lucida Grande', 'Verdana', 'Geneva', 'Lucid', 'Arial', 'Helvetica', 'Avant Garde', sans-serif; text-anchor: start" x="201.779688" y="86.552812" transform="rotate(-0 201.779688 86.552812)">tmvec2_student</text>
    </g>
    <g id="patch_11">
     <path d="M 173.779688 101.509062 
L 193.779688 101.509062 
L 193.779688 94.509062 
L 173.779688 94.509062 
z
" style="fill: #d62728; fill-opacity: 0.25; stroke: #d62728; stroke-linejoin: miter"/>
    </g>
    <g id="text_18">
     <text style="font-size: 10px; font-family: 'DejaVu Sans', 'Bitstream Vera Sans', 'Computer Modern Sans Serif', 'Lucida Grande', 'Verdana', 'Geneva', 'Lucid', 'Arial', 'Helvetica', 'Avant Garde', sans-serif; text-anchor: start" x="201.779688" y="101.509062" transform="rotate(-0 201.779688 101.509062)">tmalign</text>
    </g>
   </g>
  </g>
 </g>
 <defs>
  <clipPath id="p58ab626e44">
   <rect x="40.5" y="25.92" width="251.1" height="166.32"/>
  </clipPath>
 </defs>
</svg>
