<?xml version="1.0" encoding="utf-8" standalone="no"?>
<!DOCTYPE svg PUBLIC "-//W3C//DTD SVG 1.1//EN"
  "http://www.w3.org/Graphics/SVG/1.1/DTD/svg11.dtd">
<svg xmlns:xlink="http://www.w3.org/1999/xlink" width="288pt" height="216pt" viewBox="0 0 288 216" xmlns="http://www.w3.org/2000/svg" version="1.1">
 <metadata>
  <rdf:RDF xmlns:dc="http://purl.org/dc/elements/1.1/" xmlns:cc="http://creativecommons.org/ns#" xmlns:rdf="http://www.w3.org/1999/02/22-rdf-syntax-ns#">
   <cc:Work>
    <dc:type rdf:resource="http://purl.org/dc/dcmitype/StillImage"/>
    <dc:date>2026-01-19T14:29:22.875564</dc:date>
    <dc:format>image/svg+xml</dc:format>
    <dc:creator>
     <cc:Agent>
      <dc:title>Matplotlib v3.10.8, https://matplotlib.org/</dc:title>
     </cc:Agent>
    </dc:creator>
   </cc:Work>
  </rdf:RDF>
 </metadata>
 <defs>
  <style type="text/css">*{stroke-linejoin: round; stroke-linecap: butt}</style>
 </defs>
 <g id="figure_1">
  <g id="patch_1">
   <path d="M 0 216 
L 288 216 
L 288 0 
L 0 0 
z
" style="fill: #ffffff"/>
  </g>
  <g id="axes_1">
   <g id="patch_2">
    <path d="M 36 192.24 
L 259.2 192.24 
L 259.2 25.92 
L 36 25.92 
z
" style="fill: #ffffff"/>
   </g>
   <g id="FillBetweenPolyCollection_1">
    <path d="M 73.282287 184.68 
L 73.117713 184.68 
L 72.501296 183.378725 
L 71.621815 182.07745 
L 71.556007 180.776175 
L 71.624812 179.4749 
L 71.482873 178.173625 
L 71.249118 176.87235 
L 70.790168 175.571075 
L 70.393187 174.2698 
L 69.913426 172.968525 
L 69.206593 171.66725 
L 68.421914 170.365975 
L 67.449908 169.064701 
L 66.318601 167.763426 
L 65.042429 166.462151 
L 63.299072 165.160876 
L 61.14499 163.859601 
L 59.129051 162.558326 
L 57.331867 161.257051 
L 55.745366 159.955776 
L 53.99286 158.654501 
L 51.965429 157.353226 
L 50.045355 156.051951 
L 47.952124 154.750676 
L 45.907868 153.449401 
L 44.572927 152.148126 
L 43.890295 150.846851 
L 43.579144 149.545576 
L 43.539974 148.244301 
L 43.44 146.943026 
L 43.455344 145.641751 
L 43.717551 144.340476 
L 44.215585 143.039201 
L 45.217033 141.737926 
L 46.305427 140.436651 
L 47.713409 139.135377 
L 49.355284 137.834102 
L 51.099936 136.532827 
L 52.682513 135.231552 
L 54.380444 133.930277 
L 56.004996 132.629002 
L 57.516322 131.327727 
L 58.981102 130.026452 
L 60.400601 128.725177 
L 61.93498 127.423902 
L 63.389709 126.122627 
L 64.5772 124.821352 
L 65.48251 123.520077 
L 66.448433 122.218802 
L 67.439717 120.917527 
L 68.212059 119.616252 
L 68.927703 118.314977 
L 69.556161 117.013702 
L 70.061887 115.712427 
L 70.531301 114.411152 
L 70.96397 113.109877 
L 71.360141 111.808602 
L 71.680307 110.507327 
L 71.90665 109.206053 
L 72.110532 107.904778 
L 72.312669 106.603503 
L 72.475282 105.302228 
L 72.586761 104.000953 
L 72.689596 102.699678 
L 72.799051 101.398403 
L 72.86471 100.097128 
L 72.924155 98.795853 
L 72.974819 97.494578 
L 73.004227 96.193303 
L 73.035147 94.892028 
L 73.068237 93.590753 
L 73.097007 92.289478 
L 73.114626 90.988203 
L 73.131594 89.686928 
L 73.148216 88.385653 
L 73.154193 87.084378 
L 73.159613 85.783103 
L 73.166507 84.481828 
L 73.172208 83.180553 
L 73.177726 81.879278 
L 73.185571 80.578003 
L 73.18607 79.276729 
L 73.18692 77.975454 
L 73.189108 76.674179 
L 73.192209 75.372904 
L 73.192937 74.071629 
L 73.19538 72.770354 
L 73.195229 71.469079 
L 73.19312 70.167804 
L 73.19479 68.866529 
L 73.197917 67.565254 
L 73.19906 66.263979 
L 73.199392 64.962704 
L 73.199896 63.661429 
L 73.199802 62.360154 
L 73.199242 61.058879 
L 73.199318 59.757604 
L 73.199242 58.456329 
L 73.199363 57.155054 
L 73.19989 55.853779 
L 73.20011 55.853779 
L 73.20011 55.853779 
L 73.200637 57.155054 
L 73.200758 58.456329 
L 73.200682 59.757604 
L 73.200758 61.058879 
L 73.200198 62.360154 
L 73.200104 63.661429 
L 73.200608 64.962704 
L 73.20094 66.263979 
L 73.202083 67.565254 
L 73.20521 68.866529 
L 73.20688 70.167804 
L 73.204771 71.469079 
L 73.20462 72.770354 
L 73.207063 74.071629 
L 73.207791 75.372904 
L 73.210892 76.674179 
L 73.21308 77.975454 
L 73.21393 79.276729 
L 73.214429 80.578003 
L 73.222274 81.879278 
L 73.227792 83.180553 
L 73.233493 84.481828 
L 73.240387 85.783103 
L 73.245807 87.084378 
L 73.251784 88.385653 
L 73.268406 89.686928 
L 73.285374 90.988203 
L 73.302993 92.289478 
L 73.331763 93.590753 
L 73.364853 94.892028 
L 73.395773 96.193303 
L 73.425181 97.494578 
L 73.475845 98.795853 
L 73.53529 100.097128 
L 73.600949 101.398403 
L 73.710404 102.699678 
L 73.813239 104.000953 
L 73.924718 105.302228 
L 74.087331 106.603503 
L 74.289468 107.904778 
L 74.49335 109.206053 
L 74.719693 110.507327 
L 75.039859 111.808602 
L 75.43603 113.109877 
L 75.868699 114.411152 
L 76.338113 115.712427 
L 76.843839 117.013702 
L 77.472297 118.314977 
L 78.187941 119.616252 
L 78.960283 120.917527 
L 79.951567 122.218802 
L 80.91749 123.520077 
L 81.8228 124.821352 
L 83.010291 126.122627 
L 84.46502 127.423902 
L 85.999399 128.725177 
L 87.418898 130.026452 
L 88.883678 131.327727 
L 90.395004 132.629002 
L 92.019556 133.930277 
L 93.717487 135.231552 
L 95.300064 136.532827 
L 97.044716 137.834102 
L 98.686591 139.135377 
L 100.094573 140.436651 
L 101.182967 141.737926 
L 102.184415 143.039201 
L 102.682449 144.340476 
L 102.944656 145.641751 
L 102.96 146.943026 
L 102.860026 148.244301 
L 102.820856 149.545576 
L 102.509705 150.846851 
L 101.827073 152.148126 
L 100.492132 153.449401 
L 98.447876 154.750676 
L 96.354645 156.051951 
L 94.434571 157.353226 
L 92.40714 158.654501 
L 90.654634 159.955776 
L 89.068133 161.257051 
L 87.270949 162.558326 
L 85.25501 163.859601 
L 83.100928 165.160876 
L 81.357571 166.462151 
L 80.081399 167.763426 
L 78.950092 169.064701 
L 77.978086 170.365975 
L 77.193407 171.66725 
L 76.486574 172.968525 
L 76.006813 174.2698 
L 75.609832 175.571075 
L 75.150882 176.87235 
L 74.917127 178.173625 
L 74.775188 179.4749 
L 74.843993 180.776175 
L 74.778185 182.07745 
L 73.898704 183.378725 
L 73.282287 184.68 
L 73.282287 184.68 
z
" clip-path="url(#pee3e5d76ff)" style="fill: none; stroke: #1f77b4; stroke-width: 1.5"/>
   </g>
   <g id="FillBetweenPolyCollection_2">
    <path d="M 147.764436 184.426978 
L 147.435564 184.426978 
L 145.045603 182.999244 
L 140.915302 181.57151 
L 139.242837 180.143776 
L 137.582896 178.716042 
L 135.285137 177.288308 
L 132.939322 175.860574 
L 130.226512 174.43284 
L 127.734152 173.005106 
L 125.143485 171.577372 
L 122.492094 170.149638 
L 120.224412 168.721904 
L 118.671212 167.29417 
L 117.84 165.866436 
L 118.175911 164.438701 
L 119.241226 163.010967 
L 120.833856 161.583233 
L 122.707779 160.155499 
L 124.505861 158.727765 
L 126.69992 157.300031 
L 129.138738 155.872297 
L 131.494582 154.444563 
L 133.636243 153.016829 
L 135.585595 151.589095 
L 137.321592 150.161361 
L 138.827378 148.733627 
L 140.139761 147.305893 
L 141.14167 145.878159 
L 142.157365 144.450425 
L 143.022489 143.022691 
L 143.686874 141.594957 
L 144.191176 140.167223 
L 144.515731 138.739489 
L 144.954627 137.311755 
L 145.409318 135.884021 
L 145.761706 134.456286 
L 145.99081 133.028552 
L 146.212537 131.600818 
L 146.432654 130.173084 
L 146.618547 128.74535 
L 146.756578 127.317616 
L 146.8368 125.889882 
L 146.893904 124.462148 
L 146.955098 123.034414 
L 147.050951 121.60668 
L 147.143274 120.178946 
L 147.198987 118.751212 
L 147.237611 117.323478 
L 147.275196 115.895744 
L 147.282206 114.46801 
L 147.291626 113.040276 
L 147.301943 111.612542 
L 147.309362 110.184808 
L 147.344184 108.757074 
L 147.402989 107.32934 
L 147.429873 105.901606 
L 147.455397 104.473871 
L 147.46437 103.046137 
L 147.489724 101.618403 
L 147.502738 100.190669 
L 147.501041 98.762935 
L 147.505162 97.335201 
L 147.522173 95.907467 
L 147.53414 94.479733 
L 147.537232 93.051999 
L 147.543995 91.624265 
L 147.554664 90.196531 
L 147.553847 88.768797 
L 147.556835 87.341063 
L 147.570247 85.913329 
L 147.574022 84.485595 
L 147.576245 83.057861 
L 147.578272 81.630127 
L 147.576774 80.202393 
L 147.576366 78.774659 
L 147.576893 77.346925 
L 147.581449 75.919191 
L 147.582017 74.491456 
L 147.583814 73.063722 
L 147.587678 71.635988 
L 147.587759 70.208254 
L 147.585525 68.78052 
L 147.584038 67.352786 
L 147.585809 65.925052 
L 147.589012 64.497318 
L 147.589593 63.069584 
L 147.592021 61.64185 
L 147.593465 60.214116 
L 147.590931 58.786382 
L 147.594623 57.358648 
L 147.597745 55.930914 
L 147.597799 54.50318 
L 147.598582 53.075446 
L 147.599233 51.647712 
L 147.59945 50.219978 
L 147.598559 48.792244 
L 147.597259 47.36451 
L 147.597428 45.936776 
L 147.598768 44.509041 
L 147.599888 43.081307 
L 147.600112 43.081307 
L 147.600112 43.081307 
L 147.601232 44.509041 
L 147.602572 45.936776 
L 147.602741 47.36451 
L 147.601441 48.792244 
L 147.60055 50.219978 
L 147.600767 51.647712 
L 147.601418 53.075446 
L 147.602201 54.50318 
L 147.602255 55.930914 
L 147.605377 57.358648 
L 147.609069 58.786382 
L 147.606535 60.214116 
L 147.607979 61.64185 
L 147.610407 63.069584 
L 147.610988 64.497318 
L 147.614191 65.925052 
L 147.615962 67.352786 
L 147.614475 68.78052 
L 147.612241 70.208254 
L 147.612322 71.635988 
L 147.616186 73.063722 
L 147.617983 74.491456 
L 147.618551 75.919191 
L 147.623107 77.346925 
L 147.623634 78.774659 
L 147.623226 80.202393 
L 147.621728 81.630127 
L 147.623755 83.057861 
L 147.625978 84.485595 
L 147.629753 85.913329 
L 147.643165 87.341063 
L 147.646153 88.768797 
L 147.645336 90.196531 
L 147.656005 91.624265 
L 147.662768 93.051999 
L 147.66586 94.479733 
L 147.677827 95.907467 
L 147.694838 97.335201 
L 147.698959 98.762935 
L 147.697262 100.190669 
L 147.710276 101.618403 
L 147.73563 103.046137 
L 147.744603 104.473871 
L 147.770127 105.901606 
L 147.797011 107.32934 
L 147.855816 108.757074 
L 147.890638 110.184808 
L 147.898057 111.612542 
L 147.908374 113.040276 
L 147.917794 114.46801 
L 147.924804 115.895744 
L 147.962389 117.323478 
L 148.001013 118.751212 
L 148.056726 120.178946 
L 148.149049 121.60668 
L 148.244902 123.034414 
L 148.306096 124.462148 
L 148.3632 125.889882 
L 148.443422 127.317616 
L 148.581453 128.74535 
L 148.767346 130.173084 
L 148.987463 131.600818 
L 149.20919 133.028552 
L 149.438294 134.456286 
L 149.790682 135.884021 
L 150.245373 137.311755 
L 150.684269 138.739489 
L 151.008824 140.167223 
L 151.513126 141.594957 
L 152.177511 143.022691 
L 153.042635 144.450425 
L 154.05833 145.878159 
L 155.060239 147.305893 
L 156.372622 148.733627 
L 157.878408 150.161361 
L 159.614405 151.589095 
L 161.563757 153.016829 
L 163.705418 154.444563 
L 166.061262 155.872297 
L 168.50008 157.300031 
L 170.694139 158.727765 
L 172.492221 160.155499 
L 174.366144 161.583233 
L 175.958774 163.010967 
L 177.024089 164.438701 
L 177.36 165.866436 
L 176.528788 167.29417 
L 174.975588 168.721904 
L 172.707906 170.149638 
L 170.056515 171.577372 
L 167.465848 173.005106 
L 164.973488 174.43284 
L 162.260678 175.860574 
L 159.914863 177.288308 
L 157.617104 178.716042 
L 155.957163 180.143776 
L 154.284698 181.57151 
L 150.154397 182.999244 
L 147.764436 184.426978 
L 147.764436 184.426978 
z
" clip-path="url(#pee3e5d76ff)" style="fill: none; stroke: #ff7f0e; stroke-width: 1.5"/>
   </g>
   <g id="FillBetweenPolyCollection_3">
    <path d="M 222.698443 184.062821 
L 221.301557 184.062821 
L 204.561272 182.541782 
L 192.24 181.020744 
L 192.62738 179.499705 
L 193.547906 177.978666 
L 194.703389 176.457628 
L 196.44224 174.936589 
L 197.869738 173.415551 
L 199.923912 171.894512 
L 202.055703 170.373473 
L 204.42954 168.852435 
L 206.637162 167.331396 
L 208.465744 165.810358 
L 210.233579 164.289319 
L 211.853166 162.76828 
L 213.378547 161.247242 
L 214.67143 159.726203 
L 215.963697 158.205165 
L 216.967841 156.684126 
L 217.749269 155.163088 
L 218.408894 153.642049 
L 219.075312 152.12101 
L 219.657574 150.599972 
L 220.047275 149.078933 
L 220.436318 147.557895 
L 220.726761 146.036856 
L 220.957049 144.515817 
L 221.116804 142.994779 
L 221.285261 141.47374 
L 221.450945 139.952702 
L 221.516332 138.431663 
L 221.600567 136.910624 
L 221.706878 135.389586 
L 221.763369 133.868547 
L 221.801981 132.347509 
L 221.838308 130.82647 
L 221.883034 129.305431 
L 221.886992 127.784393 
L 221.923563 126.263354 
L 221.940701 124.742316 
L 221.943973 123.221277 
L 221.954357 121.700238 
L 221.964766 120.1792 
L 221.963843 118.658161 
L 221.971904 117.137123 
L 221.97655 115.616084 
L 221.979717 114.095045 
L 221.980315 112.574007 
L 221.978938 111.052968 
L 221.984744 109.53193 
L 221.987467 108.010891 
L 221.990302 106.489853 
L 221.988136 104.968814 
L 221.986894 103.447775 
L 221.987702 101.926737 
L 221.988107 100.405698 
L 221.988671 98.88466 
L 221.989338 97.363621 
L 221.992534 95.842582 
L 221.994324 94.321544 
L 221.995719 92.800505 
L 221.994993 91.279467 
L 221.990625 89.758428 
L 221.992546 88.237389 
L 221.995836 86.716351 
L 221.994775 85.195312 
L 221.991756 83.674274 
L 221.991833 82.153235 
L 221.992405 80.632196 
L 221.99512 79.111158 
L 221.994623 77.590119 
L 221.996181 76.069081 
L 221.994434 74.548042 
L 221.994546 73.027003 
L 221.993838 71.505965 
L 221.991604 69.984926 
L 221.99042 68.463888 
L 221.993008 66.942849 
L 221.991027 65.42181 
L 221.992791 63.900772 
L 221.993751 62.379733 
L 221.992563 60.858695 
L 221.988543 59.337656 
L 221.985871 57.816618 
L 221.992124 56.295579 
L 221.995122 54.77454 
L 221.995028 53.253502 
L 221.996122 51.732463 
L 221.995171 50.211425 
L 221.996616 48.690386 
L 221.99827 47.169347 
L 221.997655 45.648309 
L 221.999715 44.12727 
L 222 42.606232 
L 222 41.085193 
L 222 39.564154 
L 222 38.043116 
L 221.999963 36.522077 
L 221.999401 35.001039 
L 221.999917 33.48 
L 222.000083 33.48 
L 222.000083 33.48 
L 222.000599 35.001039 
L 222.000037 36.522077 
L 222 38.043116 
L 222 39.564154 
L 222 41.085193 
L 222 42.606232 
L 222.000285 44.12727 
L 222.002345 45.648309 
L 222.00173 47.169347 
L 222.003384 48.690386 
L 222.004829 50.211425 
L 222.003878 51.732463 
L 222.004972 53.253502 
L 222.004878 54.77454 
L 222.007876 56.295579 
L 222.014129 57.816618 
L 222.011457 59.337656 
L 222.007437 60.858695 
L 222.006249 62.379733 
L 222.007209 63.900772 
L 222.008973 65.42181 
L 222.006992 66.942849 
L 222.00958 68.463888 
L 222.008396 69.984926 
L 222.006162 71.505965 
L 222.005454 73.027003 
L 222.005566 74.548042 
L 222.003819 76.069081 
L 222.005377 77.590119 
L 222.00488 79.111158 
L 222.007595 80.632196 
L 222.008167 82.153235 
L 222.008244 83.674274 
L 222.005225 85.195312 
L 222.004164 86.716351 
L 222.007454 88.237389 
L 222.009375 89.758428 
L 222.005007 91.279467 
L 222.004281 92.800505 
L 222.005676 94.321544 
L 222.007466 95.842582 
L 222.010662 97.363621 
L 222.011329 98.88466 
L 222.011893 100.405698 
L 222.012298 101.926737 
L 222.013106 103.447775 
L 222.011864 104.968814 
L 222.009698 106.489853 
L 222.012533 108.010891 
L 222.015256 109.53193 
L 222.021062 111.052968 
L 222.019685 112.574007 
L 222.020283 114.095045 
L 222.02345 115.616084 
L 222.028096 117.137123 
L 222.036157 118.658161 
L 222.035234 120.1792 
L 222.045643 121.700238 
L 222.056027 123.221277 
L 222.059299 124.742316 
L 222.076437 126.263354 
L 222.113008 127.784393 
L 222.116966 129.305431 
L 222.161692 130.82647 
L 222.198019 132.347509 
L 222.236631 133.868547 
L 222.293122 135.389586 
L 222.399433 136.910624 
L 222.483668 138.431663 
L 222.549055 139.952702 
L 222.714739 141.47374 
L 222.883196 142.994779 
L 223.042951 144.515817 
L 223.273239 146.036856 
L 223.563682 147.557895 
L 223.952725 149.078933 
L 224.342426 150.599972 
L 224.924688 152.12101 
L 225.591106 153.642049 
L 226.250731 155.163088 
L 227.032159 156.684126 
L 228.036303 158.205165 
L 229.32857 159.726203 
L 230.621453 161.247242 
L 232.146834 162.76828 
L 233.766421 164.289319 
L 235.534256 165.810358 
L 237.362838 167.331396 
L 239.57046 168.852435 
L 241.944297 170.373473 
L 244.076088 171.894512 
L 246.130262 173.415551 
L 247.55776 174.936589 
L 249.296611 176.457628 
L 250.452094 177.978666 
L 251.37262 179.499705 
L 251.76 181.020744 
L 239.438728 182.541782 
L 222.698443 184.062821 
L 222.698443 184.062821 
z
" clip-path="url(#pee3e5d76ff)" style="fill: none; stroke: #2ca02c; stroke-width: 1.5"/>
   </g>
   <g id="matplotlib.axis_1">
    <g id="xtick_1">
     <g id="line2d_1">
      <defs>
       <path id="m1291bcf6a0" d="M 0 0 
L 0 3.5 
" style="stroke: #000000; stroke-width: 0.8"/>
      </defs>
      <g>
       <use xlink:href="#m1291bcf6a0" x="73.2" y="192.24" style="stroke: #000000; stroke-width: 0.8"/>
      </g>
     </g>
     <g id="text_1">
      <text style="font-size: 10px; font-family: 'DejaVu Sans', 'Bitstream Vera Sans', 'Computer Modern Sans Serif', 'Lucida Grande', 'Verdana', 'Geneva', 'Lucid', 'Arial', 'Helvetica', 'Avant Garde', sans-serif; text-anchor: middle" x="73.2" y="206.838437" transform="rotate(-0 73.2 206.838437)">TM-Vec 1</text>
     </g>
    </g>
    <g id="xtick_2">
     <g id="line2d_2">
      <g>
       <use xlink:href="#m1291bcf6a0" x="147.6" y="192.24" style="stroke: #000000; stroke-width: 0.8"/>
      </g>
     </g>
     <g id="text_2">
      <text style="font-size: 10px; font-family: 'DejaVu Sans', 'Bitstream Vera Sans', 'Computer Modern Sans Serif', 'Lucida Grande', 'Verdana', 'Geneva', 'Lucid', 'Arial', 'Helvetica', 'Avant Garde', sans-serif; text-anchor: middle" x="147.6" y="206.838437" transform="rotate(-0 147.6 206.838437)">TM-Vec 2</text>
     </g>
    </g>
    <g id="xtick_3">
     <g id="line2d_3">
      <g>
       <use xlink:href="#m1291bcf6a0" x="222" y="192.24" style="stroke: #000000; stroke-width: 0.8"/>
      </g>
     </g>
     <g id="text_3">
      <text style="font-size: 10px; font-family: 'DejaVu Sans', 'Bitstream Vera Sans', 'Computer Modern Sans Serif', 'Lucida Grande', 'Verdana', 'Geneva', 'Lucid', 'Arial', 'Helvetica', 'Avant Garde', sans-serif; text-anchor: middle" x="222" y="206.838437" transform="rotate(-0 222 206.838437)">TM-Vec 2 Student</text>
     </g>
    </g>
   </g>
   <g id="matplotlib.axis_2">
    <g id="ytick_1">
     <g id="line2d_4">
      <defs>
       <path id="m2c44783f78" d="M 0 0 
L -3.5 0 
" style="stroke: #000000; stroke-width: 0.8"/>
      </defs>
      <g>
       <use xlink:href="#m2c44783f78" x="36" y="182.670322" style="stroke: #000000; stroke-width: 0.8"/>
      </g>
     </g>
     <g id="text_4">
      <text style="font-size: 10px; font-family: 'DejaVu Sans', 'Bitstream Vera Sans', 'Computer Modern Sans Serif', 'Lucida Grande', 'Verdana', 'Geneva', 'Lucid', 'Arial', 'Helvetica', 'Avant Garde', sans-serif; text-anchor: end" x="29" y="186.469541" transform="rotate(-0 29 186.469541)">0.0</text>
     </g>
    </g>
    <g id="ytick_2">
     <g id="line2d_5">
      <g>
       <use xlink:href="#m2c44783f78" x="36" y="147.359568" style="stroke: #000000; stroke-width: 0.8"/>
      </g>
     </g>
     <g id="text_5">
      <text style="font-size: 10px; font-family: 'DejaVu Sans', 'Bitstream Vera Sans', 'Computer Modern Sans Serif', 'Lucida Grande', 'Verdana', 'Geneva', 'Lucid', 'Arial', 'Helvetica', 'Avant Garde', sans-serif; text-anchor: end" x="29" y="151.158787" transform="rotate(-0 29 151.158787)">0.2</text>
     </g>
    </g>
    <g id="ytick_3">
     <g id="line2d_6">
      <g>
       <use xlink:href="#m2c44783f78" x="36" y="112.048815" style="stroke: #000000; stroke-width: 0.8"/>
      </g>
     </g>
     <g id="text_6">
      <text style="font-size: 10px; font-family: 'DejaVu Sans', 'Bitstream Vera Sans', 'Computer Modern Sans Serif', 'Lucida Grande', 'Verdana', 'Geneva', 'Lucid', 'Arial', 'Helvetica', 'Avant Garde', sans-serif; text-anchor: end" x="29" y="115.848034" transform="rotate(-0 29 115.848034)">0.4</text>
     </g>
    </g>
    <g id="ytick_4">
     <g id="line2d_7">
      <g>
       <use xlink:href="#m2c44783f78" x="36" y="76.738062" style="stroke: #000000; stroke-width: 0.8"/>
      </g>
     </g>
     <g id="text_7">
      <text style="font-size: 10px; font-family: 'DejaVu Sans', 'Bitstream Vera Sans', 'Computer Modern Sans Serif', 'Lucida Grande', 'Verdana', 'Geneva', 'Lucid', 'Arial', 'Helvetica', 'Avant Garde', sans-serif; text-anchor: end" x="29" y="80.53728" transform="rotate(-0 29 80.53728)">0.6</text>
     </g>
    </g>
    <g id="ytick_5">
     <g id="line2d_8">
      <g>
       <use xlink:href="#m2c44783f78" x="36" y="41.427308" style="stroke: #000000; stroke-width: 0.8"/>
      </g>
     </g>
     <g id="text_8">
      <text style="font-size: 10px; font-family: 'DejaVu Sans', 'Bitstream Vera Sans', 'Computer Modern Sans Serif', 'Lucida Grande', 'Verdana', 'Geneva', 'Lucid', 'Arial', 'Helvetica', 'Avant Garde', sans-serif; text-anchor: end" x="29" y="45.226527" transform="rotate(-0 29 45.226527)">0.8</text>
     </g>
    </g>
    <g id="text_9">
     <text style="font-size: 10px; font-family: 'DejaVu Sans', 'Bitstream Vera Sans', 'Computer Modern Sans Serif', 'Lucida Grande', 'Verdana', 'Geneva', 'Lucid', 'Arial', 'Helvetica', 'Avant Garde', sans-serif; text-anchor: middle" x="7.017187" y="109.08" transform="rotate(-90 7.017187 109.08)">TM-score prediction error (abs.)</text>
    </g>
   </g>
   <g id="line2d_9">
    <path d="M 73.2 181.618437 
L 73.2 109.720477 
" clip-path="url(#pee3e5d76ff)" style="fill: none; stroke: #1f77b4; stroke-width: 2.25; stroke-linecap: square"/>
   </g>
   <g id="line2d_10">
    <path d="M 73.2 154.656218 
L 73.2 136.681182 
" clip-path="url(#pee3e5d76ff)" style="fill: none; stroke: #1f77b4; stroke-width: 6.75; stroke-linecap: square"/>
   </g>
   <g id="line2d_11">
    <path d="M 73.2 145.957438 
" clip-path="url(#pee3e5d76ff)" style="fill: none; stroke: #1f77b4; stroke-width: 1.5; stroke-linecap: square"/>
    <defs>
     <path id="m1310685036" d="M 2.8125 0 
L -2.8125 -0 
" style="stroke: #ffffff; stroke-width: 1.35"/>
    </defs>
    <g clip-path="url(#pee3e5d76ff)">
     <use xlink:href="#m1310685036" x="73.2" y="145.957438" style="fill: #ffffff; stroke: #ffffff; stroke-width: 1.35"/>
    </g>
   </g>
   <g id="line2d_12">
    <path d="M 147.6 182.670311 
L 147.6 135.410455 
" clip-path="url(#pee3e5d76ff)" style="fill: none; stroke: #ff7f0e; stroke-width: 2.25; stroke-linecap: square"/>
   </g>
   <g id="line2d_13">
    <path d="M 147.6 170.036505 
L 147.6 156.186044 
" clip-path="url(#pee3e5d76ff)" style="fill: none; stroke: #ff7f0e; stroke-width: 6.75; stroke-linecap: square"/>
   </g>
   <g id="line2d_14">
    <path d="M 147.6 163.658812 
" clip-path="url(#pee3e5d76ff)" style="fill: none; stroke: #ff7f0e; stroke-width: 1.5; stroke-linecap: square"/>
    <g clip-path="url(#pee3e5d76ff)">
     <use xlink:href="#m1310685036" x="147.6" y="163.658812" style="fill: #ffffff; stroke: #ffffff; stroke-width: 1.35"/>
    </g>
   </g>
   <g id="line2d_15">
    <path d="M 222 182.670322 
L 222 148.959623 
" clip-path="url(#pee3e5d76ff)" style="fill: none; stroke: #2ca02c; stroke-width: 2.25; stroke-linecap: square"/>
   </g>
   <g id="line2d_16">
    <path d="M 222 178.276712 
L 222 166.549825 
" clip-path="url(#pee3e5d76ff)" style="fill: none; stroke: #2ca02c; stroke-width: 6.75; stroke-linecap: square"/>
   </g>
   <g id="line2d_17">
    <path d="M 222 173.347892 
" clip-path="url(#pee3e5d76ff)" style="fill: none; stroke: #2ca02c; stroke-width: 1.5; stroke-linecap: square"/>
    <g clip-path="url(#pee3e5d76ff)">
     <use xlink:href="#m1310685036" x="222" y="173.347892" style="fill: #ffffff; stroke: #ffffff; stroke-width: 1.35"/>
    </g>
   </g>
   <g id="patch_3">
    <path d="M 36 192.24 
L 36 25.92 
" style="fill: none; stroke: #000000; stroke-width: 0.8; stroke-linejoin: miter; stroke-linecap: square"/>
   </g>
   <g id="patch_4">
    <path d="M 259.2 192.24 
L 259.2 25.92 
" style="fill: none; stroke: #000000; stroke-width: 0.8; stroke-linejoin: miter; stroke-linecap: square"/>
   </g>
   <g id="patch_5">
    <path d="M 36 192.24 
L 259.2 192.24 
" style="fill: none; stroke: #000000; stroke-width: 0.8; stroke-linejoin: miter; stroke-linecap: square"/>
   </g>
   <g id="patch_6">
    <path d="M 36 25.92 
L 259.2 25.92 
" style="fill: none; stroke: #000000; stroke-width: 0.8; stroke-linejoin: miter; stroke-linecap: square"/>
   </g>
  </g>
 </g>
 <defs>
  <clipPath id="pee3e5d76ff">
   <rect x="36" y="25.92" width="223.2" height="166.32"/>
  </clipPath>
 </defs>
</svg>
