<?xml version="1.0" encoding="utf-8" standalone="no"?>
<!DOCTYPE svg PUBLIC "-//W3C//DTD SVG 1.1//EN"
  "http://www.w3.org/Graphics/SVG/1.1/DTD/svg11.dtd">
<svg xmlns:xlink="http://www.w3.org/1999/xlink" width="324pt" height="252pt" viewBox="0 0 324 252" xmlns="http://www.w3.org/2000/svg" version="1.1">
 <metadata>
  <rdf:RDF xmlns:dc="http://purl.org/dc/elements/1.1/" xmlns:cc="http://creativecommons.org/ns#" xmlns:rdf="http://www.w3.org/1999/02/22-rdf-syntax-ns#">
   <cc:Work>
    <dc:type rdf:resource="http://purl.org/dc/dcmitype/StillImage"/>
    <dc:date>2026-02-05T12:28:20.272719</dc:date>
    <dc:format>image/svg+xml</dc:format>
    <dc:creator>
     <cc:Agent>
      <dc:title>Matplotlib v3.9.1, https://matplotlib.org/</dc:title>
     </cc:Agent>
    </dc:creator>
   </cc:Work>
  </rdf:RDF>
 </metadata>
 <defs>
  <style type="text/css">*{stroke-linejoin: round; stroke-linecap: butt}</style>
 </defs>
 <g id="figure_1">
  <g id="patch_1">
   <path d="M 0 252 
L 324 252 
L 324 0 
L 0 0 
z
" style="fill: #ffffff"/>
  </g>
  <g id="axes_1">
   <g id="patch_2">
    <path d="M 40.5 224.28 
L 291.6 224.28 
L 291.6 30.24 
L 40.5 30.24 
z
" style="fill: #ffffff"/>
   </g>
   <g id="PolyCollection_1">
    <defs>
     <path id="me6ce7e1c17" d="M 51.913636 -27.720046 
L 51.913636 -27.72 
L 52.994082 -27.72 
L 54.074528 -27.72 
L 55.154973 -27.72 
L 56.235419 -27.72 
L 57.315865 -27.72 
L 58.39631 -27.72 
L 59.476756 -27.72 
L 60.557202 -27.72 
L 61.637647 -27.72 
L 62.718093 -27.72 
L 63.798539 -27.72 
L 64.878984 -27.72 
L 65.95943 -27.72 
L 67.039876 -27.72 
L 68.120321 -27.72 
L 69.200767 -27.72 
L 70.281213 -27.72 
L 71.361658 -27.72 
L 72.442104 -27.72 
L 73.52255 -27.72 
L 74.602995 -27.72 
L 75.683441 -27.72 
L 76.763887 -27.72 
L 77.844332 -27.72 
L 78.924778 -27.72 
L 80.005224 -27.72 
L 81.085669 -27.72 
L 82.166115 -27.72 
L 83.246561 -27.72 
L 84.327006 -27.72 
L 85.407452 -27.72 
L 86.487898 -27.72 
L 87.568343 -27.72 
L 88.648789 -27.72 
L 89.729235 -27.72 
L 90.80968 -27.72 
L 91.890126 -27.72 
L 92.970572 -27.72 
L 94.051017 -27.72 
L 95.131463 -27.72 
L 96.211909 -27.72 
L 97.292354 -27.72 
L 98.3728 -27.72 
L 99.453246 -27.72 
L 100.533691 -27.72 
L 101.614137 -27.72 
L 102.694583 -27.72 
L 103.775028 -27.72 
L 104.855474 -27.72 
L 105.93592 -27.72 
L 107.016365 -27.72 
L 108.096811 -27.72 
L 109.177257 -27.72 
L 110.257702 -27.72 
L 111.338148 -27.72 
L 112.418594 -27.72 
L 113.49904 -27.72 
L 114.579485 -27.72 
L 115.659931 -27.72 
L 116.740377 -27.72 
L 117.820822 -27.72 
L 118.901268 -27.72 
L 119.981714 -27.72 
L 121.062159 -27.72 
L 122.142605 -27.72 
L 123.223051 -27.72 
L 124.303496 -27.72 
L 125.383942 -27.72 
L 126.464388 -27.72 
L 127.544833 -27.72 
L 128.625279 -27.72 
L 129.705725 -27.72 
L 130.78617 -27.72 
L 131.866616 -27.72 
L 132.947062 -27.72 
L 134.027507 -27.72 
L 135.107953 -27.72 
L 136.188399 -27.72 
L 137.268844 -27.72 
L 138.34929 -27.72 
L 139.429736 -27.72 
L 140.510181 -27.72 
L 141.590627 -27.72 
L 142.671073 -27.72 
L 143.751518 -27.72 
L 144.831964 -27.72 
L 145.91241 -27.72 
L 146.992855 -27.72 
L 148.073301 -27.72 
L 149.153747 -27.72 
L 150.234192 -27.72 
L 151.314638 -27.72 
L 152.395084 -27.72 
L 153.475529 -27.72 
L 154.555975 -27.72 
L 155.636421 -27.72 
L 156.716866 -27.72 
L 157.797312 -27.72 
L 158.877758 -27.72 
L 159.958203 -27.72 
L 161.038649 -27.72 
L 162.119095 -27.72 
L 163.19954 -27.72 
L 164.279986 -27.72 
L 165.360432 -27.72 
L 166.440877 -27.72 
L 167.521323 -27.72 
L 168.601769 -27.72 
L 169.682214 -27.72 
L 170.76266 -27.72 
L 171.843106 -27.72 
L 172.923551 -27.72 
L 174.003997 -27.72 
L 175.084443 -27.72 
L 176.164888 -27.72 
L 177.245334 -27.72 
L 178.32578 -27.72 
L 179.406225 -27.72 
L 180.486671 -27.72 
L 181.567117 -27.72 
L 182.647562 -27.72 
L 183.728008 -27.72 
L 184.808454 -27.72 
L 185.888899 -27.72 
L 186.969345 -27.72 
L 188.049791 -27.72 
L 189.130236 -27.72 
L 190.210682 -27.72 
L 191.291128 -27.72 
L 192.371573 -27.72 
L 193.452019 -27.72 
L 194.532465 -27.72 
L 195.61291 -27.72 
L 196.693356 -27.72 
L 197.773802 -27.72 
L 198.854247 -27.72 
L 199.934693 -27.72 
L 201.015139 -27.72 
L 202.095584 -27.72 
L 203.17603 -27.72 
L 204.256476 -27.72 
L 205.336921 -27.72 
L 206.417367 -27.72 
L 207.497813 -27.72 
L 208.578258 -27.72 
L 209.658704 -27.72 
L 210.73915 -27.72 
L 211.819595 -27.72 
L 212.900041 -27.72 
L 213.980487 -27.72 
L 215.060932 -27.72 
L 216.141378 -27.72 
L 217.221824 -27.72 
L 218.302269 -27.72 
L 219.382715 -27.72 
L 220.463161 -27.72 
L 221.543606 -27.72 
L 222.624052 -27.72 
L 223.704498 -27.72 
L 224.784943 -27.72 
L 225.865389 -27.72 
L 226.945835 -27.72 
L 228.02628 -27.72 
L 229.106726 -27.72 
L 230.187172 -27.72 
L 231.267617 -27.72 
L 232.348063 -27.72 
L 233.428509 -27.72 
L 234.508954 -27.72 
L 235.5894 -27.72 
L 236.669846 -27.72 
L 237.750291 -27.72 
L 238.830737 -27.72 
L 239.911183 -27.72 
L 240.991628 -27.72 
L 242.072074 -27.72 
L 243.15252 -27.72 
L 244.232965 -27.72 
L 245.313411 -27.72 
L 246.393857 -27.72 
L 247.474302 -27.72 
L 248.554748 -27.72 
L 249.635194 -27.72 
L 250.715639 -27.72 
L 251.796085 -27.72 
L 252.876531 -27.72 
L 253.956977 -27.72 
L 255.037422 -27.72 
L 256.117868 -27.72 
L 257.198314 -27.72 
L 258.278759 -27.72 
L 259.359205 -27.72 
L 260.439651 -27.72 
L 261.520096 -27.72 
L 262.600542 -27.72 
L 263.680988 -27.72 
L 264.761433 -27.72 
L 265.841879 -27.72 
L 266.922325 -27.72 
L 266.922325 -27.720045 
L 266.922325 -27.720045 
L 265.841879 -27.720572 
L 264.761433 -27.722565 
L 263.680988 -27.724119 
L 262.600542 -27.722852 
L 261.520096 -27.723302 
L 260.439651 -27.727116 
L 259.359205 -27.732147 
L 258.278759 -27.735874 
L 257.198314 -27.737471 
L 256.117868 -27.73726 
L 255.037422 -27.73422 
L 253.956977 -27.737006 
L 252.876531 -27.750831 
L 251.796085 -27.755696 
L 250.715639 -27.747068 
L 249.635194 -27.743051 
L 248.554748 -27.74558 
L 247.474302 -27.746806 
L 246.393857 -27.739662 
L 245.313411 -27.736222 
L 244.232965 -27.742506 
L 243.15252 -27.757366 
L 242.072074 -27.770328 
L 240.991628 -27.765635 
L 239.911183 -27.751368 
L 238.830737 -27.750859 
L 237.750291 -27.760315 
L 236.669846 -27.76056 
L 235.5894 -27.752261 
L 234.508954 -27.744228 
L 233.428509 -27.742548 
L 232.348063 -27.746925 
L 231.267617 -27.751867 
L 230.187172 -27.758123 
L 229.106726 -27.76755 
L 228.02628 -27.779491 
L 226.945835 -27.793141 
L 225.865389 -27.809124 
L 224.784943 -27.8043 
L 223.704498 -27.790219 
L 222.624052 -27.788783 
L 221.543606 -27.788605 
L 220.463161 -27.784094 
L 219.382715 -27.778133 
L 218.302269 -27.774463 
L 217.221824 -27.779039 
L 216.141378 -27.800154 
L 215.060932 -27.826293 
L 213.980487 -27.828684 
L 212.900041 -27.81175 
L 211.819595 -27.81019 
L 210.73915 -27.823141 
L 209.658704 -27.830983 
L 208.578258 -27.835528 
L 207.497813 -27.857862 
L 206.417367 -27.880567 
L 205.336921 -27.886399 
L 204.256476 -27.881376 
L 203.17603 -27.87967 
L 202.095584 -27.88095 
L 201.015139 -27.862689 
L 199.934693 -27.844154 
L 198.854247 -27.841335 
L 197.773802 -27.844286 
L 196.693356 -27.841035 
L 195.61291 -27.847793 
L 194.532465 -27.860955 
L 193.452019 -27.877724 
L 192.371573 -27.90938 
L 191.291128 -27.931246 
L 190.210682 -27.94544 
L 189.130236 -27.97327 
L 188.049791 -28.000315 
L 186.969345 -28.038399 
L 185.888899 -28.085583 
L 184.808454 -28.120177 
L 183.728008 -28.146653 
L 182.647562 -28.164854 
L 181.567117 -28.213194 
L 180.486671 -28.264329 
L 179.406225 -28.306315 
L 178.32578 -28.389819 
L 177.245334 -28.452308 
L 176.164888 -28.45127 
L 175.084443 -28.459507 
L 174.003997 -28.518668 
L 172.923551 -28.56706 
L 171.843106 -28.554446 
L 170.76266 -28.57258 
L 169.682214 -28.63571 
L 168.601769 -28.682876 
L 167.521323 -28.73742 
L 166.440877 -28.788912 
L 165.360432 -28.810738 
L 164.279986 -28.86952 
L 163.19954 -28.995363 
L 162.119095 -29.103081 
L 161.038649 -29.186098 
L 159.958203 -29.248442 
L 158.877758 -29.272744 
L 157.797312 -29.332161 
L 156.716866 -29.429492 
L 155.636421 -29.590084 
L 154.555975 -29.778269 
L 153.475529 -29.923583 
L 152.395084 -30.054961 
L 151.314638 -30.250673 
L 150.234192 -30.48973 
L 149.153747 -30.705568 
L 148.073301 -30.957608 
L 146.992855 -31.400324 
L 145.91241 -31.986694 
L 144.831964 -32.584267 
L 143.751518 -33.146716 
L 142.671073 -33.614347 
L 141.590627 -34.159368 
L 140.510181 -34.827355 
L 139.429736 -35.604209 
L 138.34929 -36.539499 
L 137.268844 -37.588943 
L 136.188399 -38.79157 
L 135.107953 -40.378324 
L 134.027507 -42.318983 
L 132.947062 -44.155808 
L 131.866616 -45.80923 
L 130.78617 -47.819418 
L 129.705725 -50.614488 
L 128.625279 -53.877993 
L 127.544833 -57.43218 
L 126.464388 -61.570383 
L 125.383942 -66.074418 
L 124.303496 -70.76553 
L 123.223051 -76.220198 
L 122.142605 -82.489054 
L 121.062159 -89.85883 
L 119.981714 -98.687176 
L 118.901268 -108.232282 
L 117.820822 -117.587907 
L 116.740377 -127.636426 
L 115.659931 -139.563885 
L 114.579485 -151.648646 
L 113.49904 -162.656876 
L 112.418594 -173.664511 
L 111.338148 -184.630501 
L 110.257702 -194.842723 
L 109.177257 -203.268022 
L 108.096811 -208.836691 
L 107.016365 -211.423305 
L 105.93592 -211.64291 
L 104.855474 -210.833541 
L 103.775028 -208.245873 
L 102.694583 -202.924805 
L 101.614137 -195.467694 
L 100.533691 -186.6198 
L 99.453246 -176.786387 
L 98.3728 -167.254208 
L 97.292354 -158.184097 
L 96.211909 -149.009923 
L 95.131463 -140.336584 
L 94.051017 -132.417758 
L 92.970572 -124.442615 
L 91.890126 -116.437205 
L 90.80968 -108.890243 
L 89.729235 -101.35552 
L 88.648789 -94.271506 
L 87.568343 -88.227395 
L 86.487898 -82.892219 
L 85.407452 -77.830239 
L 84.327006 -72.760287 
L 83.246561 -67.940231 
L 82.166115 -63.898474 
L 81.085669 -60.413011 
L 80.005224 -57.120197 
L 78.924778 -53.789218 
L 77.844332 -50.361429 
L 76.763887 -47.451302 
L 75.683441 -45.007907 
L 74.602995 -42.837615 
L 73.52255 -40.898138 
L 72.442104 -38.977735 
L 71.361658 -37.041918 
L 70.281213 -35.273486 
L 69.200767 -33.912951 
L 68.120321 -33.042141 
L 67.039876 -32.296157 
L 65.95943 -31.383964 
L 64.878984 -30.470031 
L 63.798539 -29.743011 
L 62.718093 -29.15115 
L 61.637647 -28.674865 
L 60.557202 -28.311759 
L 59.476756 -28.074883 
L 58.39631 -27.930118 
L 57.315865 -27.827533 
L 56.235419 -27.761202 
L 55.154973 -27.73247 
L 54.074528 -27.723443 
L 52.994082 -27.720611 
L 51.913636 -27.720046 
z
" style="stroke: #d62728"/>
    </defs>
    <g clip-path="url(#p34a7f116e7)">
     <use xlink:href="#me6ce7e1c17" x="0" y="252" style="fill: #d62728; fill-opacity: 0.25; stroke: #d62728"/>
    </g>
   </g>
   <g id="PolyCollection_2">
    <defs>
     <path id="m5d6dfa8fce" d="M 63.05719 -27.720073 
L 63.05719 -27.72 
L 64.025658 -27.72 
L 64.994125 -27.72 
L 65.962592 -27.72 
L 66.931059 -27.72 
L 67.899527 -27.72 
L 68.867994 -27.72 
L 69.836461 -27.72 
L 70.804928 -27.72 
L 71.773395 -27.72 
L 72.741863 -27.72 
L 73.71033 -27.72 
L 74.678797 -27.72 
L 75.647264 -27.72 
L 76.615731 -27.72 
L 77.584199 -27.72 
L 78.552666 -27.72 
L 79.521133 -27.72 
L 80.4896 -27.72 
L 81.458068 -27.72 
L 82.426535 -27.72 
L 83.395002 -27.72 
L 84.363469 -27.72 
L 85.331936 -27.72 
L 86.300404 -27.72 
L 87.268871 -27.72 
L 88.237338 -27.72 
L 89.205805 -27.72 
L 90.174273 -27.72 
L 91.14274 -27.72 
L 92.111207 -27.72 
L 93.079674 -27.72 
L 94.048141 -27.72 
L 95.016609 -27.72 
L 95.985076 -27.72 
L 96.953543 -27.72 
L 97.92201 -27.72 
L 98.890478 -27.72 
L 99.858945 -27.72 
L 100.827412 -27.72 
L 101.795879 -27.72 
L 102.764346 -27.72 
L 103.732814 -27.72 
L 104.701281 -27.72 
L 105.669748 -27.72 
L 106.638215 -27.72 
L 107.606682 -27.72 
L 108.57515 -27.72 
L 109.543617 -27.72 
L 110.512084 -27.72 
L 111.480551 -27.72 
L 112.449019 -27.72 
L 113.417486 -27.72 
L 114.385953 -27.72 
L 115.35442 -27.72 
L 116.322887 -27.72 
L 117.291355 -27.72 
L 118.259822 -27.72 
L 119.228289 -27.72 
L 120.196756 -27.72 
L 121.165224 -27.72 
L 122.133691 -27.72 
L 123.102158 -27.72 
L 124.070625 -27.72 
L 125.039092 -27.72 
L 126.00756 -27.72 
L 126.976027 -27.72 
L 127.944494 -27.72 
L 128.912961 -27.72 
L 129.881429 -27.72 
L 130.849896 -27.72 
L 131.818363 -27.72 
L 132.78683 -27.72 
L 133.755297 -27.72 
L 134.723765 -27.72 
L 135.692232 -27.72 
L 136.660699 -27.72 
L 137.629166 -27.72 
L 138.597633 -27.72 
L 139.566101 -27.72 
L 140.534568 -27.72 
L 141.503035 -27.72 
L 142.471502 -27.72 
L 143.43997 -27.72 
L 144.408437 -27.72 
L 145.376904 -27.72 
L 146.345371 -27.72 
L 147.313838 -27.72 
L 148.282306 -27.72 
L 149.250773 -27.72 
L 150.21924 -27.72 
L 151.187707 -27.72 
L 152.156175 -27.72 
L 153.124642 -27.72 
L 154.093109 -27.72 
L 155.061576 -27.72 
L 156.030043 -27.72 
L 156.998511 -27.72 
L 157.966978 -27.72 
L 158.935445 -27.72 
L 159.903912 -27.72 
L 160.87238 -27.72 
L 161.840847 -27.72 
L 162.809314 -27.72 
L 163.777781 -27.72 
L 164.746248 -27.72 
L 165.714716 -27.72 
L 166.683183 -27.72 
L 167.65165 -27.72 
L 168.620117 -27.72 
L 169.588584 -27.72 
L 170.557052 -27.72 
L 171.525519 -27.72 
L 172.493986 -27.72 
L 173.462453 -27.72 
L 174.430921 -27.72 
L 175.399388 -27.72 
L 176.367855 -27.72 
L 177.336322 -27.72 
L 178.304789 -27.72 
L 179.273257 -27.72 
L 180.241724 -27.72 
L 181.210191 -27.72 
L 182.178658 -27.72 
L 183.147126 -27.72 
L 184.115593 -27.72 
L 185.08406 -27.72 
L 186.052527 -27.72 
L 187.020994 -27.72 
L 187.989462 -27.72 
L 188.957929 -27.72 
L 189.926396 -27.72 
L 190.894863 -27.72 
L 191.863331 -27.72 
L 192.831798 -27.72 
L 193.800265 -27.72 
L 194.768732 -27.72 
L 195.737199 -27.72 
L 196.705667 -27.72 
L 197.674134 -27.72 
L 198.642601 -27.72 
L 199.611068 -27.72 
L 200.579535 -27.72 
L 201.548003 -27.72 
L 202.51647 -27.72 
L 203.484937 -27.72 
L 204.453404 -27.72 
L 205.421872 -27.72 
L 206.390339 -27.72 
L 207.358806 -27.72 
L 208.327273 -27.72 
L 209.29574 -27.72 
L 210.264208 -27.72 
L 211.232675 -27.72 
L 212.201142 -27.72 
L 213.169609 -27.72 
L 214.138077 -27.72 
L 215.106544 -27.72 
L 216.075011 -27.72 
L 217.043478 -27.72 
L 218.011945 -27.72 
L 218.980413 -27.72 
L 219.94888 -27.72 
L 220.917347 -27.72 
L 221.885814 -27.72 
L 222.854282 -27.72 
L 223.822749 -27.72 
L 224.791216 -27.72 
L 225.759683 -27.72 
L 226.72815 -27.72 
L 227.696618 -27.72 
L 228.665085 -27.72 
L 229.633552 -27.72 
L 230.602019 -27.72 
L 231.570486 -27.72 
L 232.538954 -27.72 
L 233.507421 -27.72 
L 234.475888 -27.72 
L 235.444355 -27.72 
L 236.412823 -27.72 
L 237.38129 -27.72 
L 238.349757 -27.72 
L 239.318224 -27.72 
L 240.286691 -27.72 
L 241.255159 -27.72 
L 242.223626 -27.72 
L 243.192093 -27.72 
L 244.16056 -27.72 
L 245.129028 -27.72 
L 246.097495 -27.72 
L 247.065962 -27.72 
L 248.034429 -27.72 
L 249.002896 -27.72 
L 249.971364 -27.72 
L 250.939831 -27.72 
L 251.908298 -27.72 
L 252.876765 -27.72 
L 253.845233 -27.72 
L 254.8137 -27.72 
L 255.782167 -27.72 
L 255.782167 -27.720046 
L 255.782167 -27.720046 
L 254.8137 -27.720466 
L 253.845233 -27.72227 
L 252.876765 -27.725666 
L 251.908298 -27.728448 
L 250.939831 -27.730201 
L 249.971364 -27.731929 
L 249.002896 -27.731485 
L 248.034429 -27.7291 
L 247.065962 -27.727186 
L 246.097495 -27.727196 
L 245.129028 -27.728808 
L 244.16056 -27.729453 
L 243.192093 -27.728832 
L 242.223626 -27.732346 
L 241.255159 -27.742235 
L 240.286691 -27.746909 
L 239.318224 -27.741813 
L 238.349757 -27.738634 
L 237.38129 -27.738141 
L 236.412823 -27.736387 
L 235.444355 -27.733156 
L 234.475888 -27.729564 
L 233.507421 -27.728019 
L 232.538954 -27.726919 
L 231.570486 -27.724569 
L 230.602019 -27.724864 
L 229.633552 -27.730532 
L 228.665085 -27.735115 
L 227.696618 -27.733429 
L 226.72815 -27.731175 
L 225.759683 -27.733881 
L 224.791216 -27.739091 
L 223.822749 -27.73956 
L 222.854282 -27.739391 
L 221.885814 -27.746857 
L 220.917347 -27.755592 
L 219.94888 -27.759482 
L 218.980413 -27.763971 
L 218.011945 -27.768912 
L 217.043478 -27.769953 
L 216.075011 -27.770168 
L 215.106544 -27.777588 
L 214.138077 -27.797121 
L 213.169609 -27.816062 
L 212.201142 -27.816931 
L 211.232675 -27.80704 
L 210.264208 -27.803834 
L 209.29574 -27.806887 
L 208.327273 -27.813031 
L 207.358806 -27.818573 
L 206.390339 -27.818933 
L 205.421872 -27.821982 
L 204.453404 -27.84294 
L 203.484937 -27.87432 
L 202.51647 -27.888446 
L 201.548003 -27.890724 
L 200.579535 -27.899007 
L 199.611068 -27.913528 
L 198.642601 -27.934996 
L 197.674134 -27.960344 
L 196.705667 -27.984741 
L 195.737199 -28.01485 
L 194.768732 -28.04136 
L 193.800265 -28.053531 
L 192.831798 -28.060638 
L 191.863331 -28.074134 
L 190.894863 -28.09267 
L 189.926396 -28.128782 
L 188.957929 -28.179514 
L 187.989462 -28.219132 
L 187.020994 -28.256236 
L 186.052527 -28.336667 
L 185.08406 -28.454172 
L 184.115593 -28.57388 
L 183.147126 -28.679188 
L 182.178658 -28.741092 
L 181.210191 -28.765202 
L 180.241724 -28.826598 
L 179.273257 -28.946698 
L 178.304789 -29.019139 
L 177.336322 -29.028663 
L 176.367855 -29.097464 
L 175.399388 -29.229083 
L 174.430921 -29.324436 
L 173.462453 -29.407714 
L 172.493986 -29.524265 
L 171.525519 -29.611149 
L 170.557052 -29.668778 
L 169.588584 -29.816056 
L 168.620117 -30.037238 
L 167.65165 -30.197557 
L 166.683183 -30.305549 
L 165.714716 -30.463886 
L 164.746248 -30.656382 
L 163.777781 -30.843595 
L 162.809314 -31.060833 
L 161.840847 -31.316059 
L 160.87238 -31.520603 
L 159.903912 -31.686593 
L 158.935445 -31.957638 
L 157.966978 -32.293229 
L 156.998511 -32.569699 
L 156.030043 -32.831222 
L 155.061576 -33.152429 
L 154.093109 -33.563352 
L 153.124642 -34.092536 
L 152.156175 -34.643636 
L 151.187707 -35.105568 
L 150.21924 -35.62047 
L 149.250773 -36.295659 
L 148.282306 -37.037649 
L 147.313838 -37.897348 
L 146.345371 -38.914281 
L 145.376904 -40.002725 
L 144.408437 -41.084447 
L 143.43997 -42.249516 
L 142.471502 -43.671101 
L 141.503035 -45.194009 
L 140.534568 -46.745643 
L 139.566101 -48.568248 
L 138.597633 -50.709859 
L 137.629166 -53.172399 
L 136.660699 -55.794342 
L 135.692232 -58.322583 
L 134.723765 -61.07658 
L 133.755297 -64.365876 
L 132.78683 -68.112043 
L 131.818363 -72.141906 
L 130.849896 -76.314225 
L 129.881429 -80.77766 
L 128.912961 -85.628242 
L 127.944494 -90.825656 
L 126.976027 -96.634338 
L 126.00756 -103.142233 
L 125.039092 -110.032148 
L 124.070625 -117.335793 
L 123.102158 -125.107266 
L 122.133691 -132.971545 
L 121.165224 -140.983943 
L 120.196756 -149.18963 
L 119.228289 -156.816795 
L 118.259822 -163.729167 
L 117.291355 -170.78982 
L 116.322887 -177.887897 
L 115.35442 -183.928374 
L 114.385953 -188.936551 
L 113.417486 -193.396575 
L 112.449019 -196.994617 
L 111.480551 -199.675971 
L 110.512084 -201.224377 
L 109.543617 -200.909259 
L 108.57515 -198.964596 
L 107.606682 -196.14025 
L 106.638215 -191.950613 
L 105.669748 -186.233595 
L 104.701281 -179.79822 
L 103.732814 -172.889156 
L 102.764346 -165.349123 
L 101.795879 -157.058856 
L 100.827412 -148.075998 
L 99.858945 -138.855701 
L 98.890478 -129.966132 
L 97.92201 -121.439869 
L 96.953543 -113.315668 
L 95.985076 -105.712338 
L 95.016609 -98.394378 
L 94.048141 -91.279636 
L 93.079674 -84.403689 
L 92.111207 -77.987456 
L 91.14274 -72.225062 
L 90.174273 -66.925883 
L 89.205805 -61.987281 
L 88.237338 -57.526334 
L 87.268871 -53.740552 
L 86.300404 -50.633755 
L 85.331936 -47.846277 
L 84.363469 -45.142662 
L 83.395002 -42.56491 
L 82.426535 -40.12114 
L 81.458068 -37.848894 
L 80.4896 -35.917897 
L 79.521133 -34.343969 
L 78.552666 -32.969759 
L 77.584199 -31.685244 
L 76.615731 -30.592675 
L 75.647264 -29.784482 
L 74.678797 -29.201175 
L 73.71033 -28.779107 
L 72.741863 -28.480607 
L 71.773395 -28.263818 
L 70.804928 -28.093942 
L 69.836461 -27.97167 
L 68.867994 -27.889835 
L 67.899527 -27.829833 
L 66.931059 -27.783155 
L 65.962592 -27.746655 
L 64.994125 -27.726846 
L 64.025658 -27.720973 
L 63.05719 -27.720073 
z
" style="stroke: #2ca02c"/>
    </defs>
    <g clip-path="url(#p34a7f116e7)">
     <use xlink:href="#m5d6dfa8fce" x="0" y="252" style="fill: #2ca02c; fill-opacity: 0.25; stroke: #2ca02c"/>
    </g>
   </g>
   <g id="PolyCollection_3">
    <defs>
     <path id="med3c2589c3" d="M 68.55849 -27.720036 
L 68.55849 -27.72 
L 69.621947 -27.72 
L 70.685403 -27.72 
L 71.74886 -27.72 
L 72.812317 -27.72 
L 73.875773 -27.72 
L 74.93923 -27.72 
L 76.002687 -27.72 
L 77.066143 -27.72 
L 78.1296 -27.72 
L 79.193057 -27.72 
L 80.256513 -27.72 
L 81.31997 -27.72 
L 82.383427 -27.72 
L 83.446883 -27.72 
L 84.51034 -27.72 
L 85.573796 -27.72 
L 86.637253 -27.72 
L 87.70071 -27.72 
L 88.764166 -27.72 
L 89.827623 -27.72 
L 90.89108 -27.72 
L 91.954536 -27.72 
L 93.017993 -27.72 
L 94.08145 -27.72 
L 95.144906 -27.72 
L 96.208363 -27.72 
L 97.27182 -27.72 
L 98.335276 -27.72 
L 99.398733 -27.72 
L 100.46219 -27.72 
L 101.525646 -27.72 
L 102.589103 -27.72 
L 103.65256 -27.72 
L 104.716016 -27.72 
L 105.779473 -27.72 
L 106.84293 -27.72 
L 107.906386 -27.72 
L 108.969843 -27.72 
L 110.033299 -27.72 
L 111.096756 -27.72 
L 112.160213 -27.72 
L 113.223669 -27.72 
L 114.287126 -27.72 
L 115.350583 -27.72 
L 116.414039 -27.72 
L 117.477496 -27.72 
L 118.540953 -27.72 
L 119.604409 -27.72 
L 120.667866 -27.72 
L 121.731323 -27.72 
L 122.794779 -27.72 
L 123.858236 -27.72 
L 124.921693 -27.72 
L 125.985149 -27.72 
L 127.048606 -27.72 
L 128.112063 -27.72 
L 129.175519 -27.72 
L 130.238976 -27.72 
L 131.302432 -27.72 
L 132.365889 -27.72 
L 133.429346 -27.72 
L 134.492802 -27.72 
L 135.556259 -27.72 
L 136.619716 -27.72 
L 137.683172 -27.72 
L 138.746629 -27.72 
L 139.810086 -27.72 
L 140.873542 -27.72 
L 141.936999 -27.72 
L 143.000456 -27.72 
L 144.063912 -27.72 
L 145.127369 -27.72 
L 146.190826 -27.72 
L 147.254282 -27.72 
L 148.317739 -27.72 
L 149.381196 -27.72 
L 150.444652 -27.72 
L 151.508109 -27.72 
L 152.571565 -27.72 
L 153.635022 -27.72 
L 154.698479 -27.72 
L 155.761935 -27.72 
L 156.825392 -27.72 
L 157.888849 -27.72 
L 158.952305 -27.72 
L 160.015762 -27.72 
L 161.079219 -27.72 
L 162.142675 -27.72 
L 163.206132 -27.72 
L 164.269589 -27.72 
L 165.333045 -27.72 
L 166.396502 -27.72 
L 167.459959 -27.72 
L 168.523415 -27.72 
L 169.586872 -27.72 
L 170.650329 -27.72 
L 171.713785 -27.72 
L 172.777242 -27.72 
L 173.840699 -27.72 
L 174.904155 -27.72 
L 175.967612 -27.72 
L 177.031068 -27.72 
L 178.094525 -27.72 
L 179.157982 -27.72 
L 180.221438 -27.72 
L 181.284895 -27.72 
L 182.348352 -27.72 
L 183.411808 -27.72 
L 184.475265 -27.72 
L 185.538722 -27.72 
L 186.602178 -27.72 
L 187.665635 -27.72 
L 188.729092 -27.72 
L 189.792548 -27.72 
L 190.856005 -27.72 
L 191.919462 -27.72 
L 192.982918 -27.72 
L 194.046375 -27.72 
L 195.109832 -27.72 
L 196.173288 -27.72 
L 197.236745 -27.72 
L 198.300201 -27.72 
L 199.363658 -27.72 
L 200.427115 -27.72 
L 201.490571 -27.72 
L 202.554028 -27.72 
L 203.617485 -27.72 
L 204.680941 -27.72 
L 205.744398 -27.72 
L 206.807855 -27.72 
L 207.871311 -27.72 
L 208.934768 -27.72 
L 209.998225 -27.72 
L 211.061681 -27.72 
L 212.125138 -27.72 
L 213.188595 -27.72 
L 214.252051 -27.72 
L 215.315508 -27.72 
L 216.378965 -27.72 
L 217.442421 -27.72 
L 218.505878 -27.72 
L 219.569335 -27.72 
L 220.632791 -27.72 
L 221.696248 -27.72 
L 222.759704 -27.72 
L 223.823161 -27.72 
L 224.886618 -27.72 
L 225.950074 -27.72 
L 227.013531 -27.72 
L 228.076988 -27.72 
L 229.140444 -27.72 
L 230.203901 -27.72 
L 231.267358 -27.72 
L 232.330814 -27.72 
L 233.394271 -27.72 
L 234.457728 -27.72 
L 235.521184 -27.72 
L 236.584641 -27.72 
L 237.648098 -27.72 
L 238.711554 -27.72 
L 239.775011 -27.72 
L 240.838468 -27.72 
L 241.901924 -27.72 
L 242.965381 -27.72 
L 244.028837 -27.72 
L 245.092294 -27.72 
L 246.155751 -27.72 
L 247.219207 -27.72 
L 248.282664 -27.72 
L 249.346121 -27.72 
L 250.409577 -27.72 
L 251.473034 -27.72 
L 252.536491 -27.72 
L 253.599947 -27.72 
L 254.663404 -27.72 
L 255.726861 -27.72 
L 256.790317 -27.72 
L 257.853774 -27.72 
L 258.917231 -27.72 
L 259.980687 -27.72 
L 261.044144 -27.72 
L 262.107601 -27.72 
L 263.171057 -27.72 
L 264.234514 -27.72 
L 265.297971 -27.72 
L 266.361427 -27.72 
L 267.424884 -27.72 
L 268.48834 -27.72 
L 269.551797 -27.72 
L 270.615254 -27.72 
L 271.67871 -27.72 
L 272.742167 -27.72 
L 273.805624 -27.72 
L 274.86908 -27.72 
L 275.932537 -27.72 
L 276.995994 -27.72 
L 278.05945 -27.72 
L 279.122907 -27.72 
L 280.186364 -27.72 
L 280.186364 -27.720352 
L 280.186364 -27.720352 
L 279.122907 -27.723147 
L 278.05945 -27.735744 
L 276.995994 -27.765786 
L 275.932537 -27.804778 
L 274.86908 -27.839626 
L 273.805624 -27.875792 
L 272.742167 -27.913153 
L 271.67871 -27.93704 
L 270.615254 -27.948962 
L 269.551797 -27.971573 
L 268.48834 -28.008233 
L 267.424884 -28.029725 
L 266.361427 -28.021441 
L 265.297971 -28.01034 
L 264.234514 -28.018911 
L 263.171057 -28.028792 
L 262.107601 -28.024848 
L 261.044144 -28.019129 
L 259.980687 -28.028325 
L 258.917231 -28.056726 
L 257.853774 -28.080733 
L 256.790317 -28.080719 
L 255.726861 -28.07287 
L 254.663404 -28.067976 
L 253.599947 -28.059432 
L 252.536491 -28.050098 
L 251.473034 -28.050725 
L 250.409577 -28.063135 
L 249.346121 -28.072955 
L 248.282664 -28.080569 
L 247.219207 -28.099817 
L 246.155751 -28.12339 
L 245.092294 -28.145883 
L 244.028837 -28.17753 
L 242.965381 -28.212414 
L 241.901924 -28.238383 
L 240.838468 -28.257068 
L 239.775011 -28.262937 
L 238.711554 -28.253597 
L 237.648098 -28.242986 
L 236.584641 -28.242237 
L 235.521184 -28.251718 
L 234.457728 -28.27924 
L 233.394271 -28.336231 
L 232.330814 -28.404728 
L 231.267358 -28.448933 
L 230.203901 -28.460237 
L 229.140444 -28.460564 
L 228.076988 -28.470869 
L 227.013531 -28.488328 
L 225.950074 -28.515676 
L 224.886618 -28.564108 
L 223.823161 -28.610404 
L 222.759704 -28.627642 
L 221.696248 -28.636071 
L 220.632791 -28.664022 
L 219.569335 -28.693494 
L 218.505878 -28.708084 
L 217.442421 -28.744822 
L 216.378965 -28.817121 
L 215.315508 -28.875863 
L 214.252051 -28.896357 
L 213.188595 -28.914942 
L 212.125138 -28.979661 
L 211.061681 -29.071285 
L 209.998225 -29.122619 
L 208.934768 -29.131875 
L 207.871311 -29.132144 
L 206.807855 -29.130022 
L 205.744398 -29.145331 
L 204.680941 -29.189688 
L 203.617485 -29.237573 
L 202.554028 -29.263974 
L 201.490571 -29.263016 
L 200.427115 -29.255625 
L 199.363658 -29.281659 
L 198.300201 -29.360128 
L 197.236745 -29.46372 
L 196.173288 -29.569549 
L 195.109832 -29.693218 
L 194.046375 -29.832472 
L 192.982918 -29.948564 
L 191.919462 -30.015922 
L 190.856005 -30.068123 
L 189.792548 -30.130803 
L 188.729092 -30.182065 
L 187.665635 -30.239817 
L 186.602178 -30.350939 
L 185.538722 -30.511821 
L 184.475265 -30.682756 
L 183.411808 -30.864264 
L 182.348352 -31.080401 
L 181.284895 -31.322001 
L 180.221438 -31.549967 
L 179.157982 -31.747554 
L 178.094525 -31.947826 
L 177.031068 -32.166122 
L 175.967612 -32.426674 
L 174.904155 -32.765114 
L 173.840699 -33.153002 
L 172.777242 -33.558096 
L 171.713785 -33.954401 
L 170.650329 -34.334055 
L 169.586872 -34.775434 
L 168.523415 -35.299625 
L 167.459959 -35.835547 
L 166.396502 -36.37374 
L 165.333045 -36.909576 
L 164.269589 -37.424554 
L 163.206132 -38.007793 
L 162.142675 -38.754113 
L 161.079219 -39.604199 
L 160.015762 -40.457304 
L 158.952305 -41.354804 
L 157.888849 -42.417344 
L 156.825392 -43.711009 
L 155.761935 -45.138551 
L 154.698479 -46.553485 
L 153.635022 -47.986449 
L 152.571565 -49.594079 
L 151.508109 -51.434129 
L 150.444652 -53.358388 
L 149.381196 -55.328592 
L 148.317739 -57.550596 
L 147.254282 -60.223391 
L 146.190826 -63.369025 
L 145.127369 -66.901072 
L 144.063912 -70.798934 
L 143.000456 -75.051903 
L 141.936999 -79.630532 
L 140.873542 -84.671108 
L 139.810086 -90.427425 
L 138.746629 -96.98273 
L 137.683172 -104.371996 
L 136.619716 -112.707672 
L 135.556259 -121.848202 
L 134.492802 -131.288081 
L 133.429346 -140.601413 
L 132.365889 -150.049093 
L 131.302432 -160.173095 
L 130.238976 -170.799513 
L 129.175519 -181.12434 
L 128.112063 -190.505201 
L 127.048606 -198.717038 
L 125.985149 -205.620255 
L 124.921693 -210.500128 
L 123.858236 -212.52 
L 122.794779 -211.517437 
L 121.731323 -207.649841 
L 120.667866 -201.241718 
L 119.604409 -192.862815 
L 118.540953 -183.366759 
L 117.477496 -173.412876 
L 116.414039 -162.867993 
L 115.350583 -151.725952 
L 114.287126 -140.541935 
L 113.223669 -129.446185 
L 112.160213 -118.507731 
L 111.096756 -108.521158 
L 110.033299 -100.068254 
L 108.969843 -92.77065 
L 107.906386 -85.979358 
L 106.84293 -79.490719 
L 105.779473 -73.641596 
L 104.716016 -68.795071 
L 103.65256 -64.785393 
L 102.589103 -61.225999 
L 101.525646 -57.9286 
L 100.46219 -54.776327 
L 99.398733 -51.727964 
L 98.335276 -48.862999 
L 97.27182 -46.297738 
L 96.208363 -44.131931 
L 95.144906 -42.32196 
L 94.08145 -40.819504 
L 93.017993 -39.633149 
L 91.954536 -38.569786 
L 90.89108 -37.436781 
L 89.827623 -36.27616 
L 88.764166 -35.164828 
L 87.70071 -34.136337 
L 86.637253 -33.161357 
L 85.573796 -32.170952 
L 84.51034 -31.179895 
L 83.446883 -30.264878 
L 82.383427 -29.472995 
L 81.31997 -28.835685 
L 80.256513 -28.378856 
L 79.193057 -28.091912 
L 78.1296 -27.927622 
L 77.066143 -27.836708 
L 76.002687 -27.786176 
L 74.93923 -27.757664 
L 73.875773 -27.740479 
L 72.812317 -27.72996 
L 71.74886 -27.724211 
L 70.685403 -27.72138 
L 69.621947 -27.720294 
L 68.55849 -27.720036 
z
" style="stroke: #ff7f0e"/>
    </defs>
    <g clip-path="url(#p34a7f116e7)">
     <use xlink:href="#med3c2589c3" x="0" y="252" style="fill: #ff7f0e; fill-opacity: 0.25; stroke: #ff7f0e"/>
    </g>
   </g>
   <g id="PolyCollection_4">
    <defs>
     <path id="mfdf4fcc091" d="M 56.468049 -27.720056 
L 56.468049 -27.72 
L 57.578578 -27.72 
L 58.689107 -27.72 
L 59.799636 -27.72 
L 60.910165 -27.72 
L 62.020693 -27.72 
L 63.131222 -27.72 
L 64.241751 -27.72 
L 65.35228 -27.72 
L 66.462809 -27.72 
L 67.573338 -27.72 
L 68.683866 -27.72 
L 69.794395 -27.72 
L 70.904924 -27.72 
L 72.015453 -27.72 
L 73.125982 -27.72 
L 74.236511 -27.72 
L 75.347039 -27.72 
L 76.457568 -27.72 
L 77.568097 -27.72 
L 78.678626 -27.72 
L 79.789155 -27.72 
L 80.899684 -27.72 
L 82.010212 -27.72 
L 83.120741 -27.72 
L 84.23127 -27.72 
L 85.341799 -27.72 
L 86.452328 -27.72 
L 87.562856 -27.72 
L 88.673385 -27.72 
L 89.783914 -27.72 
L 90.894443 -27.72 
L 92.004972 -27.72 
L 93.115501 -27.72 
L 94.226029 -27.72 
L 95.336558 -27.72 
L 96.447087 -27.72 
L 97.557616 -27.72 
L 98.668145 -27.72 
L 99.778674 -27.72 
L 100.889202 -27.72 
L 101.999731 -27.72 
L 103.11026 -27.72 
L 104.220789 -27.72 
L 105.331318 -27.72 
L 106.441847 -27.72 
L 107.552375 -27.72 
L 108.662904 -27.72 
L 109.773433 -27.72 
L 110.883962 -27.72 
L 111.994491 -27.72 
L 113.10502 -27.72 
L 114.215548 -27.72 
L 115.326077 -27.72 
L 116.436606 -27.72 
L 117.547135 -27.72 
L 118.657664 -27.72 
L 119.768192 -27.72 
L 120.878721 -27.72 
L 121.98925 -27.72 
L 123.099779 -27.72 
L 124.210308 -27.72 
L 125.320837 -27.72 
L 126.431365 -27.72 
L 127.541894 -27.72 
L 128.652423 -27.72 
L 129.762952 -27.72 
L 130.873481 -27.72 
L 131.98401 -27.72 
L 133.094538 -27.72 
L 134.205067 -27.72 
L 135.315596 -27.72 
L 136.426125 -27.72 
L 137.536654 -27.72 
L 138.647183 -27.72 
L 139.757711 -27.72 
L 140.86824 -27.72 
L 141.978769 -27.72 
L 143.089298 -27.72 
L 144.199827 -27.72 
L 145.310356 -27.72 
L 146.420884 -27.72 
L 147.531413 -27.72 
L 148.641942 -27.72 
L 149.752471 -27.72 
L 150.863 -27.72 
L 151.973528 -27.72 
L 153.084057 -27.72 
L 154.194586 -27.72 
L 155.305115 -27.72 
L 156.415644 -27.72 
L 157.526173 -27.72 
L 158.636701 -27.72 
L 159.74723 -27.72 
L 160.857759 -27.72 
L 161.968288 -27.72 
L 163.078817 -27.72 
L 164.189346 -27.72 
L 165.299874 -27.72 
L 166.410403 -27.72 
L 167.520932 -27.72 
L 168.631461 -27.72 
L 169.74199 -27.72 
L 170.852519 -27.72 
L 171.963047 -27.72 
L 173.073576 -27.72 
L 174.184105 -27.72 
L 175.294634 -27.72 
L 176.405163 -27.72 
L 177.515692 -27.72 
L 178.62622 -27.72 
L 179.736749 -27.72 
L 180.847278 -27.72 
L 181.957807 -27.72 
L 183.068336 -27.72 
L 184.178864 -27.72 
L 185.289393 -27.72 
L 186.399922 -27.72 
L 187.510451 -27.72 
L 188.62098 -27.72 
L 189.731509 -27.72 
L 190.842037 -27.72 
L 191.952566 -27.72 
L 193.063095 -27.72 
L 194.173624 -27.72 
L 195.284153 -27.72 
L 196.394682 -27.72 
L 197.50521 -27.72 
L 198.615739 -27.72 
L 199.726268 -27.72 
L 200.836797 -27.72 
L 201.947326 -27.72 
L 203.057855 -27.72 
L 204.168383 -27.72 
L 205.278912 -27.72 
L 206.389441 -27.72 
L 207.49997 -27.72 
L 208.610499 -27.72 
L 209.721028 -27.72 
L 210.831556 -27.72 
L 211.942085 -27.72 
L 213.052614 -27.72 
L 214.163143 -27.72 
L 215.273672 -27.72 
L 216.3842 -27.72 
L 217.494729 -27.72 
L 218.605258 -27.72 
L 219.715787 -27.72 
L 220.826316 -27.72 
L 221.936845 -27.72 
L 223.047373 -27.72 
L 224.157902 -27.72 
L 225.268431 -27.72 
L 226.37896 -27.72 
L 227.489489 -27.72 
L 228.600018 -27.72 
L 229.710546 -27.72 
L 230.821075 -27.72 
L 231.931604 -27.72 
L 233.042133 -27.72 
L 234.152662 -27.72 
L 235.263191 -27.72 
L 236.373719 -27.72 
L 237.484248 -27.72 
L 238.594777 -27.72 
L 239.705306 -27.72 
L 240.815835 -27.72 
L 241.926364 -27.72 
L 243.036892 -27.72 
L 244.147421 -27.72 
L 245.25795 -27.72 
L 246.368479 -27.72 
L 247.479008 -27.72 
L 248.589536 -27.72 
L 249.700065 -27.72 
L 250.810594 -27.72 
L 251.921123 -27.72 
L 253.031652 -27.72 
L 254.142181 -27.72 
L 255.252709 -27.72 
L 256.363238 -27.72 
L 257.473767 -27.72 
L 258.584296 -27.72 
L 259.694825 -27.72 
L 260.805354 -27.72 
L 261.915882 -27.72 
L 263.026411 -27.72 
L 264.13694 -27.72 
L 265.247469 -27.72 
L 266.357998 -27.72 
L 267.468527 -27.72 
L 268.579055 -27.72 
L 269.689584 -27.72 
L 270.800113 -27.72 
L 271.910642 -27.72 
L 273.021171 -27.72 
L 274.1317 -27.72 
L 275.242228 -27.72 
L 276.352757 -27.72 
L 277.463286 -27.72 
L 277.463286 -27.72009 
L 277.463286 -27.72009 
L 276.352757 -27.720944 
L 275.242228 -27.725068 
L 274.1317 -27.73441 
L 273.021171 -27.743184 
L 271.910642 -27.74549 
L 270.800113 -27.746265 
L 269.689584 -27.744843 
L 268.579055 -27.736799 
L 267.468527 -27.728578 
L 266.357998 -27.726746 
L 265.247469 -27.729323 
L 264.13694 -27.729342 
L 263.026411 -27.727359 
L 261.915882 -27.729316 
L 260.805354 -27.732944 
L 259.694825 -27.734635 
L 258.584296 -27.736819 
L 257.473767 -27.741362 
L 256.363238 -27.746034 
L 255.252709 -27.74723 
L 254.142181 -27.747804 
L 253.031652 -27.748523 
L 251.921123 -27.747913 
L 250.810594 -27.748986 
L 249.700065 -27.750397 
L 248.589536 -27.749568 
L 247.479008 -27.74818 
L 246.368479 -27.745385 
L 245.25795 -27.74483 
L 244.147421 -27.752491 
L 243.036892 -27.761968 
L 241.926364 -27.767098 
L 240.815835 -27.770293 
L 239.705306 -27.773309 
L 238.594777 -27.777874 
L 237.484248 -27.788491 
L 236.373719 -27.793855 
L 235.263191 -27.786612 
L 234.152662 -27.784024 
L 233.042133 -27.78999 
L 231.931604 -27.797314 
L 230.821075 -27.80369 
L 229.710546 -27.801885 
L 228.600018 -27.794197 
L 227.489489 -27.789933 
L 226.37896 -27.793176 
L 225.268431 -27.804269 
L 224.157902 -27.821584 
L 223.047373 -27.845515 
L 221.936845 -27.867974 
L 220.826316 -27.882122 
L 219.715787 -27.896315 
L 218.605258 -27.914453 
L 217.494729 -27.924503 
L 216.3842 -27.918258 
L 215.273672 -27.905148 
L 214.163143 -27.900688 
L 213.052614 -27.914775 
L 211.942085 -27.948819 
L 210.831556 -27.989765 
L 209.721028 -28.009529 
L 208.610499 -28.010547 
L 207.49997 -28.02189 
L 206.389441 -28.045307 
L 205.278912 -28.07977 
L 204.168383 -28.121237 
L 203.057855 -28.161841 
L 201.947326 -28.208046 
L 200.836797 -28.252037 
L 199.726268 -28.272526 
L 198.615739 -28.274944 
L 197.50521 -28.303834 
L 196.394682 -28.369245 
L 195.284153 -28.429647 
L 194.173624 -28.472703 
L 193.063095 -28.541515 
L 191.952566 -28.638231 
L 190.842037 -28.73135 
L 189.731509 -28.826846 
L 188.62098 -28.905206 
L 187.510451 -28.958585 
L 186.399922 -29.034608 
L 185.289393 -29.165623 
L 184.178864 -29.298125 
L 183.068336 -29.38587 
L 181.957807 -29.4859 
L 180.847278 -29.629397 
L 179.736749 -29.779632 
L 178.62622 -29.931175 
L 177.515692 -30.088183 
L 176.405163 -30.286402 
L 175.294634 -30.591011 
L 174.184105 -30.985536 
L 173.073576 -31.371462 
L 171.963047 -31.716312 
L 170.852519 -32.126209 
L 169.74199 -32.617509 
L 168.631461 -33.080166 
L 167.520932 -33.565639 
L 166.410403 -34.226858 
L 165.299874 -35.060564 
L 164.189346 -35.904172 
L 163.078817 -36.622071 
L 161.968288 -37.309117 
L 160.857759 -38.227134 
L 159.74723 -39.440488 
L 158.636701 -40.767536 
L 157.526173 -42.163744 
L 156.415644 -43.73766 
L 155.305115 -45.477748 
L 154.194586 -47.292674 
L 153.084057 -49.161203 
L 151.973528 -51.22195 
L 150.863 -53.54129 
L 149.752471 -55.887701 
L 148.641942 -58.280331 
L 147.531413 -60.924941 
L 146.420884 -63.789314 
L 145.310356 -66.957764 
L 144.199827 -70.592797 
L 143.089298 -74.499318 
L 141.978769 -78.301919 
L 140.86824 -81.99176 
L 139.757711 -85.834182 
L 138.647183 -89.83262 
L 137.536654 -94.006815 
L 136.426125 -98.56563 
L 135.315596 -103.334093 
L 134.205067 -107.950497 
L 133.094538 -112.332571 
L 131.98401 -116.853339 
L 130.873481 -121.920809 
L 129.762952 -127.123463 
L 128.652423 -132.090737 
L 127.541894 -136.812688 
L 126.431365 -141.062733 
L 125.320837 -144.921281 
L 124.210308 -148.595913 
L 123.099779 -151.813824 
L 121.98925 -154.702468 
L 120.878721 -157.382647 
L 119.768192 -159.214395 
L 118.657664 -159.958187 
L 117.547135 -159.761076 
L 116.436606 -158.51218 
L 115.326077 -156.603431 
L 114.215548 -154.845314 
L 113.10502 -152.989526 
L 111.994491 -150.296531 
L 110.883962 -146.866479 
L 109.773433 -142.942629 
L 108.662904 -138.535844 
L 107.552375 -133.914667 
L 106.441847 -128.85513 
L 105.331318 -122.889819 
L 104.220789 -116.456588 
L 103.11026 -110.202526 
L 101.999731 -104.087417 
L 100.889202 -97.864589 
L 99.778674 -91.738403 
L 98.668145 -86.04149 
L 97.557616 -80.622732 
L 96.447087 -75.349039 
L 95.336558 -70.384441 
L 94.226029 -65.657044 
L 93.115501 -61.104704 
L 92.004972 -56.830338 
L 90.894443 -52.890698 
L 89.783914 -49.393165 
L 88.673385 -46.361656 
L 87.562856 -43.676008 
L 86.452328 -41.198177 
L 85.341799 -38.926977 
L 84.23127 -37.053141 
L 83.120741 -35.567736 
L 82.010212 -34.213407 
L 80.899684 -32.953256 
L 79.789155 -31.88275 
L 78.678626 -31.022005 
L 77.568097 -30.355615 
L 76.457568 -29.81895 
L 75.347039 -29.337124 
L 74.236511 -28.927768 
L 73.125982 -28.62679 
L 72.015453 -28.413215 
L 70.904924 -28.252602 
L 69.794395 -28.127774 
L 68.683866 -28.026292 
L 67.573338 -27.946163 
L 66.462809 -27.888161 
L 65.35228 -27.841097 
L 64.241751 -27.801723 
L 63.131222 -27.77624 
L 62.020693 -27.758283 
L 60.910165 -27.741977 
L 59.799636 -27.729815 
L 58.689107 -27.723061 
L 57.578578 -27.720567 
L 56.468049 -27.720056 
z
" style="stroke: #1f77b4"/>
    </defs>
    <g clip-path="url(#p34a7f116e7)">
     <use xlink:href="#mfdf4fcc091" x="0" y="252" style="fill: #1f77b4; fill-opacity: 0.25; stroke: #1f77b4"/>
    </g>
   </g>
   <g id="matplotlib.axis_1">
    <g id="xtick_1">
     <g id="line2d_1">
      <defs>
       <path id="m8d58c8967a" d="M 0 0 
L 0 3.5 
" style="stroke: #000000; stroke-width: 0.8"/>
      </defs>
      <g>
       <use xlink:href="#m8d58c8967a" x="47.136562" y="224.28" style="stroke: #000000; stroke-width: 0.8"/>
      </g>
     </g>
     <g id="text_1">
      <text style="font: 10px 'DejaVu Sans', 'Bitstream Vera Sans', 'Computer Modern Sans Serif', 'Lucida Grande', 'Verdana', 'Geneva', 'Lucid', 'Arial', 'Helvetica', 'Avant Garde', sans-serif; text-anchor: middle" x="47.136562" y="238.878438" transform="rotate(-0 47.136562 238.878438)">0.0</text>
     </g>
    </g>
    <g id="xtick_2">
     <g id="line2d_2">
      <g>
       <use xlink:href="#m8d58c8967a" x="93.0294" y="224.28" style="stroke: #000000; stroke-width: 0.8"/>
      </g>
     </g>
     <g id="text_2">
      <text style="font: 10px 'DejaVu Sans', 'Bitstream Vera Sans', 'Computer Modern Sans Serif', 'Lucida Grande', 'Verdana', 'Geneva', 'Lucid', 'Arial', 'Helvetica', 'Avant Garde', sans-serif; text-anchor: middle" x="93.0294" y="238.878438" transform="rotate(-0 93.0294 238.878438)">0.2</text>
     </g>
    </g>
    <g id="xtick_3">
     <g id="line2d_3">
      <g>
       <use xlink:href="#m8d58c8967a" x="138.922239" y="224.28" style="stroke: #000000; stroke-width: 0.8"/>
      </g>
     </g>
     <g id="text_3">
      <text style="font: 10px 'DejaVu Sans', 'Bitstream Vera Sans', 'Computer Modern Sans Serif', 'Lucida Grande', 'Verdana', 'Geneva', 'Lucid', 'Arial', 'Helvetica', 'Avant Garde', sans-serif; text-anchor: middle" x="138.922239" y="238.878438" transform="rotate(-0 138.922239 238.878438)">0.4</text>
     </g>
    </g>
    <g id="xtick_4">
     <g id="line2d_4">
      <g>
       <use xlink:href="#m8d58c8967a" x="184.815077" y="224.28" style="stroke: #000000; stroke-width: 0.8"/>
      </g>
     </g>
     <g id="text_4">
      <text style="font: 10px 'DejaVu Sans', 'Bitstream Vera Sans', 'Computer Modern Sans Serif', 'Lucida Grande', 'Verdana', 'Geneva', 'Lucid', 'Arial', 'Helvetica', 'Avant Garde', sans-serif; text-anchor: middle" x="184.815077" y="238.878438" transform="rotate(-0 184.815077 238.878438)">0.6</text>
     </g>
    </g>
    <g id="xtick_5">
     <g id="line2d_5">
      <g>
       <use xlink:href="#m8d58c8967a" x="230.707916" y="224.28" style="stroke: #000000; stroke-width: 0.8"/>
      </g>
     </g>
     <g id="text_5">
      <text style="font: 10px 'DejaVu Sans', 'Bitstream Vera Sans', 'Computer Modern Sans Serif', 'Lucida Grande', 'Verdana', 'Geneva', 'Lucid', 'Arial', 'Helvetica', 'Avant Garde', sans-serif; text-anchor: middle" x="230.707916" y="238.878438" transform="rotate(-0 230.707916 238.878438)">0.8</text>
     </g>
    </g>
    <g id="xtick_6">
     <g id="line2d_6">
      <g>
       <use xlink:href="#m8d58c8967a" x="276.600754" y="224.28" style="stroke: #000000; stroke-width: 0.8"/>
      </g>
     </g>
     <g id="text_6">
      <text style="font: 10px 'DejaVu Sans', 'Bitstream Vera Sans', 'Computer Modern Sans Serif', 'Lucida Grande', 'Verdana', 'Geneva', 'Lucid', 'Arial', 'Helvetica', 'Avant Garde', sans-serif; text-anchor: middle" x="276.600754" y="238.878438" transform="rotate(-0 276.600754 238.878438)">1.0</text>
     </g>
    </g>
    <g id="text_7">
     <text style="font: 10px 'DejaVu Sans', 'Bitstream Vera Sans', 'Computer Modern Sans Serif', 'Lucida Grande', 'Verdana', 'Geneva', 'Lucid', 'Arial', 'Helvetica', 'Avant Garde', sans-serif; text-anchor: middle" x="166.05" y="252.556563" transform="rotate(-0 166.05 252.556563)">TM-score</text>
    </g>
   </g>
   <g id="matplotlib.axis_2">
    <g id="ytick_1">
     <g id="line2d_7">
      <defs>
       <path id="m8e6a21e4a4" d="M 0 0 
L -3.5 0 
" style="stroke: #000000; stroke-width: 0.8"/>
      </defs>
      <g>
       <use xlink:href="#m8e6a21e4a4" x="40.5" y="224.28" style="stroke: #000000; stroke-width: 0.8"/>
      </g>
     </g>
     <g id="text_8">
      <text style="font: 10px 'DejaVu Sans', 'Bitstream Vera Sans', 'Computer Modern Sans Serif', 'Lucida Grande', 'Verdana', 'Geneva', 'Lucid', 'Arial', 'Helvetica', 'Avant Garde', sans-serif; text-anchor: end" x="33.5" y="228.079219" transform="rotate(-0 33.5 228.079219)">0.00</text>
     </g>
    </g>
    <g id="ytick_2">
     <g id="line2d_8">
      <g>
       <use xlink:href="#m8e6a21e4a4" x="40.5" y="200.621292" style="stroke: #000000; stroke-width: 0.8"/>
      </g>
     </g>
     <g id="text_9">
      <text style="font: 10px 'DejaVu Sans', 'Bitstream Vera Sans', 'Computer Modern Sans Serif', 'Lucida Grande', 'Verdana', 'Geneva', 'Lucid', 'Arial', 'Helvetica', 'Avant Garde', sans-serif; text-anchor: end" x="33.5" y="204.420511" transform="rotate(-0 33.5 204.420511)">0.25</text>
     </g>
    </g>
    <g id="ytick_3">
     <g id="line2d_9">
      <g>
       <use xlink:href="#m8e6a21e4a4" x="40.5" y="176.962584" style="stroke: #000000; stroke-width: 0.8"/>
      </g>
     </g>
     <g id="text_10">
      <text style="font: 10px 'DejaVu Sans', 'Bitstream Vera Sans', 'Computer Modern Sans Serif', 'Lucida Grande', 'Verdana', 'Geneva', 'Lucid', 'Arial', 'Helvetica', 'Avant Garde', sans-serif; text-anchor: end" x="33.5" y="180.761803" transform="rotate(-0 33.5 180.761803)">0.50</text>
     </g>
    </g>
    <g id="ytick_4">
     <g id="line2d_10">
      <g>
       <use xlink:href="#m8e6a21e4a4" x="40.5" y="153.303877" style="stroke: #000000; stroke-width: 0.8"/>
      </g>
     </g>
     <g id="text_11">
      <text style="font: 10px 'DejaVu Sans', 'Bitstream Vera Sans', 'Computer Modern Sans Serif', 'Lucida Grande', 'Verdana', 'Geneva', 'Lucid', 'Arial', 'Helvetica', 'Avant Garde', sans-serif; text-anchor: end" x="33.5" y="157.103095" transform="rotate(-0 33.5 157.103095)">0.75</text>
     </g>
    </g>
    <g id="ytick_5">
     <g id="line2d_11">
      <g>
       <use xlink:href="#m8e6a21e4a4" x="40.5" y="129.645169" style="stroke: #000000; stroke-width: 0.8"/>
      </g>
     </g>
     <g id="text_12">
      <text style="font: 10px 'DejaVu Sans', 'Bitstream Vera Sans', 'Computer Modern Sans Serif', 'Lucida Grande', 'Verdana', 'Geneva', 'Lucid', 'Arial', 'Helvetica', 'Avant Garde', sans-serif; text-anchor: end" x="33.5" y="133.444388" transform="rotate(-0 33.5 133.444388)">1.00</text>
     </g>
    </g>
    <g id="ytick_6">
     <g id="line2d_12">
      <g>
       <use xlink:href="#m8e6a21e4a4" x="40.5" y="105.986461" style="stroke: #000000; stroke-width: 0.8"/>
      </g>
     </g>
     <g id="text_13">
      <text style="font: 10px 'DejaVu Sans', 'Bitstream Vera Sans', 'Computer Modern Sans Serif', 'Lucida Grande', 'Verdana', 'Geneva', 'Lucid', 'Arial', 'Helvetica', 'Avant Garde', sans-serif; text-anchor: end" x="33.5" y="109.78568" transform="rotate(-0 33.5 109.78568)">1.25</text>
     </g>
    </g>
    <g id="ytick_7">
     <g id="line2d_13">
      <g>
       <use xlink:href="#m8e6a21e4a4" x="40.5" y="82.327753" style="stroke: #000000; stroke-width: 0.8"/>
      </g>
     </g>
     <g id="text_14">
      <text style="font: 10px 'DejaVu Sans', 'Bitstream Vera Sans', 'Computer Modern Sans Serif', 'Lucida Grande', 'Verdana', 'Geneva', 'Lucid', 'Arial', 'Helvetica', 'Avant Garde', sans-serif; text-anchor: end" x="33.5" y="86.126972" transform="rotate(-0 33.5 86.126972)">1.50</text>
     </g>
    </g>
    <g id="ytick_8">
     <g id="line2d_14">
      <g>
       <use xlink:href="#m8e6a21e4a4" x="40.5" y="58.669045" style="stroke: #000000; stroke-width: 0.8"/>
      </g>
     </g>
     <g id="text_15">
      <text style="font: 10px 'DejaVu Sans', 'Bitstream Vera Sans', 'Computer Modern Sans Serif', 'Lucida Grande', 'Verdana', 'Geneva', 'Lucid', 'Arial', 'Helvetica', 'Avant Garde', sans-serif; text-anchor: end" x="33.5" y="62.468264" transform="rotate(-0 33.5 62.468264)">1.75</text>
     </g>
    </g>
    <g id="ytick_9">
     <g id="line2d_15">
      <g>
       <use xlink:href="#m8e6a21e4a4" x="40.5" y="35.010338" style="stroke: #000000; stroke-width: 0.8"/>
      </g>
     </g>
     <g id="text_16">
      <text style="font: 10px 'DejaVu Sans', 'Bitstream Vera Sans', 'Computer Modern Sans Serif', 'Lucida Grande', 'Verdana', 'Geneva', 'Lucid', 'Arial', 'Helvetica', 'Avant Garde', sans-serif; text-anchor: end" x="33.5" y="38.809556" transform="rotate(-0 33.5 38.809556)">2.00</text>
     </g>
    </g>
    <g id="text_17">
     <text style="font: 10px 'DejaVu Sans', 'Bitstream Vera Sans', 'Computer Modern Sans Serif', 'Lucida Grande', 'Verdana', 'Geneva', 'Lucid', 'Arial', 'Helvetica', 'Avant Garde', sans-serif; text-anchor: middle" x="5.154687" y="127.26" transform="rotate(-90 5.154687 127.26)">Density</text>
    </g>
   </g>
   <g id="patch_3">
    <path d="M 40.5 224.28 
L 40.5 30.24 
" style="fill: none; stroke: #000000; stroke-width: 0.8; stroke-linejoin: miter; stroke-linecap: square"/>
   </g>
   <g id="patch_4">
    <path d="M 291.6 224.28 
L 291.6 30.24 
" style="fill: none; stroke: #000000; stroke-width: 0.8; stroke-linejoin: miter; stroke-linecap: square"/>
   </g>
   <g id="patch_5">
    <path d="M 40.5 224.28 
L 291.6 224.28 
" style="fill: none; stroke: #000000; stroke-width: 0.8; stroke-linejoin: miter; stroke-linecap: square"/>
   </g>
   <g id="patch_6">
    <path d="M 40.5 30.24 
L 291.6 30.24 
" style="fill: none; stroke: #000000; stroke-width: 0.8; stroke-linejoin: miter; stroke-linecap: square"/>
   </g>
   <g id="legend_1">
    <g id="patch_7">
     <path d="M 202.376563 111.630625 
L 284.6 111.630625 
Q 286.6 111.630625 286.6 109.630625 
L 286.6 37.24 
Q 286.6 35.24 284.6 35.24 
L 202.376563 35.24 
Q 200.376563 35.24 200.376563 37.24 
L 200.376563 109.630625 
Q 200.376563 111.630625 202.376563 111.630625 
z
" style="fill: #ffffff; opacity: 0.8; stroke: #cccccc; stroke-linejoin: miter"/>
    </g>
    <g id="text_18">
     <text style="font: 10px 'DejaVu Sans', 'Bitstream Vera Sans', 'Computer Modern Sans Serif', 'Lucida Grande', 'Verdana', 'Geneva', 'Lucid', 'Arial', 'Helvetica', 'Avant Garde', sans-serif; text-anchor: start" x="224.735156" y="46.838437" transform="rotate(-0 224.735156 46.838437)">Method</text>
    </g>
    <g id="patch_8">
     <path d="M 204.376563 61.516562 
L 224.376563 61.516562 
L 224.376563 54.516562 
L 204.376563 54.516562 
z
" style="fill: #1f77b4; fill-opacity: 0.25; stroke: #1f77b4; stroke-linejoin: miter"/>
    </g>
    <g id="text_19">
     <text style="font: 10px 'DejaVu Sans', 'Bitstream Vera Sans', 'Computer Modern Sans Serif', 'Lucida Grande', 'Verdana', 'Geneva', 'Lucid', 'Arial', 'Helvetica', 'Avant Garde', sans-serif; text-anchor: start" x="232.376563" y="61.516562" transform="rotate(-0 232.376563 61.516562)">TM-Vec</text>
    </g>
    <g id="patch_9">
     <path d="M 204.376563 76.194687 
L 224.376563 76.194687 
L 224.376563 69.194687 
L 204.376563 69.194687 
z
" style="fill: #ff7f0e; fill-opacity: 0.25; stroke: #ff7f0e; stroke-linejoin: miter"/>
    </g>
    <g id="text_20">
     <text style="font: 10px 'DejaVu Sans', 'Bitstream Vera Sans', 'Computer Modern Sans Serif', 'Lucida Grande', 'Verdana', 'Geneva', 'Lucid', 'Arial', 'Helvetica', 'Avant Garde', sans-serif; text-anchor: start" x="232.376563" y="76.194687" transform="rotate(-0 232.376563 76.194687)">TM-Vec 2</text>
    </g>
    <g id="patch_10">
     <path d="M 204.376563 90.872813 
L 224.376563 90.872813 
L 224.376563 83.872813 
L 204.376563 83.872813 
z
" style="fill: #2ca02c; fill-opacity: 0.25; stroke: #2ca02c; stroke-linejoin: miter"/>
    </g>
    <g id="text_21">
     <text style="font: 10px 'DejaVu Sans', 'Bitstream Vera Sans', 'Computer Modern Sans Serif', 'Lucida Grande', 'Verdana', 'Geneva', 'Lucid', 'Arial', 'Helvetica', 'Avant Garde', sans-serif; text-anchor: start" x="232.376563" y="90.872813" transform="rotate(-0 232.376563 90.872813)">TM-Vec 2s</text>
    </g>
    <g id="patch_11">
     <path d="M 204.376563 105.550938 
L 224.376563 105.550938 
L 224.376563 98.550938 
L 204.376563 98.550938 
z
" style="fill: #d62728; fill-opacity: 0.25; stroke: #d62728; stroke-linejoin: miter"/>
    </g>
    <g id="text_22">
     <text style="font: 10px 'DejaVu Sans', 'Bitstream Vera Sans', 'Computer Modern Sans Serif', 'Lucida Grande', 'Verdana', 'Geneva', 'Lucid', 'Arial', 'Helvetica', 'Avant Garde', sans-serif; text-anchor: start" x="232.376563" y="105.550938" transform="rotate(-0 232.376563 105.550938)">TM-align</text>
    </g>
   </g>
  </g>
 </g>
 <defs>
  <clipPath id="p34a7f116e7">
   <rect x="40.5" y="30.24" width="251.1" height="194.04"/>
  </clipPath>
 </defs>
</svg>
