<?xml version="1.0" encoding="utf-8" standalone="no"?>
<!DOCTYPE svg PUBLIC "-//W3C//DTD SVG 1.1//EN"
  "http://www.w3.org/Graphics/SVG/1.1/DTD/svg11.dtd">
<svg xmlns:xlink="http://www.w3.org/1999/xlink" width="216pt" height="252pt" viewBox="0 0 216 252" xmlns="http://www.w3.org/2000/svg" version="1.1">
 <metadata>
  <rdf:RDF xmlns:dc="http://purl.org/dc/elements/1.1/" xmlns:cc="http://creativecommons.org/ns#" xmlns:rdf="http://www.w3.org/1999/02/22-rdf-syntax-ns#">
   <cc:Work>
    <dc:type rdf:resource="http://purl.org/dc/dcmitype/StillImage"/>
    <dc:date>2026-01-20T16:11:39.787246</dc:date>
    <dc:format>image/svg+xml</dc:format>
    <dc:creator>
     <cc:Agent>
      <dc:title>Matplotlib v3.9.1, https://matplotlib.org/</dc:title>
     </cc:Agent>
    </dc:creator>
   </cc:Work>
  </rdf:RDF>
 </metadata>
 <defs>
  <style type="text/css">*{stroke-linejoin: round; stroke-linecap: butt}</style>
 </defs>
 <g id="figure_1">
  <g id="patch_1">
   <path d="M 0 252 
L 216 252 
L 216 0 
L 0 0 
z
" style="fill: #ffffff"/>
  </g>
  <g id="axes_1">
   <g id="patch_2">
    <path d="M 27 224.28 
L 194.4 224.28 
L 194.4 30.24 
L 27 30.24 
z
" style="fill: #ffffff"/>
   </g>
   <g id="PolyCollection_1">
    <path d="M 55.409369 215.46 
L 54.390631 215.46 
L 48.345915 214.109987 
L 36.586952 212.759974 
L 32.754385 211.409961 
L 32.58 210.059949 
L 32.678946 208.709936 
L 32.88902 207.359923 
L 33.229779 206.00991 
L 33.50609 204.659897 
L 34.004578 203.309884 
L 34.573657 201.959872 
L 35.212273 200.609859 
L 35.817484 199.259846 
L 36.504948 197.909833 
L 37.409831 196.55982 
L 38.407001 195.209807 
L 39.260319 193.859795 
L 40.035754 192.509782 
L 40.939548 191.159769 
L 41.971825 189.809756 
L 42.917755 188.459743 
L 43.854228 187.10973 
L 44.7184 185.759717 
L 45.616273 184.409705 
L 46.542626 183.059692 
L 47.441769 181.709679 
L 48.319452 180.359666 
L 49.013031 179.009653 
L 49.657398 177.65964 
L 50.299824 176.309628 
L 50.8505 174.959615 
L 51.337939 173.609602 
L 51.764941 172.259589 
L 52.192777 170.909576 
L 52.566316 169.559563 
L 52.842816 168.20955 
L 53.097855 166.859538 
L 53.389002 165.509525 
L 53.616273 164.159512 
L 53.760235 162.809499 
L 53.895691 161.459486 
L 54.039607 160.109473 
L 54.141948 158.759461 
L 54.248413 157.409448 
L 54.328114 156.059435 
L 54.420039 154.709422 
L 54.484433 153.359409 
L 54.538524 152.009396 
L 54.600174 150.659384 
L 54.63972 149.309371 
L 54.665106 147.959358 
L 54.70236 146.609345 
L 54.725249 145.259332 
L 54.738215 143.909319 
L 54.763896 142.559306 
L 54.7762 141.209294 
L 54.787914 139.859281 
L 54.815841 138.509268 
L 54.817835 137.159255 
L 54.822787 135.809242 
L 54.842834 134.459229 
L 54.845571 133.109217 
L 54.844816 131.759204 
L 54.853344 130.409191 
L 54.860405 129.059178 
L 54.861967 127.709165 
L 54.859817 126.359152 
L 54.864409 125.00914 
L 54.871061 123.659127 
L 54.87123 122.309114 
L 54.874506 120.959101 
L 54.87848 119.609088 
L 54.881389 118.259075 
L 54.884331 116.909062 
L 54.884889 115.55905 
L 54.886588 114.209037 
L 54.889901 112.859024 
L 54.892436 111.509011 
L 54.893737 110.158998 
L 54.894991 108.808985 
L 54.894853 107.458973 
L 54.895695 106.10896 
L 54.896571 104.758947 
L 54.897714 103.408934 
L 54.898327 102.058921 
L 54.89876 100.708908 
L 54.898284 99.358896 
L 54.898012 98.008883 
L 54.897985 96.65887 
L 54.898794 95.308857 
L 54.899555 93.958844 
L 54.899477 92.608831 
L 54.899866 91.258818 
L 54.89985 89.908806 
L 54.899457 88.558793 
L 54.899403 87.20878 
L 54.898921 85.858767 
L 54.899248 84.508754 
L 54.899521 83.158741 
L 54.899928 81.808729 
L 54.900072 81.808729 
L 54.900072 81.808729 
L 54.900479 83.158741 
L 54.900752 84.508754 
L 54.901079 85.858767 
L 54.900597 87.20878 
L 54.900543 88.558793 
L 54.90015 89.908806 
L 54.900134 91.258818 
L 54.900523 92.608831 
L 54.900445 93.958844 
L 54.901206 95.308857 
L 54.902015 96.65887 
L 54.901988 98.008883 
L 54.901716 99.358896 
L 54.90124 100.708908 
L 54.901673 102.058921 
L 54.902286 103.408934 
L 54.903429 104.758947 
L 54.904305 106.10896 
L 54.905147 107.458973 
L 54.905009 108.808985 
L 54.906263 110.158998 
L 54.907564 111.509011 
L 54.910099 112.859024 
L 54.913412 114.209037 
L 54.915111 115.55905 
L 54.915669 116.909062 
L 54.918611 118.259075 
L 54.92152 119.609088 
L 54.925494 120.959101 
L 54.92877 122.309114 
L 54.928939 123.659127 
L 54.935591 125.00914 
L 54.940183 126.359152 
L 54.938033 127.709165 
L 54.939595 129.059178 
L 54.946656 130.409191 
L 54.955184 131.759204 
L 54.954429 133.109217 
L 54.957166 134.459229 
L 54.977213 135.809242 
L 54.982165 137.159255 
L 54.984159 138.509268 
L 55.012086 139.859281 
L 55.0238 141.209294 
L 55.036104 142.559306 
L 55.061785 143.909319 
L 55.074751 145.259332 
L 55.09764 146.609345 
L 55.134894 147.959358 
L 55.16028 149.309371 
L 55.199826 150.659384 
L 55.261476 152.009396 
L 55.315567 153.359409 
L 55.379961 154.709422 
L 55.471886 156.059435 
L 55.551587 157.409448 
L 55.658052 158.759461 
L 55.760393 160.109473 
L 55.904309 161.459486 
L 56.039765 162.809499 
L 56.183727 164.159512 
L 56.410998 165.509525 
L 56.702145 166.859538 
L 56.957184 168.20955 
L 57.233684 169.559563 
L 57.607223 170.909576 
L 58.035059 172.259589 
L 58.462061 173.609602 
L 58.9495 174.959615 
L 59.500176 176.309628 
L 60.142602 177.65964 
L 60.786969 179.009653 
L 61.480548 180.359666 
L 62.358231 181.709679 
L 63.257374 183.059692 
L 64.183727 184.409705 
L 65.0816 185.759717 
L 65.945772 187.10973 
L 66.882245 188.459743 
L 67.828175 189.809756 
L 68.860452 191.159769 
L 69.764246 192.509782 
L 70.539681 193.859795 
L 71.392999 195.209807 
L 72.390169 196.55982 
L 73.295052 197.909833 
L 73.982516 199.259846 
L 74.587727 200.609859 
L 75.226343 201.959872 
L 75.795422 203.309884 
L 76.29391 204.659897 
L 76.570221 206.00991 
L 76.91098 207.359923 
L 77.121054 208.709936 
L 77.22 210.059949 
L 77.045615 211.409961 
L 73.213048 212.759974 
L 61.454085 214.109987 
L 55.409369 215.46 
L 55.409369 215.46 
z
" clip-path="url(#pb2c36e8461)" style="fill: none; stroke: #1f77b4; stroke-width: 1.5"/>
   </g>
   <g id="PolyCollection_2">
    <path d="M 110.812027 215.321443 
L 110.587973 215.321443 
L 108.074963 213.541025 
L 105.487882 211.760606 
L 104.444891 209.980187 
L 102.821714 208.199769 
L 100.64932 206.41935 
L 98.156321 204.638932 
L 95.171372 202.858513 
L 92.359996 201.078094 
L 90.084818 199.297676 
L 88.792167 197.517257 
L 88.38 195.736838 
L 88.811026 193.95642 
L 89.953549 192.176001 
L 92.021867 190.395583 
L 94.4246 188.615164 
L 96.93324 186.834745 
L 99.32277 185.054327 
L 101.436722 183.273908 
L 103.258219 181.49349 
L 104.666358 179.713071 
L 105.947971 177.932652 
L 106.930086 176.152234 
L 107.658176 174.371815 
L 108.323428 172.591396 
L 108.808967 170.810978 
L 109.190348 169.030559 
L 109.480893 167.250141 
L 109.70774 165.469722 
L 109.872035 163.689303 
L 110.012664 161.908885 
L 110.14719 160.128466 
L 110.217384 158.348047 
L 110.258353 156.567629 
L 110.335064 154.78721 
L 110.383172 153.006792 
L 110.426221 151.226373 
L 110.471471 149.445954 
L 110.501738 147.665536 
L 110.525265 145.885117 
L 110.525938 144.104699 
L 110.556681 142.32428 
L 110.566287 140.543861 
L 110.589845 138.763443 
L 110.593635 136.983024 
L 110.600524 135.202605 
L 110.621248 133.422187 
L 110.633728 131.641768 
L 110.632136 129.86135 
L 110.635626 128.080931 
L 110.641811 126.300512 
L 110.638609 124.520094 
L 110.646651 122.739675 
L 110.65862 120.959256 
L 110.66576 119.178838 
L 110.664677 117.398419 
L 110.666898 115.618001 
L 110.66815 113.837582 
L 110.667999 112.057163 
L 110.66816 110.276745 
L 110.671393 108.496326 
L 110.674285 106.715908 
L 110.678665 104.935489 
L 110.671208 103.15507 
L 110.675814 101.374652 
L 110.6804 99.594233 
L 110.681706 97.813814 
L 110.681818 96.033396 
L 110.686071 94.252977 
L 110.684835 92.472559 
L 110.685597 90.69214 
L 110.684214 88.911721 
L 110.682791 87.131303 
L 110.688196 85.350884 
L 110.686824 83.570465 
L 110.688948 81.790047 
L 110.690571 80.009628 
L 110.692539 78.22921 
L 110.691132 76.448791 
L 110.691937 74.668372 
L 110.692803 72.887954 
L 110.693032 71.107535 
L 110.694831 69.327117 
L 110.692866 67.546698 
L 110.694407 65.766279 
L 110.69835 63.985861 
L 110.69755 62.205442 
L 110.697982 60.425023 
L 110.699236 58.644605 
L 110.698752 56.864186 
L 110.698381 55.083768 
L 110.697881 53.303349 
L 110.699303 51.52293 
L 110.699908 49.742512 
L 110.699538 47.962093 
L 110.699893 46.181674 
L 110.7 44.401256 
L 110.699951 42.620837 
L 110.699514 40.840419 
L 110.699934 39.06 
L 110.700066 39.06 
L 110.700066 39.06 
L 110.700486 40.840419 
L 110.700049 42.620837 
L 110.7 44.401256 
L 110.700107 46.181674 
L 110.700462 47.962093 
L 110.700092 49.742512 
L 110.700697 51.52293 
L 110.702119 53.303349 
L 110.701619 55.083768 
L 110.701248 56.864186 
L 110.700764 58.644605 
L 110.702018 60.425023 
L 110.70245 62.205442 
L 110.70165 63.985861 
L 110.705593 65.766279 
L 110.707134 67.546698 
L 110.705169 69.327117 
L 110.706968 71.107535 
L 110.707197 72.887954 
L 110.708063 74.668372 
L 110.708868 76.448791 
L 110.707461 78.22921 
L 110.709429 80.009628 
L 110.711052 81.790047 
L 110.713176 83.570465 
L 110.711804 85.350884 
L 110.717209 87.131303 
L 110.715786 88.911721 
L 110.714403 90.69214 
L 110.715165 92.472559 
L 110.713929 94.252977 
L 110.718182 96.033396 
L 110.718294 97.813814 
L 110.7196 99.594233 
L 110.724186 101.374652 
L 110.728792 103.15507 
L 110.721335 104.935489 
L 110.725715 106.715908 
L 110.728607 108.496326 
L 110.73184 110.276745 
L 110.732001 112.057163 
L 110.73185 113.837582 
L 110.733102 115.618001 
L 110.735323 117.398419 
L 110.73424 119.178838 
L 110.74138 120.959256 
L 110.753349 122.739675 
L 110.761391 124.520094 
L 110.758189 126.300512 
L 110.764374 128.080931 
L 110.767864 129.86135 
L 110.766272 131.641768 
L 110.778752 133.422187 
L 110.799476 135.202605 
L 110.806365 136.983024 
L 110.810155 138.763443 
L 110.833713 140.543861 
L 110.843319 142.32428 
L 110.874062 144.104699 
L 110.874735 145.885117 
L 110.898262 147.665536 
L 110.928529 149.445954 
L 110.973779 151.226373 
L 111.016828 153.006792 
L 111.064936 154.78721 
L 111.141647 156.567629 
L 111.182616 158.348047 
L 111.25281 160.128466 
L 111.387336 161.908885 
L 111.527965 163.689303 
L 111.69226 165.469722 
L 111.919107 167.250141 
L 112.209652 169.030559 
L 112.591033 170.810978 
L 113.076572 172.591396 
L 113.741824 174.371815 
L 114.469914 176.152234 
L 115.452029 177.932652 
L 116.733642 179.713071 
L 118.141781 181.49349 
L 119.963278 183.273908 
L 122.07723 185.054327 
L 124.46676 186.834745 
L 126.9754 188.615164 
L 129.378133 190.395583 
L 131.446451 192.176001 
L 132.588974 193.95642 
L 133.02 195.736838 
L 132.607833 197.517257 
L 131.315182 199.297676 
L 129.040004 201.078094 
L 126.228628 202.858513 
L 123.243679 204.638932 
L 120.75068 206.41935 
L 118.578286 208.199769 
L 116.955109 209.980187 
L 115.912118 211.760606 
L 113.325037 213.541025 
L 110.812027 215.321443 
L 110.812027 215.321443 
z
" clip-path="url(#pb2c36e8461)" style="fill: none; stroke: #ff7f0e; stroke-width: 1.5"/>
   </g>
   <g id="PolyCollection_3">
    <path d="M 167.01763 214.865553 
L 165.98237 214.865553 
L 155.435079 213.624578 
L 144.457249 212.383602 
L 144.18 211.142627 
L 144.572301 209.901652 
L 145.099169 208.660677 
L 145.910464 207.419702 
L 146.856516 206.178726 
L 148.061911 204.937751 
L 149.264326 203.696776 
L 150.433091 202.455801 
L 151.738553 201.214826 
L 153.04657 199.973851 
L 154.422726 198.732875 
L 155.788752 197.4919 
L 157.096246 196.250925 
L 158.285051 195.00995 
L 159.325089 193.768975 
L 160.425163 192.527999 
L 161.270035 191.287024 
L 162.099823 190.046049 
L 162.846849 188.805074 
L 163.495304 187.564099 
L 163.971705 186.323123 
L 164.435972 185.082148 
L 164.796686 183.841173 
L 165.049248 182.600198 
L 165.293178 181.359223 
L 165.505796 180.118247 
L 165.719934 178.877272 
L 165.84864 177.636297 
L 165.955672 176.395322 
L 166.046556 175.154347 
L 166.129678 173.913371 
L 166.169448 172.672396 
L 166.217414 171.431421 
L 166.27072 170.190446 
L 166.300299 168.949471 
L 166.31811 167.708496 
L 166.349502 166.46752 
L 166.363148 165.226545 
L 166.378773 163.98557 
L 166.389069 162.744595 
L 166.415201 161.50362 
L 166.430364 160.262644 
L 166.440087 159.021669 
L 166.436771 157.780694 
L 166.4429 156.539719 
L 166.443477 155.298744 
L 166.451644 154.057768 
L 166.461088 152.816793 
L 166.470559 151.575818 
L 166.463751 150.334843 
L 166.465355 149.093868 
L 166.474164 147.852892 
L 166.477478 146.611917 
L 166.475691 145.370942 
L 166.474993 144.129967 
L 166.478478 142.888992 
L 166.484286 141.648017 
L 166.484867 140.407041 
L 166.483554 139.166066 
L 166.48816 137.925091 
L 166.486972 136.684116 
L 166.490953 135.443141 
L 166.490195 134.202165 
L 166.48999 132.96119 
L 166.493216 131.720215 
L 166.492958 130.47924 
L 166.493878 129.238265 
L 166.492372 127.997289 
L 166.495065 126.756314 
L 166.495766 125.515339 
L 166.494909 124.274364 
L 166.496306 123.033389 
L 166.496087 121.792413 
L 166.496316 120.551438 
L 166.496614 119.310463 
L 166.497905 118.069488 
L 166.498385 116.828513 
L 166.497744 115.587538 
L 166.498118 114.346562 
L 166.497182 113.105587 
L 166.496677 111.864612 
L 166.499221 110.623637 
L 166.499498 109.382662 
L 166.499514 108.141686 
L 166.499107 106.900711 
L 166.498596 105.659736 
L 166.498824 104.418761 
L 166.498132 103.177786 
L 166.498233 101.93681 
L 166.499523 100.695835 
L 166.499229 99.45486 
L 166.499678 98.213885 
L 166.499994 96.97291 
L 166.5 95.731934 
L 166.499925 94.490959 
L 166.499522 93.249984 
L 166.499935 92.009009 
L 166.500065 92.009009 
L 166.500065 92.009009 
L 166.500478 93.249984 
L 166.500075 94.490959 
L 166.5 95.731934 
L 166.500006 96.97291 
L 166.500322 98.213885 
L 166.500771 99.45486 
L 166.500477 100.695835 
L 166.501767 101.93681 
L 166.501868 103.177786 
L 166.501176 104.418761 
L 166.501404 105.659736 
L 166.500893 106.900711 
L 166.500486 108.141686 
L 166.500502 109.382662 
L 166.500779 110.623637 
L 166.503323 111.864612 
L 166.502818 113.105587 
L 166.501882 114.346562 
L 166.502256 115.587538 
L 166.501615 116.828513 
L 166.502095 118.069488 
L 166.503386 119.310463 
L 166.503684 120.551438 
L 166.503913 121.792413 
L 166.503694 123.033389 
L 166.505091 124.274364 
L 166.504234 125.515339 
L 166.504935 126.756314 
L 166.507628 127.997289 
L 166.506122 129.238265 
L 166.507042 130.47924 
L 166.506784 131.720215 
L 166.51001 132.96119 
L 166.509805 134.202165 
L 166.509047 135.443141 
L 166.513028 136.684116 
L 166.51184 137.925091 
L 166.516446 139.166066 
L 166.515133 140.407041 
L 166.515714 141.648017 
L 166.521522 142.888992 
L 166.525007 144.129967 
L 166.524309 145.370942 
L 166.522522 146.611917 
L 166.525836 147.852892 
L 166.534645 149.093868 
L 166.536249 150.334843 
L 166.529441 151.575818 
L 166.538912 152.816793 
L 166.548356 154.057768 
L 166.556523 155.298744 
L 166.5571 156.539719 
L 166.563229 157.780694 
L 166.559913 159.021669 
L 166.569636 160.262644 
L 166.584799 161.50362 
L 166.610931 162.744595 
L 166.621227 163.98557 
L 166.636852 165.226545 
L 166.650498 166.46752 
L 166.68189 167.708496 
L 166.699701 168.949471 
L 166.72928 170.190446 
L 166.782586 171.431421 
L 166.830552 172.672396 
L 166.870322 173.913371 
L 166.953444 175.154347 
L 167.044328 176.395322 
L 167.15136 177.636297 
L 167.280066 178.877272 
L 167.494204 180.118247 
L 167.706822 181.359223 
L 167.950752 182.600198 
L 168.203314 183.841173 
L 168.564028 185.082148 
L 169.028295 186.323123 
L 169.504696 187.564099 
L 170.153151 188.805074 
L 170.900177 190.046049 
L 171.729965 191.287024 
L 172.574837 192.527999 
L 173.674911 193.768975 
L 174.714949 195.00995 
L 175.903754 196.250925 
L 177.211248 197.4919 
L 178.577274 198.732875 
L 179.95343 199.973851 
L 181.261447 201.214826 
L 182.566909 202.455801 
L 183.735674 203.696776 
L 184.938089 204.937751 
L 186.143484 206.178726 
L 187.089536 207.419702 
L 187.900831 208.660677 
L 188.427699 209.901652 
L 188.82 211.142627 
L 188.542751 212.383602 
L 177.564921 213.624578 
L 167.01763 214.865553 
L 167.01763 214.865553 
z
" clip-path="url(#pb2c36e8461)" style="fill: none; stroke: #2ca02c; stroke-width: 1.5"/>
   </g>
   <g id="matplotlib.axis_1">
    <g id="xtick_1">
     <g id="line2d_1">
      <defs>
       <path id="m723b0d94fb" d="M 0 0 
L 0 3.5 
" style="stroke: #000000; stroke-width: 0.8"/>
      </defs>
      <g>
       <use xlink:href="#m723b0d94fb" x="54.9" y="224.28" style="stroke: #000000; stroke-width: 0.8"/>
      </g>
     </g>
     <g id="text_1">
      <text style="font: 10px 'DejaVu Sans', 'Bitstream Vera Sans', 'Computer Modern Sans Serif', 'Lucida Grande', 'Verdana', 'Geneva', 'Lucid', 'Arial', 'Helvetica', 'Avant Garde', sans-serif; text-anchor: middle" x="54.9" y="238.878438" transform="rotate(-0 54.9 238.878438)">TM-Vec</text>
     </g>
    </g>
    <g id="xtick_2">
     <g id="line2d_2">
      <g>
       <use xlink:href="#m723b0d94fb" x="110.7" y="224.28" style="stroke: #000000; stroke-width: 0.8"/>
      </g>
     </g>
     <g id="text_2">
      <text style="font: 10px 'DejaVu Sans', 'Bitstream Vera Sans', 'Computer Modern Sans Serif', 'Lucida Grande', 'Verdana', 'Geneva', 'Lucid', 'Arial', 'Helvetica', 'Avant Garde', sans-serif; text-anchor: middle" x="110.7" y="238.878438" transform="rotate(-0 110.7 238.878438)">TM-Vec 2</text>
     </g>
    </g>
    <g id="xtick_3">
     <g id="line2d_3">
      <g>
       <use xlink:href="#m723b0d94fb" x="166.5" y="224.28" style="stroke: #000000; stroke-width: 0.8"/>
      </g>
     </g>
     <g id="text_3">
      <text style="font: 10px 'DejaVu Sans', 'Bitstream Vera Sans', 'Computer Modern Sans Serif', 'Lucida Grande', 'Verdana', 'Geneva', 'Lucid', 'Arial', 'Helvetica', 'Avant Garde', sans-serif; text-anchor: middle" x="166.5" y="238.878438" transform="rotate(-0 166.5 238.878438)">TM-Vec 2s</text>
     </g>
    </g>
    <g id="text_4">
     <text style="font: 10px 'DejaVu Sans', 'Bitstream Vera Sans', 'Computer Modern Sans Serif', 'Lucida Grande', 'Verdana', 'Geneva', 'Lucid', 'Arial', 'Helvetica', 'Avant Garde', sans-serif; text-anchor: middle" x="110.7" y="252.556563" transform="rotate(-0 110.7 252.556563)">Method</text>
    </g>
   </g>
   <g id="matplotlib.axis_2">
    <g id="ytick_1">
     <g id="line2d_4">
      <defs>
       <path id="m09a57770e6" d="M 0 0 
L -3.5 0 
" style="stroke: #000000; stroke-width: 0.8"/>
      </defs>
      <g>
       <use xlink:href="#m09a57770e6" x="27" y="213.601395" style="stroke: #000000; stroke-width: 0.8"/>
      </g>
     </g>
     <g id="text_5">
      <text style="font: 10px 'DejaVu Sans', 'Bitstream Vera Sans', 'Computer Modern Sans Serif', 'Lucida Grande', 'Verdana', 'Geneva', 'Lucid', 'Arial', 'Helvetica', 'Avant Garde', sans-serif; text-anchor: end" x="20" y="217.400614" transform="rotate(-0 20 217.400614)">0.0</text>
     </g>
    </g>
    <g id="ytick_2">
     <g id="line2d_5">
      <g>
       <use xlink:href="#m09a57770e6" x="27" y="170.819935" style="stroke: #000000; stroke-width: 0.8"/>
      </g>
     </g>
     <g id="text_6">
      <text style="font: 10px 'DejaVu Sans', 'Bitstream Vera Sans', 'Computer Modern Sans Serif', 'Lucida Grande', 'Verdana', 'Geneva', 'Lucid', 'Arial', 'Helvetica', 'Avant Garde', sans-serif; text-anchor: end" x="20" y="174.619153" transform="rotate(-0 20 174.619153)">0.2</text>
     </g>
    </g>
    <g id="ytick_3">
     <g id="line2d_6">
      <g>
       <use xlink:href="#m09a57770e6" x="27" y="128.038474" style="stroke: #000000; stroke-width: 0.8"/>
      </g>
     </g>
     <g id="text_7">
      <text style="font: 10px 'DejaVu Sans', 'Bitstream Vera Sans', 'Computer Modern Sans Serif', 'Lucida Grande', 'Verdana', 'Geneva', 'Lucid', 'Arial', 'Helvetica', 'Avant Garde', sans-serif; text-anchor: end" x="20" y="131.837693" transform="rotate(-0 20 131.837693)">0.4</text>
     </g>
    </g>
    <g id="ytick_4">
     <g id="line2d_7">
      <g>
       <use xlink:href="#m09a57770e6" x="27" y="85.257013" style="stroke: #000000; stroke-width: 0.8"/>
      </g>
     </g>
     <g id="text_8">
      <text style="font: 10px 'DejaVu Sans', 'Bitstream Vera Sans', 'Computer Modern Sans Serif', 'Lucida Grande', 'Verdana', 'Geneva', 'Lucid', 'Arial', 'Helvetica', 'Avant Garde', sans-serif; text-anchor: end" x="20" y="89.056232" transform="rotate(-0 20 89.056232)">0.6</text>
     </g>
    </g>
    <g id="ytick_5">
     <g id="line2d_8">
      <g>
       <use xlink:href="#m09a57770e6" x="27" y="42.475553" style="stroke: #000000; stroke-width: 0.8"/>
      </g>
     </g>
     <g id="text_9">
      <text style="font: 10px 'DejaVu Sans', 'Bitstream Vera Sans', 'Computer Modern Sans Serif', 'Lucida Grande', 'Verdana', 'Geneva', 'Lucid', 'Arial', 'Helvetica', 'Avant Garde', sans-serif; text-anchor: end" x="20" y="46.274771" transform="rotate(-0 20 46.274771)">0.8</text>
     </g>
    </g>
    <g id="text_10">
     <text style="font: 10px 'DejaVu Sans', 'Bitstream Vera Sans', 'Computer Modern Sans Serif', 'Lucida Grande', 'Verdana', 'Geneva', 'Lucid', 'Arial', 'Helvetica', 'Avant Garde', sans-serif; text-anchor: middle" x="-1.982813" y="127.26" transform="rotate(-90 -1.982813 127.26)">Prediction error (abs.)</text>
    </g>
   </g>
   <g id="line2d_9">
    <path d="M 54.9 213.601197 
L 54.9 163.660437 
" clip-path="url(#pb2c36e8461)" style="fill: none; stroke: #1f77b4; stroke-width: 2.25; stroke-linecap: square"/>
   </g>
   <g id="line2d_10">
    <path d="M 54.9 206.65389 
L 54.9 189.454631 
" clip-path="url(#pb2c36e8461)" style="fill: none; stroke: #1f77b4; stroke-width: 6.75; stroke-linecap: square"/>
   </g>
   <g id="line2d_11">
    <path d="M 54.9 199.152496 
" clip-path="url(#pb2c36e8461)" style="fill: none; stroke: #1f77b4; stroke-width: 1.5; stroke-linecap: square"/>
    <defs>
     <path id="m1e3d06ac0d" d="M 2.8125 0 
L -2.8125 -0 
" style="stroke: #ffffff; stroke-width: 1.35"/>
    </defs>
    <g clip-path="url(#pb2c36e8461)">
     <use xlink:href="#m1e3d06ac0d" x="54.9" y="199.152496" style="fill: #ffffff; stroke: #ffffff; stroke-width: 1.35"/>
    </g>
   </g>
   <g id="line2d_12">
    <path d="M 110.7 213.601131 
L 110.7 168.412516 
" clip-path="url(#pb2c36e8461)" style="fill: none; stroke: #ff7f0e; stroke-width: 2.25; stroke-linecap: square"/>
   </g>
   <g id="line2d_13">
    <path d="M 110.7 200.611867 
L 110.7 187.731959 
" clip-path="url(#pb2c36e8461)" style="fill: none; stroke: #ff7f0e; stroke-width: 6.75; stroke-linecap: square"/>
   </g>
   <g id="line2d_14">
    <path d="M 110.7 194.530591 
" clip-path="url(#pb2c36e8461)" style="fill: none; stroke: #ff7f0e; stroke-width: 1.5; stroke-linecap: square"/>
    <g clip-path="url(#pb2c36e8461)">
     <use xlink:href="#m1e3d06ac0d" x="110.7" y="194.530591" style="fill: #ffffff; stroke: #ffffff; stroke-width: 1.35"/>
    </g>
   </g>
   <g id="line2d_15">
    <path d="M 166.5 213.60137 
L 166.5 182.040786 
" clip-path="url(#pb2c36e8461)" style="fill: none; stroke: #2ca02c; stroke-width: 2.25; stroke-linecap: square"/>
   </g>
   <g id="line2d_16">
    <path d="M 166.5 209.379096 
L 166.5 198.44344 
" clip-path="url(#pb2c36e8461)" style="fill: none; stroke: #2ca02c; stroke-width: 6.75; stroke-linecap: square"/>
   </g>
   <g id="line2d_17">
    <path d="M 166.5 204.707481 
" clip-path="url(#pb2c36e8461)" style="fill: none; stroke: #2ca02c; stroke-width: 1.5; stroke-linecap: square"/>
    <g clip-path="url(#pb2c36e8461)">
     <use xlink:href="#m1e3d06ac0d" x="166.5" y="204.707481" style="fill: #ffffff; stroke: #ffffff; stroke-width: 1.35"/>
    </g>
   </g>
   <g id="patch_3">
    <path d="M 27 224.28 
L 27 30.24 
" style="fill: none; stroke: #000000; stroke-width: 0.8; stroke-linejoin: miter; stroke-linecap: square"/>
   </g>
   <g id="patch_4">
    <path d="M 194.4 224.28 
L 194.4 30.24 
" style="fill: none; stroke: #000000; stroke-width: 0.8; stroke-linejoin: miter; stroke-linecap: square"/>
   </g>
   <g id="patch_5">
    <path d="M 27 224.28 
L 194.4 224.28 
" style="fill: none; stroke: #000000; stroke-width: 0.8; stroke-linejoin: miter; stroke-linecap: square"/>
   </g>
   <g id="patch_6">
    <path d="M 27 30.24 
L 194.4 30.24 
" style="fill: none; stroke: #000000; stroke-width: 0.8; stroke-linejoin: miter; stroke-linecap: square"/>
   </g>
  </g>
 </g>
 <defs>
  <clipPath id="pb2c36e8461">
   <rect x="27" y="30.24" width="167.4" height="194.04"/>
  </clipPath>
 </defs>
</svg>
