<?xml version="1.0" encoding="utf-8" standalone="no"?>
<!DOCTYPE svg PUBLIC "-//W3C//DTD SVG 1.1//EN"
  "http://www.w3.org/Graphics/SVG/1.1/DTD/svg11.dtd">
<svg xmlns:xlink="http://www.w3.org/1999/xlink" width="324pt" height="252pt" viewBox="0 0 324 252" xmlns="http://www.w3.org/2000/svg" version="1.1">
 <metadata>
  <rdf:RDF xmlns:dc="http://purl.org/dc/elements/1.1/" xmlns:cc="http://creativecommons.org/ns#" xmlns:rdf="http://www.w3.org/1999/02/22-rdf-syntax-ns#">
   <cc:Work>
    <dc:type rdf:resource="http://purl.org/dc/dcmitype/StillImage"/>
    <dc:date>2026-02-05T12:31:11.032883</dc:date>
    <dc:format>image/svg+xml</dc:format>
    <dc:creator>
     <cc:Agent>
      <dc:title>Matplotlib v3.9.1, https://matplotlib.org/</dc:title>
     </cc:Agent>
    </dc:creator>
   </cc:Work>
  </rdf:RDF>
 </metadata>
 <defs>
  <style type="text/css">*{stroke-linejoin: round; stroke-linecap: butt}</style>
 </defs>
 <g id="figure_1">
  <g id="patch_1">
   <path d="M 0 252 
L 324 252 
L 324 0 
L 0 0 
z
" style="fill: #ffffff"/>
  </g>
  <g id="axes_1">
   <g id="patch_2">
    <path d="M 40.5 224.28 
L 291.6 224.28 
L 291.6 30.24 
L 40.5 30.24 
z
" style="fill: #ffffff"/>
   </g>
   <g id="PolyCollection_1">
    <defs>
     <path id="m78785123e7" d="M 51.913636 -27.721985 
L 51.913636 -27.72 
L 53.060178 -27.72 
L 54.20672 -27.72 
L 55.353261 -27.72 
L 56.499803 -27.72 
L 57.646344 -27.72 
L 58.792886 -27.72 
L 59.939427 -27.72 
L 61.085969 -27.72 
L 62.232511 -27.72 
L 63.379052 -27.72 
L 64.525594 -27.72 
L 65.672135 -27.72 
L 66.818677 -27.72 
L 67.965219 -27.72 
L 69.11176 -27.72 
L 70.258302 -27.72 
L 71.404843 -27.72 
L 72.551385 -27.72 
L 73.697927 -27.72 
L 74.844468 -27.72 
L 75.99101 -27.72 
L 77.137551 -27.72 
L 78.284093 -27.72 
L 79.430635 -27.72 
L 80.577176 -27.72 
L 81.723718 -27.72 
L 82.870259 -27.72 
L 84.016801 -27.72 
L 85.163342 -27.72 
L 86.309884 -27.72 
L 87.456426 -27.72 
L 88.602967 -27.72 
L 89.749509 -27.72 
L 90.89605 -27.72 
L 92.042592 -27.72 
L 93.189134 -27.72 
L 94.335675 -27.72 
L 95.482217 -27.72 
L 96.628758 -27.72 
L 97.7753 -27.72 
L 98.921842 -27.72 
L 100.068383 -27.72 
L 101.214925 -27.72 
L 102.361466 -27.72 
L 103.508008 -27.72 
L 104.65455 -27.72 
L 105.801091 -27.72 
L 106.947633 -27.72 
L 108.094174 -27.72 
L 109.240716 -27.72 
L 110.387257 -27.72 
L 111.533799 -27.72 
L 112.680341 -27.72 
L 113.826882 -27.72 
L 114.973424 -27.72 
L 116.119965 -27.72 
L 117.266507 -27.72 
L 118.413049 -27.72 
L 119.55959 -27.72 
L 120.706132 -27.72 
L 121.852673 -27.72 
L 122.999215 -27.72 
L 124.145757 -27.72 
L 125.292298 -27.72 
L 126.43884 -27.72 
L 127.585381 -27.72 
L 128.731923 -27.72 
L 129.878465 -27.72 
L 131.025006 -27.72 
L 132.171548 -27.72 
L 133.318089 -27.72 
L 134.464631 -27.72 
L 135.611172 -27.72 
L 136.757714 -27.72 
L 137.904256 -27.72 
L 139.050797 -27.72 
L 140.197339 -27.72 
L 141.34388 -27.72 
L 142.490422 -27.72 
L 143.636964 -27.72 
L 144.783505 -27.72 
L 145.930047 -27.72 
L 147.076588 -27.72 
L 148.22313 -27.72 
L 149.369672 -27.72 
L 150.516213 -27.72 
L 151.662755 -27.72 
L 152.809296 -27.72 
L 153.955838 -27.72 
L 155.102379 -27.72 
L 156.248921 -27.72 
L 157.395463 -27.72 
L 158.542004 -27.72 
L 159.688546 -27.72 
L 160.835087 -27.72 
L 161.981629 -27.72 
L 163.128171 -27.72 
L 164.274712 -27.72 
L 165.421254 -27.72 
L 166.567795 -27.72 
L 167.714337 -27.72 
L 168.860879 -27.72 
L 170.00742 -27.72 
L 171.153962 -27.72 
L 172.300503 -27.72 
L 173.447045 -27.72 
L 174.593587 -27.72 
L 175.740128 -27.72 
L 176.88667 -27.72 
L 178.033211 -27.72 
L 179.179753 -27.72 
L 180.326294 -27.72 
L 181.472836 -27.72 
L 182.619378 -27.72 
L 183.765919 -27.72 
L 184.912461 -27.72 
L 186.059002 -27.72 
L 187.205544 -27.72 
L 188.352086 -27.72 
L 189.498627 -27.72 
L 190.645169 -27.72 
L 191.79171 -27.72 
L 192.938252 -27.72 
L 194.084794 -27.72 
L 195.231335 -27.72 
L 196.377877 -27.72 
L 197.524418 -27.72 
L 198.67096 -27.72 
L 199.817502 -27.72 
L 200.964043 -27.72 
L 202.110585 -27.72 
L 203.257126 -27.72 
L 204.403668 -27.72 
L 205.550209 -27.72 
L 206.696751 -27.72 
L 207.843293 -27.72 
L 208.989834 -27.72 
L 210.136376 -27.72 
L 211.282917 -27.72 
L 212.429459 -27.72 
L 213.576001 -27.72 
L 214.722542 -27.72 
L 215.869084 -27.72 
L 217.015625 -27.72 
L 218.162167 -27.72 
L 219.308709 -27.72 
L 220.45525 -27.72 
L 221.601792 -27.72 
L 222.748333 -27.72 
L 223.894875 -27.72 
L 225.041417 -27.72 
L 226.187958 -27.72 
L 227.3345 -27.72 
L 228.481041 -27.72 
L 229.627583 -27.72 
L 230.774124 -27.72 
L 231.920666 -27.72 
L 233.067208 -27.72 
L 234.213749 -27.72 
L 235.360291 -27.72 
L 236.506832 -27.72 
L 237.653374 -27.72 
L 238.799916 -27.72 
L 239.946457 -27.72 
L 241.092999 -27.72 
L 242.23954 -27.72 
L 243.386082 -27.72 
L 244.532624 -27.72 
L 245.679165 -27.72 
L 246.825707 -27.72 
L 247.972248 -27.72 
L 249.11879 -27.72 
L 250.265331 -27.72 
L 251.411873 -27.72 
L 252.558415 -27.72 
L 253.704956 -27.72 
L 254.851498 -27.72 
L 255.998039 -27.72 
L 257.144581 -27.72 
L 258.291123 -27.72 
L 259.437664 -27.72 
L 260.584206 -27.72 
L 261.730747 -27.72 
L 262.877289 -27.72 
L 264.023831 -27.72 
L 265.170372 -27.72 
L 266.316914 -27.72 
L 267.463455 -27.72 
L 268.609997 -27.72 
L 269.756539 -27.72 
L 270.90308 -27.72 
L 272.049622 -27.72 
L 273.196163 -27.72 
L 274.342705 -27.72 
L 275.489246 -27.72 
L 276.635788 -27.72 
L 277.78233 -27.72 
L 278.928871 -27.72 
L 280.075413 -27.72 
L 280.075413 -27.75227 
L 280.075413 -27.75227 
L 278.928871 -27.985268 
L 277.78233 -28.957002 
L 276.635788 -31.016854 
L 275.489246 -32.831784 
L 274.342705 -32.57439 
L 273.196163 -31.010648 
L 272.049622 -29.885249 
L 270.90308 -29.368792 
L 269.756539 -29.01601 
L 268.609997 -28.71628 
L 267.463455 -28.488922 
L 266.316914 -28.314246 
L 265.170372 -28.199683 
L 264.023831 -28.163521 
L 262.877289 -28.170925 
L 261.730747 -28.175543 
L 260.584206 -28.166541 
L 259.437664 -28.141186 
L 258.291123 -28.104756 
L 257.144581 -28.079952 
L 255.998039 -28.065304 
L 254.851498 -28.054534 
L 253.704956 -28.066255 
L 252.558415 -28.105601 
L 251.411873 -28.146935 
L 250.265331 -28.152188 
L 249.11879 -28.112874 
L 247.972248 -28.074882 
L 246.825707 -28.06555 
L 245.679165 -28.051568 
L 244.532624 -28.024514 
L 243.386082 -28.011335 
L 242.23954 -28.002372 
L 241.092999 -27.982811 
L 239.946457 -27.986436 
L 238.799916 -28.042783 
L 237.653374 -28.121808 
L 236.506832 -28.157857 
L 235.360291 -28.122603 
L 234.213749 -28.06639 
L 233.067208 -28.051458 
L 231.920666 -28.089281 
L 230.774124 -28.158668 
L 229.627583 -28.217165 
L 228.481041 -28.22808 
L 227.3345 -28.199135 
L 226.187958 -28.145602 
L 225.041417 -28.080239 
L 223.894875 -28.037083 
L 222.748333 -28.021353 
L 221.601792 -27.998978 
L 220.45525 -27.970384 
L 219.308709 -27.957798 
L 218.162167 -27.955767 
L 217.015625 -27.949161 
L 215.869084 -27.939683 
L 214.722542 -27.936643 
L 213.576001 -27.942644 
L 212.429459 -27.947653 
L 211.282917 -27.93377 
L 210.136376 -27.915118 
L 208.989834 -27.917364 
L 207.843293 -27.923427 
L 206.696751 -27.910835 
L 205.550209 -27.895468 
L 204.403668 -27.903282 
L 203.257126 -27.934878 
L 202.110585 -27.99268 
L 200.964043 -28.113097 
L 199.817502 -28.314698 
L 198.67096 -28.54107 
L 197.524418 -28.688396 
L 196.377877 -28.689444 
L 195.231335 -28.556415 
L 194.084794 -28.350234 
L 192.938252 -28.151282 
L 191.79171 -28.039281 
L 190.645169 -28.03386 
L 189.498627 -28.090439 
L 188.352086 -28.148158 
L 187.205544 -28.170841 
L 186.059002 -28.149157 
L 184.912461 -28.083152 
L 183.765919 -28.01338 
L 182.619378 -28.027306 
L 181.472836 -28.164255 
L 180.326294 -28.344679 
L 179.179753 -28.448603 
L 178.033211 -28.446623 
L 176.88667 -28.377105 
L 175.740128 -28.270801 
L 174.593587 -28.194698 
L 173.447045 -28.222226 
L 172.300503 -28.339194 
L 171.153962 -28.467268 
L 170.00742 -28.540831 
L 168.860879 -28.546653 
L 167.714337 -28.515332 
L 166.567795 -28.494008 
L 165.421254 -28.522478 
L 164.274712 -28.586026 
L 163.128171 -28.634391 
L 161.981629 -28.680453 
L 160.835087 -28.80485 
L 159.688546 -29.019935 
L 158.542004 -29.208055 
L 157.395463 -29.313226 
L 156.248921 -29.386361 
L 155.102379 -29.435997 
L 153.955838 -29.453052 
L 152.809296 -29.483118 
L 151.662755 -29.599783 
L 150.516213 -29.788541 
L 149.369672 -29.91962 
L 148.22313 -30.022791 
L 147.076588 -30.414544 
L 145.930047 -31.288061 
L 144.783505 -32.288717 
L 143.636964 -32.731673 
L 142.490422 -32.488964 
L 141.34388 -32.198143 
L 140.197339 -32.337996 
L 139.050797 -32.855949 
L 137.904256 -33.648884 
L 136.757714 -34.659079 
L 135.611172 -35.754847 
L 134.464631 -37.003058 
L 133.318089 -38.694263 
L 132.171548 -40.989468 
L 131.025006 -43.866126 
L 129.878465 -47.258342 
L 128.731923 -50.958026 
L 127.585381 -54.959557 
L 126.43884 -59.85285 
L 125.292298 -66.175188 
L 124.145757 -74.013823 
L 122.999215 -83.44284 
L 121.852673 -94.593506 
L 120.706132 -106.992584 
L 119.55959 -119.684057 
L 118.413049 -132.188608 
L 117.266507 -144.513884 
L 116.119965 -156.957957 
L 114.973424 -169.565973 
L 113.826882 -181.310943 
L 112.680341 -191.290796 
L 111.533799 -199.620357 
L 110.387257 -206.21857 
L 109.240716 -210.753403 
L 108.094174 -212.52 
L 106.947633 -210.381998 
L 105.801091 -204.679619 
L 104.65455 -196.791748 
L 103.508008 -187.118298 
L 102.361466 -175.339343 
L 101.214925 -161.86573 
L 100.068383 -148.197404 
L 98.921842 -135.803182 
L 97.7753 -124.883916 
L 96.628758 -115.457387 
L 95.482217 -107.784448 
L 94.335675 -100.988682 
L 93.189134 -94.024311 
L 92.042592 -86.98858 
L 90.89605 -80.646752 
L 89.749509 -75.698707 
L 88.602967 -72.090217 
L 87.456426 -68.939331 
L 86.309884 -65.373276 
L 85.163342 -61.286904 
L 84.016801 -57.422155 
L 82.870259 -54.390858 
L 81.723718 -51.910678 
L 80.577176 -49.416547 
L 79.430635 -46.717566 
L 78.284093 -43.978605 
L 77.137551 -41.545019 
L 75.99101 -39.553991 
L 74.844468 -37.688429 
L 73.697927 -35.825324 
L 72.551385 -34.300774 
L 71.404843 -33.254996 
L 70.258302 -32.492254 
L 69.11176 -31.918598 
L 67.965219 -31.56518 
L 66.818677 -31.268967 
L 65.672135 -30.920356 
L 64.525594 -30.667074 
L 63.379052 -30.553542 
L 62.232511 -30.545999 
L 61.085969 -30.557481 
L 59.939427 -30.381665 
L 58.792886 -29.882853 
L 57.646344 -29.167989 
L 56.499803 -28.495137 
L 55.353261 -28.036633 
L 54.20672 -27.811319 
L 53.060178 -27.737173 
L 51.913636 -27.721985 
z
" style="stroke: #d62728"/>
    </defs>
    <g clip-path="url(#p2951a1a74e)">
     <use xlink:href="#m78785123e7" x="0" y="252" style="fill: #d62728; fill-opacity: 0.25; stroke: #d62728"/>
    </g>
   </g>
   <g id="PolyCollection_2">
    <defs>
     <path id="mdc8aef61c2" d="M 65.899644 -27.720035 
L 65.899644 -27.72 
L 66.973618 -27.72 
L 68.047592 -27.72 
L 69.121567 -27.72 
L 70.195541 -27.72 
L 71.269515 -27.72 
L 72.34349 -27.72 
L 73.417464 -27.72 
L 74.491438 -27.72 
L 75.565413 -27.72 
L 76.639387 -27.72 
L 77.713361 -27.72 
L 78.787336 -27.72 
L 79.86131 -27.72 
L 80.935284 -27.72 
L 82.009259 -27.72 
L 83.083233 -27.72 
L 84.157207 -27.72 
L 85.231182 -27.72 
L 86.305156 -27.72 
L 87.37913 -27.72 
L 88.453105 -27.72 
L 89.527079 -27.72 
L 90.601053 -27.72 
L 91.675027 -27.72 
L 92.749002 -27.72 
L 93.822976 -27.72 
L 94.89695 -27.72 
L 95.970925 -27.72 
L 97.044899 -27.72 
L 98.118873 -27.72 
L 99.192848 -27.72 
L 100.266822 -27.72 
L 101.340796 -27.72 
L 102.414771 -27.72 
L 103.488745 -27.72 
L 104.562719 -27.72 
L 105.636694 -27.72 
L 106.710668 -27.72 
L 107.784642 -27.72 
L 108.858617 -27.72 
L 109.932591 -27.72 
L 111.006565 -27.72 
L 112.08054 -27.72 
L 113.154514 -27.72 
L 114.228488 -27.72 
L 115.302463 -27.72 
L 116.376437 -27.72 
L 117.450411 -27.72 
L 118.524386 -27.72 
L 119.59836 -27.72 
L 120.672334 -27.72 
L 121.746309 -27.72 
L 122.820283 -27.72 
L 123.894257 -27.72 
L 124.968232 -27.72 
L 126.042206 -27.72 
L 127.11618 -27.72 
L 128.190155 -27.72 
L 129.264129 -27.72 
L 130.338103 -27.72 
L 131.412078 -27.72 
L 132.486052 -27.72 
L 133.560026 -27.72 
L 134.634 -27.72 
L 135.707975 -27.72 
L 136.781949 -27.72 
L 137.855923 -27.72 
L 138.929898 -27.72 
L 140.003872 -27.72 
L 141.077846 -27.72 
L 142.151821 -27.72 
L 143.225795 -27.72 
L 144.299769 -27.72 
L 145.373744 -27.72 
L 146.447718 -27.72 
L 147.521692 -27.72 
L 148.595667 -27.72 
L 149.669641 -27.72 
L 150.743615 -27.72 
L 151.81759 -27.72 
L 152.891564 -27.72 
L 153.965538 -27.72 
L 155.039513 -27.72 
L 156.113487 -27.72 
L 157.187461 -27.72 
L 158.261436 -27.72 
L 159.33541 -27.72 
L 160.409384 -27.72 
L 161.483359 -27.72 
L 162.557333 -27.72 
L 163.631307 -27.72 
L 164.705282 -27.72 
L 165.779256 -27.72 
L 166.85323 -27.72 
L 167.927205 -27.72 
L 169.001179 -27.72 
L 170.075153 -27.72 
L 171.149128 -27.72 
L 172.223102 -27.72 
L 173.297076 -27.72 
L 174.371051 -27.72 
L 175.445025 -27.72 
L 176.518999 -27.72 
L 177.592973 -27.72 
L 178.666948 -27.72 
L 179.740922 -27.72 
L 180.814896 -27.72 
L 181.888871 -27.72 
L 182.962845 -27.72 
L 184.036819 -27.72 
L 185.110794 -27.72 
L 186.184768 -27.72 
L 187.258742 -27.72 
L 188.332717 -27.72 
L 189.406691 -27.72 
L 190.480665 -27.72 
L 191.55464 -27.72 
L 192.628614 -27.72 
L 193.702588 -27.72 
L 194.776563 -27.72 
L 195.850537 -27.72 
L 196.924511 -27.72 
L 197.998486 -27.72 
L 199.07246 -27.72 
L 200.146434 -27.72 
L 201.220409 -27.72 
L 202.294383 -27.72 
L 203.368357 -27.72 
L 204.442332 -27.72 
L 205.516306 -27.72 
L 206.59028 -27.72 
L 207.664255 -27.72 
L 208.738229 -27.72 
L 209.812203 -27.72 
L 210.886178 -27.72 
L 211.960152 -27.72 
L 213.034126 -27.72 
L 214.108101 -27.72 
L 215.182075 -27.72 
L 216.256049 -27.72 
L 217.330024 -27.72 
L 218.403998 -27.72 
L 219.477972 -27.72 
L 220.551946 -27.72 
L 221.625921 -27.72 
L 222.699895 -27.72 
L 223.773869 -27.72 
L 224.847844 -27.72 
L 225.921818 -27.72 
L 226.995792 -27.72 
L 228.069767 -27.72 
L 229.143741 -27.72 
L 230.217715 -27.72 
L 231.29169 -27.72 
L 232.365664 -27.72 
L 233.439638 -27.72 
L 234.513613 -27.72 
L 235.587587 -27.72 
L 236.661561 -27.72 
L 237.735536 -27.72 
L 238.80951 -27.72 
L 239.883484 -27.72 
L 240.957459 -27.72 
L 242.031433 -27.72 
L 243.105407 -27.72 
L 244.179382 -27.72 
L 245.253356 -27.72 
L 246.32733 -27.72 
L 247.401305 -27.72 
L 248.475279 -27.72 
L 249.549253 -27.72 
L 250.623228 -27.72 
L 251.697202 -27.72 
L 252.771176 -27.72 
L 253.845151 -27.72 
L 254.919125 -27.72 
L 255.993099 -27.72 
L 257.067074 -27.72 
L 258.141048 -27.72 
L 259.215022 -27.72 
L 260.288997 -27.72 
L 261.362971 -27.72 
L 262.436945 -27.72 
L 263.510919 -27.72 
L 264.584894 -27.72 
L 265.658868 -27.72 
L 266.732842 -27.72 
L 267.806817 -27.72 
L 268.880791 -27.72 
L 269.954765 -27.72 
L 271.02874 -27.72 
L 272.102714 -27.72 
L 273.176688 -27.72 
L 274.250663 -27.72 
L 275.324637 -27.72 
L 276.398611 -27.72 
L 277.472586 -27.72 
L 278.54656 -27.72 
L 279.620534 -27.72 
L 279.620534 -27.726528 
L 279.620534 -27.726528 
L 278.54656 -27.773144 
L 277.472586 -27.953096 
L 276.398611 -28.285821 
L 275.324637 -28.551751 
L 274.250663 -28.682882 
L 273.176688 -28.958065 
L 272.102714 -29.404946 
L 271.02874 -29.720006 
L 269.954765 -29.703167 
L 268.880791 -29.428222 
L 267.806817 -29.092741 
L 266.732842 -28.822442 
L 265.658868 -28.644906 
L 264.584894 -28.541428 
L 263.510919 -28.479729 
L 262.436945 -28.414625 
L 261.362971 -28.331097 
L 260.288997 -28.257096 
L 259.215022 -28.201675 
L 258.141048 -28.153418 
L 257.067074 -28.128224 
L 255.993099 -28.159009 
L 254.919125 -28.251729 
L 253.845151 -28.381163 
L 252.771176 -28.494757 
L 251.697202 -28.535714 
L 250.623228 -28.494666 
L 249.549253 -28.404505 
L 248.475279 -28.292924 
L 247.401305 -28.180397 
L 246.32733 -28.101701 
L 245.253356 -28.063986 
L 244.179382 -28.038148 
L 243.105407 -28.01107 
L 242.031433 -27.993292 
L 240.957459 -27.993431 
L 239.883484 -28.005838 
L 238.80951 -28.022164 
L 237.735536 -28.031069 
L 236.661561 -28.033871 
L 235.587587 -28.059737 
L 234.513613 -28.12234 
L 233.439638 -28.189098 
L 232.365664 -28.224469 
L 231.29169 -28.232082 
L 230.217715 -28.239753 
L 229.143741 -28.266223 
L 228.069767 -28.310556 
L 226.995792 -28.36482 
L 225.921818 -28.416944 
L 224.847844 -28.436713 
L 223.773869 -28.400454 
L 222.699895 -28.332235 
L 221.625921 -28.277088 
L 220.551946 -28.252027 
L 219.477972 -28.244068 
L 218.403998 -28.232339 
L 217.330024 -28.200655 
L 216.256049 -28.156275 
L 215.182075 -28.128136 
L 214.108101 -28.110263 
L 213.034126 -28.089421 
L 211.960152 -28.083352 
L 210.886178 -28.111024 
L 209.812203 -28.166466 
L 208.738229 -28.212081 
L 207.664255 -28.21897 
L 206.59028 -28.201167 
L 205.516306 -28.186706 
L 204.442332 -28.191768 
L 203.368357 -28.223136 
L 202.294383 -28.245488 
L 201.220409 -28.215234 
L 200.146434 -28.162103 
L 199.07246 -28.147158 
L 197.998486 -28.181866 
L 196.924511 -28.232295 
L 195.850537 -28.265374 
L 194.776563 -28.273647 
L 193.702588 -28.280146 
L 192.628614 -28.295739 
L 191.55464 -28.325342 
L 190.480665 -28.385641 
L 189.406691 -28.468334 
L 188.332717 -28.549931 
L 187.258742 -28.622074 
L 186.184768 -28.673441 
L 185.110794 -28.697439 
L 184.036819 -28.734289 
L 182.962845 -28.820779 
L 181.888871 -28.942104 
L 180.814896 -29.055107 
L 179.740922 -29.135412 
L 178.666948 -29.217137 
L 177.592973 -29.332513 
L 176.518999 -29.463008 
L 175.445025 -29.585469 
L 174.371051 -29.702898 
L 173.297076 -29.816686 
L 172.223102 -29.914324 
L 171.149128 -30.044071 
L 170.075153 -30.263309 
L 169.001179 -30.504343 
L 167.927205 -30.656849 
L 166.85323 -30.722912 
L 165.779256 -30.796379 
L 164.705282 -30.964075 
L 163.631307 -31.183941 
L 162.557333 -31.349284 
L 161.483359 -31.481645 
L 160.409384 -31.693724 
L 159.33541 -32.075038 
L 158.261436 -32.608942 
L 157.187461 -33.175917 
L 156.113487 -33.751755 
L 155.039513 -34.438642 
L 153.965538 -35.182614 
L 152.891564 -35.826526 
L 151.81759 -36.398933 
L 150.743615 -37.002149 
L 149.669641 -37.760335 
L 148.595667 -38.909563 
L 147.521692 -40.476513 
L 146.447718 -42.162513 
L 145.373744 -43.762878 
L 144.299769 -45.430578 
L 143.225795 -47.505568 
L 142.151821 -50.116526 
L 141.077846 -53.150109 
L 140.003872 -56.660334 
L 138.929898 -60.625787 
L 137.855923 -64.717205 
L 136.781949 -68.963023 
L 135.707975 -73.799099 
L 134.634 -79.391563 
L 133.560026 -85.62271 
L 132.486052 -92.110856 
L 131.412078 -98.458934 
L 130.338103 -105.169108 
L 129.264129 -112.957614 
L 128.190155 -121.857726 
L 127.11618 -131.576817 
L 126.042206 -141.779936 
L 124.968232 -152.083819 
L 123.894257 -161.962905 
L 122.820283 -170.939111 
L 121.746309 -178.722595 
L 120.672334 -185.716933 
L 119.59836 -192.632366 
L 118.524386 -198.925119 
L 117.450411 -203.235881 
L 116.376437 -205.093738 
L 115.302463 -204.743896 
L 114.228488 -202.3924 
L 113.154514 -197.988137 
L 112.08054 -191.35441 
L 111.006565 -182.855668 
L 109.932591 -173.13033 
L 108.858617 -162.048781 
L 107.784642 -149.645668 
L 106.710668 -137.09009 
L 105.636694 -125.717919 
L 104.562719 -115.573938 
L 103.488745 -105.675841 
L 102.414771 -95.559778 
L 101.340796 -85.796532 
L 100.266822 -77.125712 
L 99.192848 -69.439757 
L 98.118873 -62.293838 
L 97.044899 -55.892523 
L 95.970925 -50.598095 
L 94.89695 -46.330857 
L 93.822976 -42.914481 
L 92.749002 -40.246097 
L 91.675027 -38.143039 
L 90.601053 -36.46676 
L 89.527079 -35.159392 
L 88.453105 -34.041912 
L 87.37913 -32.965728 
L 86.305156 -31.981624 
L 85.231182 -31.154298 
L 84.157207 -30.502306 
L 83.083233 -29.990409 
L 82.009259 -29.538349 
L 80.935284 -29.119643 
L 79.86131 -28.749248 
L 78.787336 -28.435284 
L 77.713361 -28.191255 
L 76.639387 -28.029375 
L 75.565413 -27.93148 
L 74.491438 -27.854901 
L 73.417464 -27.789409 
L 72.34349 -27.749044 
L 71.269515 -27.732333 
L 70.195541 -27.726825 
L 69.121567 -27.723726 
L 68.047592 -27.721372 
L 66.973618 -27.720294 
L 65.899644 -27.720035 
z
" style="stroke: #2ca02c"/>
    </defs>
    <g clip-path="url(#p2951a1a74e)">
     <use xlink:href="#mdc8aef61c2" x="0" y="252" style="fill: #2ca02c; fill-opacity: 0.25; stroke: #2ca02c"/>
    </g>
   </g>
   <g id="PolyCollection_3">
    <defs>
     <path id="m4394cee6b7" d="M 74.31442 -27.720103 
L 74.31442 -27.72 
L 75.348953 -27.72 
L 76.383485 -27.72 
L 77.418017 -27.72 
L 78.45255 -27.72 
L 79.487082 -27.72 
L 80.521615 -27.72 
L 81.556147 -27.72 
L 82.590679 -27.72 
L 83.625212 -27.72 
L 84.659744 -27.72 
L 85.694276 -27.72 
L 86.728809 -27.72 
L 87.763341 -27.72 
L 88.797874 -27.72 
L 89.832406 -27.72 
L 90.866938 -27.72 
L 91.901471 -27.72 
L 92.936003 -27.72 
L 93.970535 -27.72 
L 95.005068 -27.72 
L 96.0396 -27.72 
L 97.074133 -27.72 
L 98.108665 -27.72 
L 99.143197 -27.72 
L 100.17773 -27.72 
L 101.212262 -27.72 
L 102.246794 -27.72 
L 103.281327 -27.72 
L 104.315859 -27.72 
L 105.350392 -27.72 
L 106.384924 -27.72 
L 107.419456 -27.72 
L 108.453989 -27.72 
L 109.488521 -27.72 
L 110.523053 -27.72 
L 111.557586 -27.72 
L 112.592118 -27.72 
L 113.626651 -27.72 
L 114.661183 -27.72 
L 115.695715 -27.72 
L 116.730248 -27.72 
L 117.76478 -27.72 
L 118.799313 -27.72 
L 119.833845 -27.72 
L 120.868377 -27.72 
L 121.90291 -27.72 
L 122.937442 -27.72 
L 123.971974 -27.72 
L 125.006507 -27.72 
L 126.041039 -27.72 
L 127.075572 -27.72 
L 128.110104 -27.72 
L 129.144636 -27.72 
L 130.179169 -27.72 
L 131.213701 -27.72 
L 132.248233 -27.72 
L 133.282766 -27.72 
L 134.317298 -27.72 
L 135.351831 -27.72 
L 136.386363 -27.72 
L 137.420895 -27.72 
L 138.455428 -27.72 
L 139.48996 -27.72 
L 140.524492 -27.72 
L 141.559025 -27.72 
L 142.593557 -27.72 
L 143.62809 -27.72 
L 144.662622 -27.72 
L 145.697154 -27.72 
L 146.731687 -27.72 
L 147.766219 -27.72 
L 148.800752 -27.72 
L 149.835284 -27.72 
L 150.869816 -27.72 
L 151.904349 -27.72 
L 152.938881 -27.72 
L 153.973413 -27.72 
L 155.007946 -27.72 
L 156.042478 -27.72 
L 157.077011 -27.72 
L 158.111543 -27.72 
L 159.146075 -27.72 
L 160.180608 -27.72 
L 161.21514 -27.72 
L 162.249672 -27.72 
L 163.284205 -27.72 
L 164.318737 -27.72 
L 165.35327 -27.72 
L 166.387802 -27.72 
L 167.422334 -27.72 
L 168.456867 -27.72 
L 169.491399 -27.72 
L 170.525931 -27.72 
L 171.560464 -27.72 
L 172.594996 -27.72 
L 173.629529 -27.72 
L 174.664061 -27.72 
L 175.698593 -27.72 
L 176.733126 -27.72 
L 177.767658 -27.72 
L 178.802191 -27.72 
L 179.836723 -27.72 
L 180.871255 -27.72 
L 181.905788 -27.72 
L 182.94032 -27.72 
L 183.974852 -27.72 
L 185.009385 -27.72 
L 186.043917 -27.72 
L 187.07845 -27.72 
L 188.112982 -27.72 
L 189.147514 -27.72 
L 190.182047 -27.72 
L 191.216579 -27.72 
L 192.251111 -27.72 
L 193.285644 -27.72 
L 194.320176 -27.72 
L 195.354709 -27.72 
L 196.389241 -27.72 
L 197.423773 -27.72 
L 198.458306 -27.72 
L 199.492838 -27.72 
L 200.52737 -27.72 
L 201.561903 -27.72 
L 202.596435 -27.72 
L 203.630968 -27.72 
L 204.6655 -27.72 
L 205.700032 -27.72 
L 206.734565 -27.72 
L 207.769097 -27.72 
L 208.803629 -27.72 
L 209.838162 -27.72 
L 210.872694 -27.72 
L 211.907227 -27.72 
L 212.941759 -27.72 
L 213.976291 -27.72 
L 215.010824 -27.72 
L 216.045356 -27.72 
L 217.079889 -27.72 
L 218.114421 -27.72 
L 219.148953 -27.72 
L 220.183486 -27.72 
L 221.218018 -27.72 
L 222.25255 -27.72 
L 223.287083 -27.72 
L 224.321615 -27.72 
L 225.356148 -27.72 
L 226.39068 -27.72 
L 227.425212 -27.72 
L 228.459745 -27.72 
L 229.494277 -27.72 
L 230.528809 -27.72 
L 231.563342 -27.72 
L 232.597874 -27.72 
L 233.632407 -27.72 
L 234.666939 -27.72 
L 235.701471 -27.72 
L 236.736004 -27.72 
L 237.770536 -27.72 
L 238.805068 -27.72 
L 239.839601 -27.72 
L 240.874133 -27.72 
L 241.908666 -27.72 
L 242.943198 -27.72 
L 243.97773 -27.72 
L 245.012263 -27.72 
L 246.046795 -27.72 
L 247.081328 -27.72 
L 248.11586 -27.72 
L 249.150392 -27.72 
L 250.184925 -27.72 
L 251.219457 -27.72 
L 252.253989 -27.72 
L 253.288522 -27.72 
L 254.323054 -27.72 
L 255.357587 -27.72 
L 256.392119 -27.72 
L 257.426651 -27.72 
L 258.461184 -27.72 
L 259.495716 -27.72 
L 260.530248 -27.72 
L 261.564781 -27.72 
L 262.599313 -27.72 
L 263.633846 -27.72 
L 264.668378 -27.72 
L 265.70291 -27.72 
L 266.737443 -27.72 
L 267.771975 -27.72 
L 268.806507 -27.72 
L 269.84104 -27.72 
L 270.875572 -27.72 
L 271.910105 -27.72 
L 272.944637 -27.72 
L 273.979169 -27.72 
L 275.013702 -27.72 
L 276.048234 -27.72 
L 277.082766 -27.72 
L 278.117299 -27.72 
L 279.151831 -27.72 
L 280.186364 -27.72 
L 280.186364 -27.728689 
L 280.186364 -27.728689 
L 279.151831 -27.777666 
L 278.117299 -27.976008 
L 277.082766 -28.506118 
L 276.048234 -29.471132 
L 275.013702 -30.706004 
L 273.979169 -31.78542 
L 272.944637 -32.243117 
L 271.910105 -31.922237 
L 270.875572 -31.123507 
L 269.84104 -30.285775 
L 268.806507 -29.632727 
L 267.771975 -29.177504 
L 266.737443 -28.879524 
L 265.70291 -28.709023 
L 264.668378 -28.631323 
L 263.633846 -28.593269 
L 262.599313 -28.550764 
L 261.564781 -28.500689 
L 260.530248 -28.46523 
L 259.495716 -28.454903 
L 258.461184 -28.46075 
L 257.426651 -28.46844 
L 256.392119 -28.472491 
L 255.357587 -28.482173 
L 254.323054 -28.501189 
L 253.288522 -28.513539 
L 252.253989 -28.51324 
L 251.219457 -28.524435 
L 250.184925 -28.56698 
L 249.150392 -28.632813 
L 248.11586 -28.707732 
L 247.081328 -28.769417 
L 246.046795 -28.779628 
L 245.012263 -28.728355 
L 243.97773 -28.653612 
L 242.943198 -28.591092 
L 241.908666 -28.54141 
L 240.874133 -28.499805 
L 239.839601 -28.475989 
L 238.805068 -28.468049 
L 237.770536 -28.452716 
L 236.736004 -28.416202 
L 235.701471 -28.373939 
L 234.666939 -28.348377 
L 233.632407 -28.347465 
L 232.597874 -28.374079 
L 231.563342 -28.435634 
L 230.528809 -28.539756 
L 229.494277 -28.67702 
L 228.459745 -28.806774 
L 227.425212 -28.897062 
L 226.39068 -28.971833 
L 225.356148 -29.060173 
L 224.321615 -29.131199 
L 223.287083 -29.131268 
L 222.25255 -29.047246 
L 221.218018 -28.921023 
L 220.183486 -28.82529 
L 219.148953 -28.811188 
L 218.114421 -28.869673 
L 217.079889 -28.948482 
L 216.045356 -28.99849 
L 215.010824 -29.000679 
L 213.976291 -28.973728 
L 212.941759 -28.954376 
L 211.907227 -28.939583 
L 210.872694 -28.889163 
L 209.838162 -28.803517 
L 208.803629 -28.735034 
L 207.769097 -28.718557 
L 206.734565 -28.740689 
L 205.700032 -28.777878 
L 204.6655 -28.830871 
L 203.630968 -28.907574 
L 202.596435 -28.989475 
L 201.561903 -29.050129 
L 200.52737 -29.095778 
L 199.492838 -29.154867 
L 198.458306 -29.235671 
L 197.423773 -29.323753 
L 196.389241 -29.417066 
L 195.354709 -29.530261 
L 194.320176 -29.660135 
L 193.285644 -29.768669 
L 192.251111 -29.829284 
L 191.216579 -29.88852 
L 190.182047 -30.037267 
L 189.147514 -30.31444 
L 188.112982 -30.674394 
L 187.07845 -31.033811 
L 186.043917 -31.312723 
L 185.009385 -31.452621 
L 183.974852 -31.459478 
L 182.94032 -31.436301 
L 181.905788 -31.505115 
L 180.871255 -31.703492 
L 179.836723 -31.988954 
L 178.802191 -32.290245 
L 177.767658 -32.557438 
L 176.733126 -32.815959 
L 175.698593 -33.158744 
L 174.664061 -33.630624 
L 173.629529 -34.137615 
L 172.594996 -34.571037 
L 171.560464 -34.97158 
L 170.525931 -35.446236 
L 169.491399 -36.010022 
L 168.456867 -36.622147 
L 167.422334 -37.278952 
L 166.387802 -38.01708 
L 165.35327 -38.886002 
L 164.318737 -39.861142 
L 163.284205 -40.822563 
L 162.249672 -41.752919 
L 161.21514 -42.803924 
L 160.180608 -44.084666 
L 159.146075 -45.543326 
L 158.111543 -47.041479 
L 157.077011 -48.51807 
L 156.042478 -50.162533 
L 155.007946 -52.292725 
L 153.973413 -55.015272 
L 152.938881 -58.14205 
L 151.904349 -61.344167 
L 150.869816 -64.410506 
L 149.835284 -67.513674 
L 148.800752 -71.024953 
L 147.766219 -75.064864 
L 146.731687 -79.603612 
L 145.697154 -84.808248 
L 144.662622 -90.917975 
L 143.62809 -98.012846 
L 142.593557 -105.987895 
L 141.559025 -114.539799 
L 140.524492 -123.303848 
L 139.48996 -132.167392 
L 138.455428 -141.410475 
L 137.420895 -151.525521 
L 136.386363 -162.723462 
L 135.351831 -174.388533 
L 134.317298 -185.219204 
L 133.282766 -194.157058 
L 132.248233 -200.956738 
L 131.213701 -205.662573 
L 130.179169 -208.061244 
L 129.144636 -207.991416 
L 128.110104 -205.497486 
L 127.075572 -200.319339 
L 126.041039 -192.15033 
L 125.006507 -181.858407 
L 123.971974 -171.203771 
L 122.937442 -161.073854 
L 121.90291 -151.295464 
L 120.868377 -141.739695 
L 119.833845 -132.317838 
L 118.799313 -122.522917 
L 117.76478 -111.960178 
L 116.730248 -101.069512 
L 115.695715 -90.793775 
L 114.661183 -81.702624 
L 113.626651 -73.906851 
L 112.592118 -67.435746 
L 111.557586 -62.129813 
L 110.523053 -57.645316 
L 109.488521 -53.73019 
L 108.453989 -50.069722 
L 107.419456 -46.373531 
L 106.384924 -42.7842 
L 105.350392 -39.704272 
L 104.315859 -37.362017 
L 103.281327 -35.697643 
L 102.246794 -34.560955 
L 101.212262 -33.851637 
L 100.17773 -33.37963 
L 99.143197 -32.871393 
L 98.108665 -32.257891 
L 97.074133 -31.703838 
L 96.0396 -31.335044 
L 95.005068 -31.120689 
L 93.970535 -30.955725 
L 92.936003 -30.72406 
L 91.901471 -30.347109 
L 90.866938 -29.855246 
L 89.832406 -29.370128 
L 88.797874 -28.998275 
L 87.763341 -28.766122 
L 86.728809 -28.630872 
L 85.694276 -28.541295 
L 84.659744 -28.475126 
L 83.625212 -28.400259 
L 82.590679 -28.26814 
L 81.556147 -28.08542 
L 80.521615 -27.919831 
L 79.487082 -27.814908 
L 78.45255 -27.760755 
L 77.418017 -27.734859 
L 76.383485 -27.724109 
L 75.348953 -27.720795 
L 74.31442 -27.720103 
z
" style="stroke: #ff7f0e"/>
    </defs>
    <g clip-path="url(#p2951a1a74e)">
     <use xlink:href="#m4394cee6b7" x="0" y="252" style="fill: #ff7f0e; fill-opacity: 0.25; stroke: #ff7f0e"/>
    </g>
   </g>
   <g id="PolyCollection_4">
    <defs>
     <path id="m0ef29af4fc" d="M 96.388113 -27.720057 
L 96.388113 -27.72 
L 97.307636 -27.72 
L 98.22716 -27.72 
L 99.146683 -27.72 
L 100.066207 -27.72 
L 100.98573 -27.72 
L 101.905254 -27.72 
L 102.824778 -27.72 
L 103.744301 -27.72 
L 104.663825 -27.72 
L 105.583348 -27.72 
L 106.502872 -27.72 
L 107.422396 -27.72 
L 108.341919 -27.72 
L 109.261443 -27.72 
L 110.180966 -27.72 
L 111.10049 -27.72 
L 112.020013 -27.72 
L 112.939537 -27.72 
L 113.859061 -27.72 
L 114.778584 -27.72 
L 115.698108 -27.72 
L 116.617631 -27.72 
L 117.537155 -27.72 
L 118.456678 -27.72 
L 119.376202 -27.72 
L 120.295726 -27.72 
L 121.215249 -27.72 
L 122.134773 -27.72 
L 123.054296 -27.72 
L 123.97382 -27.72 
L 124.893344 -27.72 
L 125.812867 -27.72 
L 126.732391 -27.72 
L 127.651914 -27.72 
L 128.571438 -27.72 
L 129.490961 -27.72 
L 130.410485 -27.72 
L 131.330009 -27.72 
L 132.249532 -27.72 
L 133.169056 -27.72 
L 134.088579 -27.72 
L 135.008103 -27.72 
L 135.927627 -27.72 
L 136.84715 -27.72 
L 137.766674 -27.72 
L 138.686197 -27.72 
L 139.605721 -27.72 
L 140.525244 -27.72 
L 141.444768 -27.72 
L 142.364292 -27.72 
L 143.283815 -27.72 
L 144.203339 -27.72 
L 145.122862 -27.72 
L 146.042386 -27.72 
L 146.961909 -27.72 
L 147.881433 -27.72 
L 148.800957 -27.72 
L 149.72048 -27.72 
L 150.640004 -27.72 
L 151.559527 -27.72 
L 152.479051 -27.72 
L 153.398575 -27.72 
L 154.318098 -27.72 
L 155.237622 -27.72 
L 156.157145 -27.72 
L 157.076669 -27.72 
L 157.996192 -27.72 
L 158.915716 -27.72 
L 159.83524 -27.72 
L 160.754763 -27.72 
L 161.674287 -27.72 
L 162.59381 -27.72 
L 163.513334 -27.72 
L 164.432857 -27.72 
L 165.352381 -27.72 
L 166.271905 -27.72 
L 167.191428 -27.72 
L 168.110952 -27.72 
L 169.030475 -27.72 
L 169.949999 -27.72 
L 170.869523 -27.72 
L 171.789046 -27.72 
L 172.70857 -27.72 
L 173.628093 -27.72 
L 174.547617 -27.72 
L 175.46714 -27.72 
L 176.386664 -27.72 
L 177.306188 -27.72 
L 178.225711 -27.72 
L 179.145235 -27.72 
L 180.064758 -27.72 
L 180.984282 -27.72 
L 181.903806 -27.72 
L 182.823329 -27.72 
L 183.742853 -27.72 
L 184.662376 -27.72 
L 185.5819 -27.72 
L 186.501423 -27.72 
L 187.420947 -27.72 
L 188.340471 -27.72 
L 189.259994 -27.72 
L 190.179518 -27.72 
L 191.099041 -27.72 
L 192.018565 -27.72 
L 192.938088 -27.72 
L 193.857612 -27.72 
L 194.777136 -27.72 
L 195.696659 -27.72 
L 196.616183 -27.72 
L 197.535706 -27.72 
L 198.45523 -27.72 
L 199.374754 -27.72 
L 200.294277 -27.72 
L 201.213801 -27.72 
L 202.133324 -27.72 
L 203.052848 -27.72 
L 203.972371 -27.72 
L 204.891895 -27.72 
L 205.811419 -27.72 
L 206.730942 -27.72 
L 207.650466 -27.72 
L 208.569989 -27.72 
L 209.489513 -27.72 
L 210.409037 -27.72 
L 211.32856 -27.72 
L 212.248084 -27.72 
L 213.167607 -27.72 
L 214.087131 -27.72 
L 215.006654 -27.72 
L 215.926178 -27.72 
L 216.845702 -27.72 
L 217.765225 -27.72 
L 218.684749 -27.72 
L 219.604272 -27.72 
L 220.523796 -27.72 
L 221.443319 -27.72 
L 222.362843 -27.72 
L 223.282367 -27.72 
L 224.20189 -27.72 
L 225.121414 -27.72 
L 226.040937 -27.72 
L 226.960461 -27.72 
L 227.879985 -27.72 
L 228.799508 -27.72 
L 229.719032 -27.72 
L 230.638555 -27.72 
L 231.558079 -27.72 
L 232.477602 -27.72 
L 233.397126 -27.72 
L 234.31665 -27.72 
L 235.236173 -27.72 
L 236.155697 -27.72 
L 237.07522 -27.72 
L 237.994744 -27.72 
L 238.914267 -27.72 
L 239.833791 -27.72 
L 240.753315 -27.72 
L 241.672838 -27.72 
L 242.592362 -27.72 
L 243.511885 -27.72 
L 244.431409 -27.72 
L 245.350933 -27.72 
L 246.270456 -27.72 
L 247.18998 -27.72 
L 248.109503 -27.72 
L 249.029027 -27.72 
L 249.94855 -27.72 
L 250.868074 -27.72 
L 251.787598 -27.72 
L 252.707121 -27.72 
L 253.626645 -27.72 
L 254.546168 -27.72 
L 255.465692 -27.72 
L 256.385216 -27.72 
L 257.304739 -27.72 
L 258.224263 -27.72 
L 259.143786 -27.72 
L 260.06331 -27.72 
L 260.982833 -27.72 
L 261.902357 -27.72 
L 262.821881 -27.72 
L 263.741404 -27.72 
L 264.660928 -27.72 
L 265.580451 -27.72 
L 266.499975 -27.72 
L 267.419498 -27.72 
L 268.339022 -27.72 
L 269.258546 -27.72 
L 270.178069 -27.72 
L 271.097593 -27.72 
L 272.017116 -27.72 
L 272.93664 -27.72 
L 273.856164 -27.72 
L 274.775687 -27.72 
L 275.695211 -27.72 
L 276.614734 -27.72 
L 277.534258 -27.72 
L 278.453781 -27.72 
L 279.373305 -27.72 
L 279.373305 -27.740983 
L 279.373305 -27.740983 
L 278.453781 -27.879042 
L 277.534258 -28.448176 
L 276.614734 -29.758749 
L 275.695211 -31.299978 
L 274.775687 -31.887933 
L 273.856164 -31.328888 
L 272.93664 -30.490376 
L 272.017116 -29.870548 
L 271.097593 -29.467645 
L 270.178069 -29.308204 
L 269.258546 -29.337531 
L 268.339022 -29.37586 
L 267.419498 -29.37878 
L 266.499975 -29.293816 
L 265.580451 -29.04496 
L 264.660928 -28.765884 
L 263.741404 -28.598128 
L 262.821881 -28.511225 
L 261.902357 -28.451761 
L 260.982833 -28.407043 
L 260.06331 -28.374719 
L 259.143786 -28.374048 
L 258.224263 -28.398083 
L 257.304739 -28.383167 
L 256.385216 -28.29914 
L 255.465692 -28.191927 
L 254.546168 -28.11326 
L 253.626645 -28.077752 
L 252.707121 -28.075262 
L 251.787598 -28.087744 
L 250.868074 -28.100242 
L 249.94855 -28.099877 
L 249.029027 -28.085112 
L 248.109503 -28.072497 
L 247.18998 -28.076851 
L 246.270456 -28.10774 
L 245.350933 -28.16394 
L 244.431409 -28.220683 
L 243.511885 -28.258457 
L 242.592362 -28.280842 
L 241.672838 -28.297455 
L 240.753315 -28.318543 
L 239.833791 -28.351104 
L 238.914267 -28.391104 
L 237.994744 -28.424694 
L 237.07522 -28.43971 
L 236.155697 -28.433052 
L 235.236173 -28.398482 
L 234.31665 -28.336906 
L 233.397126 -28.268123 
L 232.477602 -28.211267 
L 231.558079 -28.170821 
L 230.638555 -28.138198 
L 229.719032 -28.105162 
L 228.799508 -28.078927 
L 227.879985 -28.074729 
L 226.960461 -28.099338 
L 226.040937 -28.143912 
L 225.121414 -28.176548 
L 224.20189 -28.165325 
L 223.282367 -28.118771 
L 222.362843 -28.069734 
L 221.443319 -28.040419 
L 220.523796 -28.038659 
L 219.604272 -28.060056 
L 218.684749 -28.089278 
L 217.765225 -28.111557 
L 216.845702 -28.123607 
L 215.926178 -28.127269 
L 215.006654 -28.126485 
L 214.087131 -28.129812 
L 213.167607 -28.145148 
L 212.248084 -28.17239 
L 211.32856 -28.20462 
L 210.409037 -28.240115 
L 209.489513 -28.281705 
L 208.569989 -28.331363 
L 207.650466 -28.395712 
L 206.730942 -28.480515 
L 205.811419 -28.572583 
L 204.891895 -28.652969 
L 203.972371 -28.731482 
L 203.052848 -28.839346 
L 202.133324 -29.005728 
L 201.213801 -29.230147 
L 200.294277 -29.452668 
L 199.374754 -29.626897 
L 198.45523 -29.804846 
L 197.535706 -30.062857 
L 196.616183 -30.402393 
L 195.696659 -30.790364 
L 194.777136 -31.236702 
L 193.857612 -31.754378 
L 192.938088 -32.307946 
L 192.018565 -32.884782 
L 191.099041 -33.553321 
L 190.179518 -34.398859 
L 189.259994 -35.432703 
L 188.340471 -36.607721 
L 187.420947 -37.884309 
L 186.501423 -39.21618 
L 185.5819 -40.599913 
L 184.662376 -42.140743 
L 183.742853 -43.930883 
L 182.823329 -45.999124 
L 181.903806 -48.417007 
L 180.984282 -51.17527 
L 180.064758 -54.064115 
L 179.145235 -56.928545 
L 178.225711 -59.857043 
L 177.306188 -63.101845 
L 176.386664 -66.817262 
L 175.46714 -70.813636 
L 174.547617 -74.802525 
L 173.628093 -78.847514 
L 172.70857 -83.23057 
L 171.789046 -87.914431 
L 170.869523 -92.578209 
L 169.949999 -97.160332 
L 169.030475 -101.974512 
L 168.110952 -107.189557 
L 167.191428 -112.589559 
L 166.271905 -117.928488 
L 165.352381 -123.101365 
L 164.432857 -128.23062 
L 163.513334 -133.592486 
L 162.59381 -139.174735 
L 161.674287 -144.485688 
L 160.754763 -149.057705 
L 159.83524 -153.065414 
L 158.915716 -156.979606 
L 157.996192 -160.779098 
L 157.076669 -164.191138 
L 156.157145 -167.21549 
L 155.237622 -169.85908 
L 154.318098 -171.705892 
L 153.398575 -172.181896 
L 152.479051 -171.487305 
L 151.559527 -170.330648 
L 150.640004 -168.994304 
L 149.72048 -167.544424 
L 148.800957 -165.868383 
L 147.881433 -163.603299 
L 146.961909 -160.807394 
L 146.042386 -157.632276 
L 145.122862 -153.800141 
L 144.203339 -149.160177 
L 143.283815 -143.465757 
L 142.364292 -136.401774 
L 141.444768 -128.707744 
L 140.525244 -121.644432 
L 139.605721 -115.408925 
L 138.686197 -109.255479 
L 137.766674 -102.764779 
L 136.84715 -96.119125 
L 135.927627 -89.517959 
L 135.008103 -83.122129 
L 134.088579 -77.092241 
L 133.169056 -71.369768 
L 132.249532 -65.957384 
L 131.330009 -61.150086 
L 130.410485 -56.981536 
L 129.490961 -53.171927 
L 128.571438 -49.672596 
L 127.651914 -46.471807 
L 126.732391 -43.426709 
L 125.812867 -40.620239 
L 124.893344 -38.254004 
L 123.97382 -36.312353 
L 123.054296 -34.632754 
L 122.134773 -33.166475 
L 121.215249 -32.009112 
L 120.295726 -31.14087 
L 119.376202 -30.415808 
L 118.456678 -29.785211 
L 117.537155 -29.29459 
L 116.617631 -28.976983 
L 115.698108 -28.78949 
L 114.778584 -28.636163 
L 113.859061 -28.463305 
L 112.939537 -28.282182 
L 112.020013 -28.115529 
L 111.10049 -27.977259 
L 110.180966 -27.875223 
L 109.261443 -27.810846 
L 108.341919 -27.779941 
L 107.422396 -27.76872 
L 106.502872 -27.760198 
L 105.583348 -27.748541 
L 104.663825 -27.737782 
L 103.744301 -27.731291 
L 102.824778 -27.729435 
L 101.905254 -27.730362 
L 100.98573 -27.730808 
L 100.066207 -27.728722 
L 99.146683 -27.724926 
L 98.22716 -27.721812 
L 97.307636 -27.720414 
L 96.388113 -27.720057 
z
" style="stroke: #1f77b4"/>
    </defs>
    <g clip-path="url(#p2951a1a74e)">
     <use xlink:href="#m0ef29af4fc" x="0" y="252" style="fill: #1f77b4; fill-opacity: 0.25; stroke: #1f77b4"/>
    </g>
   </g>
   <g id="matplotlib.axis_1">
    <g id="xtick_1">
     <g id="line2d_1">
      <defs>
       <path id="mcc669fcfe4" d="M 0 0 
L 0 3.5 
" style="stroke: #000000; stroke-width: 0.8"/>
      </defs>
      <g>
       <use xlink:href="#mcc669fcfe4" x="54.330551" y="224.28" style="stroke: #000000; stroke-width: 0.8"/>
      </g>
     </g>
     <g id="text_1">
      <text style="font: 10px 'DejaVu Sans', 'Bitstream Vera Sans', 'Computer Modern Sans Serif', 'Lucida Grande', 'Verdana', 'Geneva', 'Lucid', 'Arial', 'Helvetica', 'Avant Garde', sans-serif; text-anchor: middle" x="54.330551" y="238.878438" transform="rotate(-0 54.330551 238.878438)">0.0</text>
     </g>
    </g>
    <g id="xtick_2">
     <g id="line2d_2">
      <g>
       <use xlink:href="#mcc669fcfe4" x="98.580194" y="224.28" style="stroke: #000000; stroke-width: 0.8"/>
      </g>
     </g>
     <g id="text_2">
      <text style="font: 10px 'DejaVu Sans', 'Bitstream Vera Sans', 'Computer Modern Sans Serif', 'Lucida Grande', 'Verdana', 'Geneva', 'Lucid', 'Arial', 'Helvetica', 'Avant Garde', sans-serif; text-anchor: middle" x="98.580194" y="238.878438" transform="rotate(-0 98.580194 238.878438)">0.2</text>
     </g>
    </g>
    <g id="xtick_3">
     <g id="line2d_3">
      <g>
       <use xlink:href="#mcc669fcfe4" x="142.829837" y="224.28" style="stroke: #000000; stroke-width: 0.8"/>
      </g>
     </g>
     <g id="text_3">
      <text style="font: 10px 'DejaVu Sans', 'Bitstream Vera Sans', 'Computer Modern Sans Serif', 'Lucida Grande', 'Verdana', 'Geneva', 'Lucid', 'Arial', 'Helvetica', 'Avant Garde', sans-serif; text-anchor: middle" x="142.829837" y="238.878438" transform="rotate(-0 142.829837 238.878438)">0.4</text>
     </g>
    </g>
    <g id="xtick_4">
     <g id="line2d_4">
      <g>
       <use xlink:href="#mcc669fcfe4" x="187.079479" y="224.28" style="stroke: #000000; stroke-width: 0.8"/>
      </g>
     </g>
     <g id="text_4">
      <text style="font: 10px 'DejaVu Sans', 'Bitstream Vera Sans', 'Computer Modern Sans Serif', 'Lucida Grande', 'Verdana', 'Geneva', 'Lucid', 'Arial', 'Helvetica', 'Avant Garde', sans-serif; text-anchor: middle" x="187.079479" y="238.878438" transform="rotate(-0 187.079479 238.878438)">0.6</text>
     </g>
    </g>
    <g id="xtick_5">
     <g id="line2d_5">
      <g>
       <use xlink:href="#mcc669fcfe4" x="231.329122" y="224.28" style="stroke: #000000; stroke-width: 0.8"/>
      </g>
     </g>
     <g id="text_5">
      <text style="font: 10px 'DejaVu Sans', 'Bitstream Vera Sans', 'Computer Modern Sans Serif', 'Lucida Grande', 'Verdana', 'Geneva', 'Lucid', 'Arial', 'Helvetica', 'Avant Garde', sans-serif; text-anchor: middle" x="231.329122" y="238.878438" transform="rotate(-0 231.329122 238.878438)">0.8</text>
     </g>
    </g>
    <g id="xtick_6">
     <g id="line2d_6">
      <g>
       <use xlink:href="#mcc669fcfe4" x="275.578765" y="224.28" style="stroke: #000000; stroke-width: 0.8"/>
      </g>
     </g>
     <g id="text_6">
      <text style="font: 10px 'DejaVu Sans', 'Bitstream Vera Sans', 'Computer Modern Sans Serif', 'Lucida Grande', 'Verdana', 'Geneva', 'Lucid', 'Arial', 'Helvetica', 'Avant Garde', sans-serif; text-anchor: middle" x="275.578765" y="238.878438" transform="rotate(-0 275.578765 238.878438)">1.0</text>
     </g>
    </g>
    <g id="text_7">
     <text style="font: 10px 'DejaVu Sans', 'Bitstream Vera Sans', 'Computer Modern Sans Serif', 'Lucida Grande', 'Verdana', 'Geneva', 'Lucid', 'Arial', 'Helvetica', 'Avant Garde', sans-serif; text-anchor: middle" x="166.05" y="252.556563" transform="rotate(-0 166.05 252.556563)">TM-score</text>
    </g>
   </g>
   <g id="matplotlib.axis_2">
    <g id="ytick_1">
     <g id="line2d_7">
      <defs>
       <path id="m9f65515861" d="M 0 0 
L -3.5 0 
" style="stroke: #000000; stroke-width: 0.8"/>
      </defs>
      <g>
       <use xlink:href="#m9f65515861" x="40.5" y="224.28" style="stroke: #000000; stroke-width: 0.8"/>
      </g>
     </g>
     <g id="text_8">
      <text style="font: 10px 'DejaVu Sans', 'Bitstream Vera Sans', 'Computer Modern Sans Serif', 'Lucida Grande', 'Verdana', 'Geneva', 'Lucid', 'Arial', 'Helvetica', 'Avant Garde', sans-serif; text-anchor: end" x="33.5" y="228.079219" transform="rotate(-0 33.5 228.079219)">0.00</text>
     </g>
    </g>
    <g id="ytick_2">
     <g id="line2d_8">
      <g>
       <use xlink:href="#m9f65515861" x="40.5" y="201.726028" style="stroke: #000000; stroke-width: 0.8"/>
      </g>
     </g>
     <g id="text_9">
      <text style="font: 10px 'DejaVu Sans', 'Bitstream Vera Sans', 'Computer Modern Sans Serif', 'Lucida Grande', 'Verdana', 'Geneva', 'Lucid', 'Arial', 'Helvetica', 'Avant Garde', sans-serif; text-anchor: end" x="33.5" y="205.525247" transform="rotate(-0 33.5 205.525247)">0.25</text>
     </g>
    </g>
    <g id="ytick_3">
     <g id="line2d_9">
      <g>
       <use xlink:href="#m9f65515861" x="40.5" y="179.172056" style="stroke: #000000; stroke-width: 0.8"/>
      </g>
     </g>
     <g id="text_10">
      <text style="font: 10px 'DejaVu Sans', 'Bitstream Vera Sans', 'Computer Modern Sans Serif', 'Lucida Grande', 'Verdana', 'Geneva', 'Lucid', 'Arial', 'Helvetica', 'Avant Garde', sans-serif; text-anchor: end" x="33.5" y="182.971274" transform="rotate(-0 33.5 182.971274)">0.50</text>
     </g>
    </g>
    <g id="ytick_4">
     <g id="line2d_10">
      <g>
       <use xlink:href="#m9f65515861" x="40.5" y="156.618084" style="stroke: #000000; stroke-width: 0.8"/>
      </g>
     </g>
     <g id="text_11">
      <text style="font: 10px 'DejaVu Sans', 'Bitstream Vera Sans', 'Computer Modern Sans Serif', 'Lucida Grande', 'Verdana', 'Geneva', 'Lucid', 'Arial', 'Helvetica', 'Avant Garde', sans-serif; text-anchor: end" x="33.5" y="160.417302" transform="rotate(-0 33.5 160.417302)">0.75</text>
     </g>
    </g>
    <g id="ytick_5">
     <g id="line2d_11">
      <g>
       <use xlink:href="#m9f65515861" x="40.5" y="134.064111" style="stroke: #000000; stroke-width: 0.8"/>
      </g>
     </g>
     <g id="text_12">
      <text style="font: 10px 'DejaVu Sans', 'Bitstream Vera Sans', 'Computer Modern Sans Serif', 'Lucida Grande', 'Verdana', 'Geneva', 'Lucid', 'Arial', 'Helvetica', 'Avant Garde', sans-serif; text-anchor: end" x="33.5" y="137.86333" transform="rotate(-0 33.5 137.86333)">1.00</text>
     </g>
    </g>
    <g id="ytick_6">
     <g id="line2d_12">
      <g>
       <use xlink:href="#m9f65515861" x="40.5" y="111.510139" style="stroke: #000000; stroke-width: 0.8"/>
      </g>
     </g>
     <g id="text_13">
      <text style="font: 10px 'DejaVu Sans', 'Bitstream Vera Sans', 'Computer Modern Sans Serif', 'Lucida Grande', 'Verdana', 'Geneva', 'Lucid', 'Arial', 'Helvetica', 'Avant Garde', sans-serif; text-anchor: end" x="33.5" y="115.309358" transform="rotate(-0 33.5 115.309358)">1.25</text>
     </g>
    </g>
    <g id="ytick_7">
     <g id="line2d_13">
      <g>
       <use xlink:href="#m9f65515861" x="40.5" y="88.956167" style="stroke: #000000; stroke-width: 0.8"/>
      </g>
     </g>
     <g id="text_14">
      <text style="font: 10px 'DejaVu Sans', 'Bitstream Vera Sans', 'Computer Modern Sans Serif', 'Lucida Grande', 'Verdana', 'Geneva', 'Lucid', 'Arial', 'Helvetica', 'Avant Garde', sans-serif; text-anchor: end" x="33.5" y="92.755386" transform="rotate(-0 33.5 92.755386)">1.50</text>
     </g>
    </g>
    <g id="ytick_8">
     <g id="line2d_14">
      <g>
       <use xlink:href="#m9f65515861" x="40.5" y="66.402195" style="stroke: #000000; stroke-width: 0.8"/>
      </g>
     </g>
     <g id="text_15">
      <text style="font: 10px 'DejaVu Sans', 'Bitstream Vera Sans', 'Computer Modern Sans Serif', 'Lucida Grande', 'Verdana', 'Geneva', 'Lucid', 'Arial', 'Helvetica', 'Avant Garde', sans-serif; text-anchor: end" x="33.5" y="70.201414" transform="rotate(-0 33.5 70.201414)">1.75</text>
     </g>
    </g>
    <g id="ytick_9">
     <g id="line2d_15">
      <g>
       <use xlink:href="#m9f65515861" x="40.5" y="43.848223" style="stroke: #000000; stroke-width: 0.8"/>
      </g>
     </g>
     <g id="text_16">
      <text style="font: 10px 'DejaVu Sans', 'Bitstream Vera Sans', 'Computer Modern Sans Serif', 'Lucida Grande', 'Verdana', 'Geneva', 'Lucid', 'Arial', 'Helvetica', 'Avant Garde', sans-serif; text-anchor: end" x="33.5" y="47.647441" transform="rotate(-0 33.5 47.647441)">2.00</text>
     </g>
    </g>
    <g id="text_17">
     <text style="font: 10px 'DejaVu Sans', 'Bitstream Vera Sans', 'Computer Modern Sans Serif', 'Lucida Grande', 'Verdana', 'Geneva', 'Lucid', 'Arial', 'Helvetica', 'Avant Garde', sans-serif; text-anchor: middle" x="5.154687" y="127.26" transform="rotate(-90 5.154687 127.26)">Density</text>
    </g>
   </g>
   <g id="patch_3">
    <path d="M 40.5 224.28 
L 40.5 30.24 
" style="fill: none; stroke: #000000; stroke-width: 0.8; stroke-linejoin: miter; stroke-linecap: square"/>
   </g>
   <g id="patch_4">
    <path d="M 291.6 224.28 
L 291.6 30.24 
" style="fill: none; stroke: #000000; stroke-width: 0.8; stroke-linejoin: miter; stroke-linecap: square"/>
   </g>
   <g id="patch_5">
    <path d="M 40.5 224.28 
L 291.6 224.28 
" style="fill: none; stroke: #000000; stroke-width: 0.8; stroke-linejoin: miter; stroke-linecap: square"/>
   </g>
   <g id="patch_6">
    <path d="M 40.5 30.24 
L 291.6 30.24 
" style="fill: none; stroke: #000000; stroke-width: 0.8; stroke-linejoin: miter; stroke-linecap: square"/>
   </g>
   <g id="legend_1">
    <g id="patch_7">
     <path d="M 202.376563 111.630625 
L 284.6 111.630625 
Q 286.6 111.630625 286.6 109.630625 
L 286.6 37.24 
Q 286.6 35.24 284.6 35.24 
L 202.376563 35.24 
Q 200.376563 35.24 200.376563 37.24 
L 200.376563 109.630625 
Q 200.376563 111.630625 202.376563 111.630625 
z
" style="fill: #ffffff; opacity: 0.8; stroke: #cccccc; stroke-linejoin: miter"/>
    </g>
    <g id="text_18">
     <text style="font: 10px 'DejaVu Sans', 'Bitstream Vera Sans', 'Computer Modern Sans Serif', 'Lucida Grande', 'Verdana', 'Geneva', 'Lucid', 'Arial', 'Helvetica', 'Avant Garde', sans-serif; text-anchor: start" x="224.735156" y="46.838437" transform="rotate(-0 224.735156 46.838437)">Method</text>
    </g>
    <g id="patch_8">
     <path d="M 204.376563 61.516562 
L 224.376563 61.516562 
L 224.376563 54.516562 
L 204.376563 54.516562 
z
" style="fill: #1f77b4; fill-opacity: 0.25; stroke: #1f77b4; stroke-linejoin: miter"/>
    </g>
    <g id="text_19">
     <text style="font: 10px 'DejaVu Sans', 'Bitstream Vera Sans', 'Computer Modern Sans Serif', 'Lucida Grande', 'Verdana', 'Geneva', 'Lucid', 'Arial', 'Helvetica', 'Avant Garde', sans-serif; text-anchor: start" x="232.376563" y="61.516562" transform="rotate(-0 232.376563 61.516562)">TM-Vec</text>
    </g>
    <g id="patch_9">
     <path d="M 204.376563 76.194687 
L 224.376563 76.194687 
L 224.376563 69.194687 
L 204.376563 69.194687 
z
" style="fill: #ff7f0e; fill-opacity: 0.25; stroke: #ff7f0e; stroke-linejoin: miter"/>
    </g>
    <g id="text_20">
     <text style="font: 10px 'DejaVu Sans', 'Bitstream Vera Sans', 'Computer Modern Sans Serif', 'Lucida Grande', 'Verdana', 'Geneva', 'Lucid', 'Arial', 'Helvetica', 'Avant Garde', sans-serif; text-anchor: start" x="232.376563" y="76.194687" transform="rotate(-0 232.376563 76.194687)">TM-Vec 2</text>
    </g>
    <g id="patch_10">
     <path d="M 204.376563 90.872813 
L 224.376563 90.872813 
L 224.376563 83.872813 
L 204.376563 83.872813 
z
" style="fill: #2ca02c; fill-opacity: 0.25; stroke: #2ca02c; stroke-linejoin: miter"/>
    </g>
    <g id="text_21">
     <text style="font: 10px 'DejaVu Sans', 'Bitstream Vera Sans', 'Computer Modern Sans Serif', 'Lucida Grande', 'Verdana', 'Geneva', 'Lucid', 'Arial', 'Helvetica', 'Avant Garde', sans-serif; text-anchor: start" x="232.376563" y="90.872813" transform="rotate(-0 232.376563 90.872813)">TM-Vec 2s</text>
    </g>
    <g id="patch_11">
     <path d="M 204.376563 105.550938 
L 224.376563 105.550938 
L 224.376563 98.550938 
L 204.376563 98.550938 
z
" style="fill: #d62728; fill-opacity: 0.25; stroke: #d62728; stroke-linejoin: miter"/>
    </g>
    <g id="text_22">
     <text style="font: 10px 'DejaVu Sans', 'Bitstream Vera Sans', 'Computer Modern Sans Serif', 'Lucida Grande', 'Verdana', 'Geneva', 'Lucid', 'Arial', 'Helvetica', 'Avant Garde', sans-serif; text-anchor: start" x="232.376563" y="105.550938" transform="rotate(-0 232.376563 105.550938)">TM-align</text>
    </g>
   </g>
  </g>
 </g>
 <defs>
  <clipPath id="p2951a1a74e">
   <rect x="40.5" y="30.24" width="251.1" height="194.04"/>
  </clipPath>
 </defs>
</svg>
