<?xml version="1.0" encoding="utf-8" standalone="no"?>
<!DOCTYPE svg PUBLIC "-//W3C//DTD SVG 1.1//EN"
  "http://www.w3.org/Graphics/SVG/1.1/DTD/svg11.dtd">
<svg xmlns:xlink="http://www.w3.org/1999/xlink" width="216pt" height="252pt" viewBox="0 0 216 252" xmlns="http://www.w3.org/2000/svg" version="1.1">
 <metadata>
  <rdf:RDF xmlns:dc="http://purl.org/dc/elements/1.1/" xmlns:cc="http://creativecommons.org/ns#" xmlns:rdf="http://www.w3.org/1999/02/22-rdf-syntax-ns#">
   <cc:Work>
    <dc:type rdf:resource="http://purl.org/dc/dcmitype/StillImage"/>
    <dc:date>2026-01-20T16:08:53.499254</dc:date>
    <dc:format>image/svg+xml</dc:format>
    <dc:creator>
     <cc:Agent>
      <dc:title>Matplotlib v3.9.1, https://matplotlib.org/</dc:title>
     </cc:Agent>
    </dc:creator>
   </cc:Work>
  </rdf:RDF>
 </metadata>
 <defs>
  <style type="text/css">*{stroke-linejoin: round; stroke-linecap: butt}</style>
 </defs>
 <g id="figure_1">
  <g id="patch_1">
   <path d="M 0 252 
L 216 252 
L 216 0 
L 0 0 
z
" style="fill: #ffffff"/>
  </g>
  <g id="axes_1">
   <g id="patch_2">
    <path d="M 27 224.28 
L 194.4 224.28 
L 194.4 30.24 
L 27 30.24 
z
" style="fill: #ffffff"/>
   </g>
   <g id="PolyCollection_1">
    <path d="M 54.967418 215.46 
L 54.832582 215.46 
L 54.135666 213.678182 
L 53.565173 211.896364 
L 53.686935 210.114545 
L 53.552006 208.332727 
L 53.21484 206.550909 
L 52.739486 204.769091 
L 52.243855 202.987273 
L 51.530247 201.205455 
L 50.703952 199.423636 
L 49.64654 197.641818 
L 48.346393 195.86 
L 46.57297 194.078182 
L 44.600777 192.296364 
L 42.950895 190.514545 
L 41.240684 188.732727 
L 39.246419 186.950909 
L 37.477856 185.169091 
L 35.642729 183.387273 
L 33.917131 181.605455 
L 32.964014 179.823636 
L 32.589463 178.041818 
L 32.652185 176.26 
L 32.58 174.478182 
L 32.629595 172.696364 
L 33.087411 170.914545 
L 34.010277 169.132727 
L 35.383849 167.350909 
L 36.925817 165.569091 
L 38.483536 163.787273 
L 39.999434 162.005455 
L 41.310865 160.223636 
L 42.894913 158.441818 
L 44.401043 156.66 
L 45.707592 154.878182 
L 47.053405 153.096364 
L 48.044926 151.314545 
L 48.891519 149.532727 
L 49.850677 147.750909 
L 50.749212 145.969091 
L 51.473984 144.187273 
L 52.030201 142.405455 
L 52.525697 140.623636 
L 52.914173 138.841818 
L 53.326277 137.06 
L 53.615426 135.278182 
L 53.856171 133.496364 
L 54.06771 131.714545 
L 54.260831 129.932727 
L 54.396761 128.150909 
L 54.489874 126.369091 
L 54.584392 124.587273 
L 54.656263 122.805455 
L 54.699818 121.023636 
L 54.748163 119.241818 
L 54.781881 117.46 
L 54.80601 115.678182 
L 54.820057 113.896364 
L 54.837523 112.114545 
L 54.848515 110.332727 
L 54.859749 108.550909 
L 54.865691 106.769091 
L 54.86862 104.987273 
L 54.869682 103.205455 
L 54.87868 101.423636 
L 54.883676 99.641818 
L 54.881336 97.86 
L 54.885825 96.078182 
L 54.888808 94.296364 
L 54.890154 92.514545 
L 54.891299 90.732727 
L 54.892715 88.950909 
L 54.894086 87.169091 
L 54.896063 85.387273 
L 54.894013 83.605455 
L 54.890271 81.823636 
L 54.888827 80.041818 
L 54.890392 78.26 
L 54.893087 76.478182 
L 54.895737 74.696364 
L 54.898726 72.914545 
L 54.899144 71.132727 
L 54.898945 69.350909 
L 54.89987 67.569091 
L 54.899999 65.787273 
L 54.9 64.005455 
L 54.9 62.223636 
L 54.9 60.441818 
L 54.9 58.66 
L 54.9 56.878182 
L 54.9 55.096364 
L 54.9 53.314545 
L 54.899948 51.532727 
L 54.8995 49.750909 
L 54.899642 47.969091 
L 54.899976 46.187273 
L 54.899701 44.405455 
L 54.898525 42.623636 
L 54.899078 40.841818 
L 54.899911 39.06 
L 54.900089 39.06 
L 54.900089 39.06 
L 54.900922 40.841818 
L 54.901475 42.623636 
L 54.900299 44.405455 
L 54.900024 46.187273 
L 54.900358 47.969091 
L 54.9005 49.750909 
L 54.900052 51.532727 
L 54.9 53.314545 
L 54.9 55.096364 
L 54.9 56.878182 
L 54.9 58.66 
L 54.9 60.441818 
L 54.9 62.223636 
L 54.9 64.005455 
L 54.900001 65.787273 
L 54.90013 67.569091 
L 54.901055 69.350909 
L 54.900856 71.132727 
L 54.901274 72.914545 
L 54.904263 74.696364 
L 54.906913 76.478182 
L 54.909608 78.26 
L 54.911173 80.041818 
L 54.909729 81.823636 
L 54.905987 83.605455 
L 54.903937 85.387273 
L 54.905914 87.169091 
L 54.907285 88.950909 
L 54.908701 90.732727 
L 54.909846 92.514545 
L 54.911192 94.296364 
L 54.914175 96.078182 
L 54.918664 97.86 
L 54.916324 99.641818 
L 54.92132 101.423636 
L 54.930318 103.205455 
L 54.93138 104.987273 
L 54.934309 106.769091 
L 54.940251 108.550909 
L 54.951485 110.332727 
L 54.962477 112.114545 
L 54.979943 113.896364 
L 54.99399 115.678182 
L 55.018119 117.46 
L 55.051837 119.241818 
L 55.100182 121.023636 
L 55.143737 122.805455 
L 55.215608 124.587273 
L 55.310126 126.369091 
L 55.403239 128.150909 
L 55.539169 129.932727 
L 55.73229 131.714545 
L 55.943829 133.496364 
L 56.184574 135.278182 
L 56.473723 137.06 
L 56.885827 138.841818 
L 57.274303 140.623636 
L 57.769799 142.405455 
L 58.326016 144.187273 
L 59.050788 145.969091 
L 59.949323 147.750909 
L 60.908481 149.532727 
L 61.755074 151.314545 
L 62.746595 153.096364 
L 64.092408 154.878182 
L 65.398957 156.66 
L 66.905087 158.441818 
L 68.489135 160.223636 
L 69.800566 162.005455 
L 71.316464 163.787273 
L 72.874183 165.569091 
L 74.416151 167.350909 
L 75.789723 169.132727 
L 76.712589 170.914545 
L 77.170405 172.696364 
L 77.22 174.478182 
L 77.147815 176.26 
L 77.210537 178.041818 
L 76.835986 179.823636 
L 75.882869 181.605455 
L 74.157271 183.387273 
L 72.322144 185.169091 
L 70.553581 186.950909 
L 68.559316 188.732727 
L 66.849105 190.514545 
L 65.199223 192.296364 
L 63.22703 194.078182 
L 61.453607 195.86 
L 60.15346 197.641818 
L 59.096048 199.423636 
L 58.269753 201.205455 
L 57.556145 202.987273 
L 57.060514 204.769091 
L 56.58516 206.550909 
L 56.247994 208.332727 
L 56.113065 210.114545 
L 56.234827 211.896364 
L 55.664334 213.678182 
L 54.967418 215.46 
L 54.967418 215.46 
z
" clip-path="url(#pdd484cbe16)" style="fill: none; stroke: #1f77b4; stroke-width: 1.5"/>
   </g>
   <g id="PolyCollection_2">
    <path d="M 110.84574 215.250316 
L 110.55426 215.250316 
L 108.282386 213.536846 
L 104.829977 211.823377 
L 103.400686 210.109908 
L 101.852076 208.396438 
L 100.027024 206.682969 
L 98.002569 204.9695 
L 95.861248 203.256031 
L 93.753068 201.542561 
L 91.609221 199.829092 
L 89.853309 198.115623 
L 88.724445 196.402153 
L 88.38 194.688684 
L 89.031266 192.975215 
L 90.016415 191.261746 
L 91.419319 189.548276 
L 92.827796 187.834807 
L 94.659244 186.121338 
L 96.739182 184.407868 
L 98.715483 182.694399 
L 100.587322 180.98093 
L 102.075832 179.267461 
L 103.257765 177.553991 
L 104.390261 175.840522 
L 105.224494 174.127053 
L 106.045795 172.413583 
L 106.735526 170.700114 
L 107.289249 168.986645 
L 107.665489 167.273176 
L 108.068982 165.559706 
L 108.567915 163.846237 
L 108.946582 162.132768 
L 109.235106 160.419298 
L 109.483692 158.705829 
L 109.672782 156.99236 
L 109.856363 155.27889 
L 109.974984 153.565421 
L 110.038423 151.851952 
L 110.092514 150.138483 
L 110.194442 148.425013 
L 110.307806 146.711544 
L 110.365642 144.998075 
L 110.395401 143.284605 
L 110.411308 141.571136 
L 110.435166 139.857667 
L 110.482709 138.144198 
L 110.515243 136.430728 
L 110.539045 134.717259 
L 110.557383 133.00379 
L 110.574113 131.29032 
L 110.592293 129.576851 
L 110.588217 127.863382 
L 110.593364 126.149913 
L 110.601497 124.436443 
L 110.61119 122.722974 
L 110.615623 121.009505 
L 110.631396 119.296035 
L 110.631807 117.582566 
L 110.628017 115.869097 
L 110.640379 114.155628 
L 110.650154 112.442158 
L 110.656766 110.728689 
L 110.662149 109.01522 
L 110.662692 107.30175 
L 110.662889 105.588281 
L 110.665486 103.874812 
L 110.670187 102.161343 
L 110.671478 100.447873 
L 110.672893 98.734404 
L 110.678665 97.020935 
L 110.68113 95.307465 
L 110.678795 93.593996 
L 110.67639 91.880527 
L 110.673493 90.167057 
L 110.679139 88.453588 
L 110.684547 86.740119 
L 110.685638 85.02665 
L 110.682593 83.31318 
L 110.682854 81.599711 
L 110.682559 79.886242 
L 110.683145 78.172772 
L 110.679168 76.459303 
L 110.664861 74.745834 
L 110.660917 73.032365 
L 110.680045 71.318895 
L 110.6877 69.605426 
L 110.685428 67.891957 
L 110.691571 66.178487 
L 110.697137 64.465018 
L 110.698586 62.751549 
L 110.698285 61.03808 
L 110.695021 59.32461 
L 110.697358 57.611141 
L 110.698035 55.897672 
L 110.696735 54.184202 
L 110.698116 52.470733 
L 110.699225 50.757264 
L 110.699019 49.043795 
L 110.698966 47.330325 
L 110.699907 45.616856 
L 110.700093 45.616856 
L 110.700093 45.616856 
L 110.701034 47.330325 
L 110.700981 49.043795 
L 110.700775 50.757264 
L 110.701884 52.470733 
L 110.703265 54.184202 
L 110.701965 55.897672 
L 110.702642 57.611141 
L 110.704979 59.32461 
L 110.701715 61.03808 
L 110.701414 62.751549 
L 110.702863 64.465018 
L 110.708429 66.178487 
L 110.714572 67.891957 
L 110.7123 69.605426 
L 110.719955 71.318895 
L 110.739083 73.032365 
L 110.735139 74.745834 
L 110.720832 76.459303 
L 110.716855 78.172772 
L 110.717441 79.886242 
L 110.717146 81.599711 
L 110.717407 83.31318 
L 110.714362 85.02665 
L 110.715453 86.740119 
L 110.720861 88.453588 
L 110.726507 90.167057 
L 110.72361 91.880527 
L 110.721205 93.593996 
L 110.71887 95.307465 
L 110.721335 97.020935 
L 110.727107 98.734404 
L 110.728522 100.447873 
L 110.729813 102.161343 
L 110.734514 103.874812 
L 110.737111 105.588281 
L 110.737308 107.30175 
L 110.737851 109.01522 
L 110.743234 110.728689 
L 110.749846 112.442158 
L 110.759621 114.155628 
L 110.771983 115.869097 
L 110.768193 117.582566 
L 110.768604 119.296035 
L 110.784377 121.009505 
L 110.78881 122.722974 
L 110.798503 124.436443 
L 110.806636 126.149913 
L 110.811783 127.863382 
L 110.807707 129.576851 
L 110.825887 131.29032 
L 110.842617 133.00379 
L 110.860955 134.717259 
L 110.884757 136.430728 
L 110.917291 138.144198 
L 110.964834 139.857667 
L 110.988692 141.571136 
L 111.004599 143.284605 
L 111.034358 144.998075 
L 111.092194 146.711544 
L 111.205558 148.425013 
L 111.307486 150.138483 
L 111.361577 151.851952 
L 111.425016 153.565421 
L 111.543637 155.27889 
L 111.727218 156.99236 
L 111.916308 158.705829 
L 112.164894 160.419298 
L 112.453418 162.132768 
L 112.832085 163.846237 
L 113.331018 165.559706 
L 113.734511 167.273176 
L 114.110751 168.986645 
L 114.664474 170.700114 
L 115.354205 172.413583 
L 116.175506 174.127053 
L 117.009739 175.840522 
L 118.142235 177.553991 
L 119.324168 179.267461 
L 120.812678 180.98093 
L 122.684517 182.694399 
L 124.660818 184.407868 
L 126.740756 186.121338 
L 128.572204 187.834807 
L 129.980681 189.548276 
L 131.383585 191.261746 
L 132.368734 192.975215 
L 133.02 194.688684 
L 132.675555 196.402153 
L 131.546691 198.115623 
L 129.790779 199.829092 
L 127.646932 201.542561 
L 125.538752 203.256031 
L 123.397431 204.9695 
L 121.372976 206.682969 
L 119.547924 208.396438 
L 117.999314 210.109908 
L 116.570023 211.823377 
L 113.117614 213.536846 
L 110.84574 215.250316 
L 110.84574 215.250316 
z
" clip-path="url(#pdd484cbe16)" style="fill: none; stroke: #ff7f0e; stroke-width: 1.5"/>
   </g>
   <g id="PolyCollection_3">
    <path d="M 167.026806 214.889382 
L 165.973194 214.889382 
L 155.173903 213.260261 
L 144.336415 211.63114 
L 144.18 210.002018 
L 144.942755 208.372897 
L 145.85419 206.743775 
L 147.121387 205.114654 
L 148.183394 203.485533 
L 149.688597 201.856411 
L 151.408464 200.22729 
L 153.110805 198.598168 
L 154.695642 196.969047 
L 156.062202 195.339925 
L 157.338929 193.710804 
L 158.53601 192.081683 
L 159.71201 190.452561 
L 160.677199 188.82344 
L 161.58748 187.194318 
L 162.308306 185.565197 
L 162.920548 183.936075 
L 163.396475 182.306954 
L 163.953019 180.677833 
L 164.429148 179.048711 
L 164.727979 177.41959 
L 165.070919 175.790468 
L 165.297601 174.161347 
L 165.46349 172.532226 
L 165.597986 170.903104 
L 165.753077 169.273983 
L 165.877863 167.644861 
L 165.968178 166.01574 
L 166.067482 164.386618 
L 166.14728 162.757497 
L 166.213194 161.128376 
L 166.242416 159.499254 
L 166.293295 157.870133 
L 166.330491 156.241011 
L 166.350902 154.61189 
L 166.368777 152.982769 
L 166.396583 151.353647 
L 166.413766 149.724526 
L 166.423776 148.095404 
L 166.445986 146.466283 
L 166.451208 144.837161 
L 166.45206 143.20804 
L 166.458005 141.578919 
L 166.4658 139.949797 
L 166.466076 138.320676 
L 166.469352 136.691554 
L 166.478223 135.062433 
L 166.482134 133.433312 
L 166.481148 131.80419 
L 166.479452 130.175069 
L 166.482162 128.545947 
L 166.48057 126.916826 
L 166.48347 125.287704 
L 166.482788 123.658583 
L 166.483086 122.029462 
L 166.486021 120.40034 
L 166.489438 118.771219 
L 166.488253 117.142097 
L 166.484029 115.512976 
L 166.481336 113.883854 
L 166.485372 112.254733 
L 166.488122 110.625612 
L 166.486661 108.99649 
L 166.486239 107.367369 
L 166.489018 105.738247 
L 166.490924 104.109126 
L 166.491598 102.480005 
L 166.492551 100.850883 
L 166.490961 99.221762 
L 166.490879 97.59264 
L 166.490598 95.963519 
L 166.49111 94.334397 
L 166.488364 92.705276 
L 166.489339 91.076155 
L 166.489313 89.447033 
L 166.485425 87.817912 
L 166.487673 86.18879 
L 166.488575 84.559669 
L 166.484652 82.930548 
L 166.483148 81.301426 
L 166.489074 79.672305 
L 166.49284 78.043183 
L 166.49355 76.414062 
L 166.494503 74.78494 
L 166.493237 73.155819 
L 166.492491 71.526698 
L 166.496507 69.897576 
L 166.495967 68.268455 
L 166.498983 66.639333 
L 166.49796 65.010212 
L 166.499572 63.38109 
L 166.499586 61.751969 
L 166.499953 60.122848 
L 166.499647 58.493726 
L 166.49929 56.864605 
L 166.499527 55.235483 
L 166.499943 53.606362 
L 166.500057 53.606362 
L 166.500057 53.606362 
L 166.500473 55.235483 
L 166.50071 56.864605 
L 166.500353 58.493726 
L 166.500047 60.122848 
L 166.500414 61.751969 
L 166.500428 63.38109 
L 166.50204 65.010212 
L 166.501017 66.639333 
L 166.504033 68.268455 
L 166.503493 69.897576 
L 166.507509 71.526698 
L 166.506763 73.155819 
L 166.505497 74.78494 
L 166.50645 76.414062 
L 166.50716 78.043183 
L 166.510926 79.672305 
L 166.516852 81.301426 
L 166.515348 82.930548 
L 166.511425 84.559669 
L 166.512327 86.18879 
L 166.514575 87.817912 
L 166.510687 89.447033 
L 166.510661 91.076155 
L 166.511636 92.705276 
L 166.50889 94.334397 
L 166.509402 95.963519 
L 166.509121 97.59264 
L 166.509039 99.221762 
L 166.507449 100.850883 
L 166.508402 102.480005 
L 166.509076 104.109126 
L 166.510982 105.738247 
L 166.513761 107.367369 
L 166.513339 108.99649 
L 166.511878 110.625612 
L 166.514628 112.254733 
L 166.518664 113.883854 
L 166.515971 115.512976 
L 166.511747 117.142097 
L 166.510562 118.771219 
L 166.513979 120.40034 
L 166.516914 122.029462 
L 166.517212 123.658583 
L 166.51653 125.287704 
L 166.51943 126.916826 
L 166.517838 128.545947 
L 166.520548 130.175069 
L 166.518852 131.80419 
L 166.517866 133.433312 
L 166.521777 135.062433 
L 166.530648 136.691554 
L 166.533924 138.320676 
L 166.5342 139.949797 
L 166.541995 141.578919 
L 166.54794 143.20804 
L 166.548792 144.837161 
L 166.554014 146.466283 
L 166.576224 148.095404 
L 166.586234 149.724526 
L 166.603417 151.353647 
L 166.631223 152.982769 
L 166.649098 154.61189 
L 166.669509 156.241011 
L 166.706705 157.870133 
L 166.757584 159.499254 
L 166.786806 161.128376 
L 166.85272 162.757497 
L 166.932518 164.386618 
L 167.031822 166.01574 
L 167.122137 167.644861 
L 167.246923 169.273983 
L 167.402014 170.903104 
L 167.53651 172.532226 
L 167.702399 174.161347 
L 167.929081 175.790468 
L 168.272021 177.41959 
L 168.570852 179.048711 
L 169.046981 180.677833 
L 169.603525 182.306954 
L 170.079452 183.936075 
L 170.691694 185.565197 
L 171.41252 187.194318 
L 172.322801 188.82344 
L 173.28799 190.452561 
L 174.46399 192.081683 
L 175.661071 193.710804 
L 176.937798 195.339925 
L 178.304358 196.969047 
L 179.889195 198.598168 
L 181.591536 200.22729 
L 183.311403 201.856411 
L 184.816606 203.485533 
L 185.878613 205.114654 
L 187.14581 206.743775 
L 188.057245 208.372897 
L 188.82 210.002018 
L 188.663585 211.63114 
L 177.826097 213.260261 
L 167.026806 214.889382 
L 167.026806 214.889382 
z
" clip-path="url(#pdd484cbe16)" style="fill: none; stroke: #2ca02c; stroke-width: 1.5"/>
   </g>
   <g id="matplotlib.axis_1">
    <g id="xtick_1">
     <g id="line2d_1">
      <defs>
       <path id="md83d2f9662" d="M 0 0 
L 0 3.5 
" style="stroke: #000000; stroke-width: 0.8"/>
      </defs>
      <g>
       <use xlink:href="#md83d2f9662" x="54.9" y="224.28" style="stroke: #000000; stroke-width: 0.8"/>
      </g>
     </g>
     <g id="text_1">
      <text style="font: 10px 'DejaVu Sans', 'Bitstream Vera Sans', 'Computer Modern Sans Serif', 'Lucida Grande', 'Verdana', 'Geneva', 'Lucid', 'Arial', 'Helvetica', 'Avant Garde', sans-serif; text-anchor: middle" x="54.9" y="238.878438" transform="rotate(-0 54.9 238.878438)">TM-Vec</text>
     </g>
    </g>
    <g id="xtick_2">
     <g id="line2d_2">
      <g>
       <use xlink:href="#md83d2f9662" x="110.7" y="224.28" style="stroke: #000000; stroke-width: 0.8"/>
      </g>
     </g>
     <g id="text_2">
      <text style="font: 10px 'DejaVu Sans', 'Bitstream Vera Sans', 'Computer Modern Sans Serif', 'Lucida Grande', 'Verdana', 'Geneva', 'Lucid', 'Arial', 'Helvetica', 'Avant Garde', sans-serif; text-anchor: middle" x="110.7" y="238.878438" transform="rotate(-0 110.7 238.878438)">TM-Vec 2</text>
     </g>
    </g>
    <g id="xtick_3">
     <g id="line2d_3">
      <g>
       <use xlink:href="#md83d2f9662" x="166.5" y="224.28" style="stroke: #000000; stroke-width: 0.8"/>
      </g>
     </g>
     <g id="text_3">
      <text style="font: 10px 'DejaVu Sans', 'Bitstream Vera Sans', 'Computer Modern Sans Serif', 'Lucida Grande', 'Verdana', 'Geneva', 'Lucid', 'Arial', 'Helvetica', 'Avant Garde', sans-serif; text-anchor: middle" x="166.5" y="238.878438" transform="rotate(-0 166.5 238.878438)">TM-Vec 2s</text>
     </g>
    </g>
    <g id="text_4">
     <text style="font: 10px 'DejaVu Sans', 'Bitstream Vera Sans', 'Computer Modern Sans Serif', 'Lucida Grande', 'Verdana', 'Geneva', 'Lucid', 'Arial', 'Helvetica', 'Avant Garde', sans-serif; text-anchor: middle" x="110.7" y="252.556563" transform="rotate(-0 110.7 252.556563)">Method</text>
    </g>
   </g>
   <g id="matplotlib.axis_2">
    <g id="ytick_1">
     <g id="line2d_4">
      <defs>
       <path id="m9177ae6198" d="M 0 0 
L -3.5 0 
" style="stroke: #000000; stroke-width: 0.8"/>
      </defs>
      <g>
       <use xlink:href="#m9177ae6198" x="27" y="213.24773" style="stroke: #000000; stroke-width: 0.8"/>
      </g>
     </g>
     <g id="text_5">
      <text style="font: 10px 'DejaVu Sans', 'Bitstream Vera Sans', 'Computer Modern Sans Serif', 'Lucida Grande', 'Verdana', 'Geneva', 'Lucid', 'Arial', 'Helvetica', 'Avant Garde', sans-serif; text-anchor: end" x="20" y="217.046949" transform="rotate(-0 20 217.046949)">0.0</text>
     </g>
    </g>
    <g id="ytick_2">
     <g id="line2d_5">
      <g>
       <use xlink:href="#m9177ae6198" x="27" y="175.903249" style="stroke: #000000; stroke-width: 0.8"/>
      </g>
     </g>
     <g id="text_6">
      <text style="font: 10px 'DejaVu Sans', 'Bitstream Vera Sans', 'Computer Modern Sans Serif', 'Lucida Grande', 'Verdana', 'Geneva', 'Lucid', 'Arial', 'Helvetica', 'Avant Garde', sans-serif; text-anchor: end" x="20" y="179.702468" transform="rotate(-0 20 179.702468)">0.2</text>
     </g>
    </g>
    <g id="ytick_3">
     <g id="line2d_6">
      <g>
       <use xlink:href="#m9177ae6198" x="27" y="138.558769" style="stroke: #000000; stroke-width: 0.8"/>
      </g>
     </g>
     <g id="text_7">
      <text style="font: 10px 'DejaVu Sans', 'Bitstream Vera Sans', 'Computer Modern Sans Serif', 'Lucida Grande', 'Verdana', 'Geneva', 'Lucid', 'Arial', 'Helvetica', 'Avant Garde', sans-serif; text-anchor: end" x="20" y="142.357987" transform="rotate(-0 20 142.357987)">0.4</text>
     </g>
    </g>
    <g id="ytick_4">
     <g id="line2d_7">
      <g>
       <use xlink:href="#m9177ae6198" x="27" y="101.214288" style="stroke: #000000; stroke-width: 0.8"/>
      </g>
     </g>
     <g id="text_8">
      <text style="font: 10px 'DejaVu Sans', 'Bitstream Vera Sans', 'Computer Modern Sans Serif', 'Lucida Grande', 'Verdana', 'Geneva', 'Lucid', 'Arial', 'Helvetica', 'Avant Garde', sans-serif; text-anchor: end" x="20" y="105.013507" transform="rotate(-0 20 105.013507)">0.6</text>
     </g>
    </g>
    <g id="ytick_5">
     <g id="line2d_8">
      <g>
       <use xlink:href="#m9177ae6198" x="27" y="63.869807" style="stroke: #000000; stroke-width: 0.8"/>
      </g>
     </g>
     <g id="text_9">
      <text style="font: 10px 'DejaVu Sans', 'Bitstream Vera Sans', 'Computer Modern Sans Serif', 'Lucida Grande', 'Verdana', 'Geneva', 'Lucid', 'Arial', 'Helvetica', 'Avant Garde', sans-serif; text-anchor: end" x="20" y="67.669026" transform="rotate(-0 20 67.669026)">0.8</text>
     </g>
    </g>
    <g id="text_10">
     <text style="font: 10px 'DejaVu Sans', 'Bitstream Vera Sans', 'Computer Modern Sans Serif', 'Lucida Grande', 'Verdana', 'Geneva', 'Lucid', 'Arial', 'Helvetica', 'Avant Garde', sans-serif; text-anchor: middle" x="-1.982813" y="127.26" transform="rotate(-90 -1.982813 127.26)">Prediction error (abs.)</text>
    </g>
   </g>
   <g id="line2d_9">
    <path d="M 54.9 213.035046 
L 54.9 134.184808 
" clip-path="url(#pdd484cbe16)" style="fill: none; stroke: #1f77b4; stroke-width: 2.25; stroke-linecap: square"/>
   </g>
   <g id="line2d_10">
    <path d="M 54.9 183.466071 
L 54.9 163.753325 
" clip-path="url(#pdd484cbe16)" style="fill: none; stroke: #1f77b4; stroke-width: 6.75; stroke-linecap: square"/>
   </g>
   <g id="line2d_11">
    <path d="M 54.9 173.962093 
" clip-path="url(#pdd484cbe16)" style="fill: none; stroke: #1f77b4; stroke-width: 1.5; stroke-linecap: square"/>
    <defs>
     <path id="m7751a4952f" d="M 2.8125 0 
L -2.8125 -0 
" style="stroke: #ffffff; stroke-width: 1.35"/>
    </defs>
    <g clip-path="url(#pdd484cbe16)">
     <use xlink:href="#m7751a4952f" x="54.9" y="173.962093" style="fill: #ffffff; stroke: #ffffff; stroke-width: 1.35"/>
    </g>
   </g>
   <g id="line2d_12">
    <path d="M 110.7 213.24773 
L 110.7 161.292494 
" clip-path="url(#pdd484cbe16)" style="fill: none; stroke: #ff7f0e; stroke-width: 2.25; stroke-linecap: square"/>
   </g>
   <g id="line2d_13">
    <path d="M 110.7 199.807771 
L 110.7 184.401635 
" clip-path="url(#pdd484cbe16)" style="fill: none; stroke: #ff7f0e; stroke-width: 6.75; stroke-linecap: square"/>
   </g>
   <g id="line2d_14">
    <path d="M 110.7 192.734761 
" clip-path="url(#pdd484cbe16)" style="fill: none; stroke: #ff7f0e; stroke-width: 1.5; stroke-linecap: square"/>
    <g clip-path="url(#pdd484cbe16)">
     <use xlink:href="#m7751a4952f" x="110.7" y="192.734761" style="fill: #ffffff; stroke: #ffffff; stroke-width: 1.35"/>
    </g>
   </g>
   <g id="line2d_15">
    <path d="M 166.5 213.24773 
L 166.5 175.630065 
" clip-path="url(#pdd484cbe16)" style="fill: none; stroke: #2ca02c; stroke-width: 2.25; stroke-linecap: square"/>
   </g>
   <g id="line2d_16">
    <path d="M 166.5 208.443996 
L 166.5 195.318359 
" clip-path="url(#pdd484cbe16)" style="fill: none; stroke: #2ca02c; stroke-width: 6.75; stroke-linecap: square"/>
   </g>
   <g id="line2d_17">
    <path d="M 166.5 203.013154 
" clip-path="url(#pdd484cbe16)" style="fill: none; stroke: #2ca02c; stroke-width: 1.5; stroke-linecap: square"/>
    <g clip-path="url(#pdd484cbe16)">
     <use xlink:href="#m7751a4952f" x="166.5" y="203.013154" style="fill: #ffffff; stroke: #ffffff; stroke-width: 1.35"/>
    </g>
   </g>
   <g id="patch_3">
    <path d="M 27 224.28 
L 27 30.24 
" style="fill: none; stroke: #000000; stroke-width: 0.8; stroke-linejoin: miter; stroke-linecap: square"/>
   </g>
   <g id="patch_4">
    <path d="M 194.4 224.28 
L 194.4 30.24 
" style="fill: none; stroke: #000000; stroke-width: 0.8; stroke-linejoin: miter; stroke-linecap: square"/>
   </g>
   <g id="patch_5">
    <path d="M 27 224.28 
L 194.4 224.28 
" style="fill: none; stroke: #000000; stroke-width: 0.8; stroke-linejoin: miter; stroke-linecap: square"/>
   </g>
   <g id="patch_6">
    <path d="M 27 30.24 
L 194.4 30.24 
" style="fill: none; stroke: #000000; stroke-width: 0.8; stroke-linejoin: miter; stroke-linecap: square"/>
   </g>
  </g>
 </g>
 <defs>
  <clipPath id="pdd484cbe16">
   <rect x="27" y="30.24" width="167.4" height="194.04"/>
  </clipPath>
 </defs>
</svg>
